<svg width="1267" height="1018" viewBox="0 0 1267 1018" fill="none" xmlns="http://www.w3.org/2000/svg">
<ellipse cx="538" cy="450.766" rx="338" ry="450.5" fill="url(#paint0_radial_555_235)"/>
<g filter="url(#filter0_d_555_235)">
<path d="M14 298.447V843.186H1239V169.466L1182.98 102.263H825.5L750.203 49.2653H14V298.447Z" fill="#080808"/>
<path d="M14 298.447V843.186H1239V169.466L1182.98 102.263H825.5L750.203 49.2653H14V298.447Z" fill="url(#paint1_radial_555_235)"/>
</g>
<g opacity="0.8">
<line x1="765.999" y1="74.8982" x2="30.0004" y2="74.8981" stroke="white" stroke-opacity="0.3" stroke-width="1.18304"/>
<line x1="765.999" y1="138.172" x2="30.0004" y2="138.172" stroke="white" stroke-opacity="0.3" stroke-width="1.18304"/>
<line x1="765.998" y1="201.347" x2="29.9995" y2="201.347" stroke="white" stroke-opacity="0.3" stroke-width="1.18304"/>
<line x1="766" y1="264.711" x2="30.0014" y2="264.711" stroke="white" stroke-opacity="0.3" stroke-width="1.18304"/>
<line x1="766" y1="327.904" x2="30.0014" y2="327.904" stroke="white" stroke-opacity="0.3" stroke-width="1.18304"/>
<line x1="766" y1="391.249" x2="30.0014" y2="391.249" stroke="white" stroke-opacity="0.3" stroke-width="1.18304"/>
<line x1="765.999" y1="454.516" x2="30.0004" y2="454.516" stroke="white" stroke-opacity="0.3" stroke-width="1.18304"/>
<line x1="766" y1="517.695" x2="30.0014" y2="517.695" stroke="white" stroke-opacity="0.3" stroke-width="1.18304"/>
<line x1="765.998" y1="581.058" x2="29.9995" y2="581.058" stroke="white" stroke-opacity="0.3" stroke-width="1.18304"/>
<line x1="766" y1="644.254" x2="30.0014" y2="644.254" stroke="white" stroke-opacity="0.3" stroke-width="1.18304"/>
<line x1="765.998" y1="707.596" x2="29.9995" y2="707.596" stroke="white" stroke-opacity="0.3" stroke-width="1.18304"/>
<line x1="747.598" y1="770.868" x2="52.0788" y2="770.868" stroke="white" stroke-opacity="0.3" stroke-width="1.18304"/>
<line x1="480.209" y1="823" x2="480.209" y2="49" stroke="white" stroke-opacity="0.3" stroke-width="1.18304"/>
<line x1="423.169" y1="823" x2="423.169" y2="49" stroke="white" stroke-opacity="0.3" stroke-width="1.18304"/>
<line x1="366.129" y1="823" x2="366.129" y2="49" stroke="white" stroke-opacity="0.3" stroke-width="1.18304"/>
<line x1="309.09" y1="823" x2="309.09" y2="49" stroke="white" stroke-opacity="0.3" stroke-width="1.18304"/>
<line x1="252.048" y1="823" x2="252.048" y2="49" stroke="white" stroke-opacity="0.3" stroke-width="1.18304"/>
<line x1="195.01" y1="823" x2="195.01" y2="49" stroke="white" stroke-opacity="0.3" stroke-width="1.18304"/>
<line x1="137.969" y1="823" x2="137.969" y2="49" stroke="white" stroke-opacity="0.3" stroke-width="1.18304"/>
<line x1="80.928" y1="823" x2="80.928" y2="49" stroke="white" stroke-opacity="0.3" stroke-width="1.18304"/>
<line x1="708.369" y1="823" x2="708.369" y2="49" stroke="white" stroke-opacity="0.3" stroke-width="1.18304"/>
<line x1="765.409" y1="823" x2="765.409" y2="49" stroke="white" stroke-opacity="0.3" stroke-width="1.18304"/>
<line x1="651.327" y1="823" x2="651.327" y2="49" stroke="white" stroke-opacity="0.3" stroke-width="1.18304"/>
<line x1="594.29" y1="823" x2="594.29" y2="49" stroke="white" stroke-opacity="0.3" stroke-width="1.18304"/>
<line x1="537.248" y1="823" x2="537.248" y2="49" stroke="white" stroke-opacity="0.3" stroke-width="1.18304"/>
<line x1="30.7014" y1="768.402" x2="30.7014" y2="49.0004" stroke="white" stroke-opacity="0.3" stroke-width="1.18304"/>
</g>
<g filter="url(#filter1_dd_555_235)">
<path d="M14 657.187V985.264H1239V657.187H1059.05L998.066 700.02H605.795L543.302 657.187H14Z" fill="#0E0E0E"/>
</g>
<defs>
<filter id="filter0_d_555_235" x="3" y="11.2656" width="1269" height="837.92" filterUnits="userSpaceOnUse" color-interpolation-filters="sRGB">
<feFlood flood-opacity="0" result="BackgroundImageFix"/>
<feColorMatrix in="SourceAlpha" type="matrix" values="0 0 0 0 0 0 0 0 0 0 0 0 0 0 0 0 0 0 127 0" result="hardAlpha"/>
<feOffset dx="11" dy="-16"/>
<feGaussianBlur stdDeviation="11"/>
<feComposite in2="hardAlpha" operator="out"/>
<feColorMatrix type="matrix" values="0 0 0 0 0 0 0 0 0 0 0 0 0 0 0 0 0 0 0.21 0"/>
<feBlend mode="normal" in2="BackgroundImageFix" result="effect1_dropShadow_555_235"/>
<feBlend mode="normal" in="SourceGraphic" in2="effect1_dropShadow_555_235" result="shape"/>
</filter>
<filter id="filter1_dd_555_235" x="0" y="622.187" width="1265" height="395.377" filterUnits="userSpaceOnUse" color-interpolation-filters="sRGB">
<feFlood flood-opacity="0" result="BackgroundImageFix"/>
<feColorMatrix in="SourceAlpha" type="matrix" values="0 0 0 0 0 0 0 0 0 0 0 0 0 0 0 0 0 0 127 0" result="hardAlpha"/>
<feOffset dx="6" dy="-15"/>
<feGaussianBlur stdDeviation="10"/>
<feComposite in2="hardAlpha" operator="out"/>
<feColorMatrix type="matrix" values="0 0 0 0 0 0 0 0 0 0 0 0 0 0 0 0 0 0 1 0"/>
<feBlend mode="normal" in2="BackgroundImageFix" result="effect1_dropShadow_555_235"/>
<feColorMatrix in="SourceAlpha" type="matrix" values="0 0 0 0 0 0 0 0 0 0 0 0 0 0 0 0 0 0 127 0" result="hardAlpha"/>
<feOffset dx="3" dy="20"/>
<feGaussianBlur stdDeviation="6.15"/>
<feComposite in2="hardAlpha" operator="out"/>
<feColorMatrix type="matrix" values="0 0 0 0 0 0 0 0 0 0 0 0 0 0 0 0 0 0 0.48 0"/>
<feBlend mode="normal" in2="effect1_dropShadow_555_235" result="effect2_dropShadow_555_235"/>
<feBlend mode="normal" in="SourceGraphic" in2="effect2_dropShadow_555_235" result="shape"/>
</filter>
<radialGradient id="paint0_radial_555_235" cx="0" cy="0" r="1" gradientUnits="userSpaceOnUse" gradientTransform="translate(538 450.766) rotate(90) scale(450.5 338)">
<stop offset="0.339"/>
<stop offset="1" stop-color="#0A0A0A" stop-opacity="0"/>
</radialGradient>
<radialGradient id="paint1_radial_555_235" cx="0" cy="0" r="1" gradientUnits="userSpaceOnUse" gradientTransform="translate(134 126.263) rotate(38.4369) scale(822.808 1642.55)">
<stop stop-color="#E53A24" stop-opacity="0.12"/>
<stop offset="1" stop-color="#080808"/>
</radialGradient>
</defs>
</svg>
