<svg width="197" height="88" viewBox="0 0 197 88" fill="none" xmlns="http://www.w3.org/2000/svg">
<g filter="url(#filter0_d_435_3422)">
<g clip-path="url(#clip0_435_3422)">
<path fill-rule="evenodd" clip-rule="evenodd" d="M17.8721 9H194.034V26.1983H0.673828V23.7414L17.8721 9ZM190.758 20.4649V22.9218H189.939V20.4649H190.758ZM190.348 11.8664L165.369 11.8664V12.6854L189.938 12.6854V19.6466H190.757V12.2759V11.8664H190.348Z" fill="#2B2A29"/>
<g clip-path="url(#clip1_435_3422)">
<path d="M189.918 1.24623L193.692 6.55067L63.1458 6.55067L67.9479 1.24725L69.2832 2.7957L69.4058 2.93776H69.5934L187.934 2.93776H188.095L188.212 2.82848L189.918 1.24623Z" stroke="#1FB6EA" stroke-width="0.818966"/>
<path d="M88.0194 1.57891L78.6013 1.57891L70.8212 1.57891L69.5927 -0.00390625L188.343 -0.00390625L186.705 1.57891L97.4376 1.57891L88.0194 1.57891Z" fill="#1FB6EA"/>
</g>
<path d="M8.84277 0.830078L4.77389 6.52267" stroke="#1FB6EA" stroke-width="1.22845"/>
<path d="M13.7305 0.830078L9.66158 6.52267" stroke="#1FB6EA" stroke-width="1.22845"/>
<path d="M18.6182 0.830078L14.5493 6.52267" stroke="#1FB6EA" stroke-width="1.22845"/>
<path d="M23.5068 0.830078L19.4379 6.52267" stroke="#1FB6EA" stroke-width="1.22845"/>
<path d="M28.3945 0.830078L24.3256 6.52267" stroke="#1FB6EA" stroke-width="1.22845"/>
<path d="M33.2822 0.830078L29.2133 6.52267" stroke="#1FB6EA" stroke-width="1.22845"/>
<path d="M38.1699 0.830078L34.101 6.52267" stroke="#1FB6EA" stroke-width="1.22845"/>
<path d="M43.0586 0.830078L38.9897 6.52267" stroke="#1FB6EA" stroke-width="1.22845"/>
<path d="M47.9463 0.830078L43.8774 6.52267" stroke="#1FB6EA" stroke-width="1.22845"/>
<path d="M52.834 0.830078L48.7651 6.52267" stroke="#1FB6EA" stroke-width="1.22845"/>
<path d="M57.7207 0.830078L53.6518 6.52267" stroke="#1FB6EA" stroke-width="1.22845"/>
<path d="M62.6094 0.830078L58.5405 6.52267" stroke="#1FB6EA" stroke-width="1.22845"/>
<path d="M1.08526 21.2233V9.40948H15.1142L1.08526 21.2233Z" stroke="#1FB6EA" stroke-width="0.818966"/>
</g>
<path fill-rule="evenodd" clip-rule="evenodd" d="M0.672852 26.1992H12.9573V64.5253H4.76868L4.76868 57.5641H3.94971L3.94971 64.9348V65.3443H4.35919H12.9573V71.4876H11.0183H8.78473H0.672852V44.9394L3.12968 43.3015V40.0257L0.672852 38.3878V26.1992ZM3.94811 56.7462V54.2893H4.76708V56.7462H3.94811Z" fill="#2B2A29"/>
<rect width="158.655" height="44.0173" transform="translate(12.957 26.1992)" fill="#2B2A29"/>
<path fill-rule="evenodd" clip-rule="evenodd" d="M196.181 26.1992H171.612V71.4876H196.181V65.7537L193.725 64.1162V60.8403L196.181 59.2028V42.8231L194.543 41.1852V38.7283L196.181 37.0904V26.1992Z" fill="#2B2A29"/>
<path fill-rule="evenodd" clip-rule="evenodd" d="M0.671906 71.8555H0.671875L0.671906 71.8566V71.8555ZM0.974856 83.3199H65.3702L56.3442 71.8555H194.032V83.321H0.974884L0.974856 83.3199Z" fill="#2B2A29"/>
<path d="M1.08136 82.9115V72.265H52.8687L61.2508 82.9115H1.08136Z" stroke="#1FB6EA" stroke-width="0.818966"/>
</g>
<defs>
<filter id="filter0_d_435_3422" x="0.671875" y="-0.0078125" width="196.329" height="87.4237" filterUnits="userSpaceOnUse" color-interpolation-filters="sRGB">
<feFlood flood-opacity="0" result="BackgroundImageFix"/>
<feColorMatrix in="SourceAlpha" type="matrix" values="0 0 0 0 0 0 0 0 0 0 0 0 0 0 0 0 0 0 127 0" result="hardAlpha"/>
<feOffset dx="0.818966" dy="2.4569"/>
<feColorMatrix type="matrix" values="0 0 0 0 0.898039 0 0 0 0 0.227451 0 0 0 0 0.141176 0 0 0 1 0"/>
<feBlend mode="normal" in2="BackgroundImageFix" result="effect1_dropShadow_435_3422"/>
<feBlend mode="normal" in="SourceGraphic" in2="effect1_dropShadow_435_3422" result="shape"/>
</filter>
<clipPath id="clip0_435_3422">
<rect width="195.509" height="26.2069" fill="white" transform="translate(0.672852 -0.0078125)"/>
</clipPath>
<clipPath id="clip1_435_3422">
<rect width="7.37069" height="131.854" fill="white" transform="matrix(0 1 -1 0 194.465 -0.0078125)"/>
</clipPath>
</defs>
</svg>
