<svg width="651" height="156" viewBox="0 0 651 156" fill="none" xmlns="http://www.w3.org/2000/svg">
<g filter="url(#filter0_dd_370_3397)">
<g clip-path="url(#clip0_370_3397)">
<path fill-rule="evenodd" clip-rule="evenodd" d="M34.7037 23.2969H617.237V45.9986H12.002V42.7555L34.7037 23.2969ZM612.913 38.4306V41.6738H611.832V38.4306H612.913ZM612.371 27.0804L579.4 27.0804V28.1614L611.831 28.1614V37.3502L612.912 37.3502V27.6209V27.0804H612.371Z" fill="#101010"/>
<g clip-path="url(#clip1_370_3397)">
<path d="M611.804 13.061L616.785 20.0628L444.465 20.0628L450.803 13.0623L452.566 15.1063L452.728 15.2938H452.975L609.185 15.2938H609.397L609.553 15.1495L611.804 13.061Z" stroke="#1FB6EA" stroke-width="1.08104"/>
<path d="M477.298 13.5014L464.866 13.5014L454.596 13.5014L452.975 11.4121L609.725 11.4121L607.563 13.5014L489.73 13.5014L477.298 13.5014Z" fill="#1FB6EA"/>
</g>
<path d="M372.785 12.5117L367.414 20.0259" stroke="#1FB6EA" stroke-width="1.62155"/>
<path d="M379.236 12.5117L373.865 20.0259" stroke="#1FB6EA" stroke-width="1.62155"/>
<path d="M385.688 12.5117L380.318 20.0259" stroke="#1FB6EA" stroke-width="1.62155"/>
<path d="M392.142 12.5117L386.771 20.0259" stroke="#1FB6EA" stroke-width="1.62155"/>
<path d="M398.593 12.5117L393.222 20.0259" stroke="#1FB6EA" stroke-width="1.62155"/>
<path d="M405.045 12.5117L399.674 20.0259" stroke="#1FB6EA" stroke-width="1.62155"/>
<path d="M411.497 12.5117L406.126 20.0259" stroke="#1FB6EA" stroke-width="1.62155"/>
<path d="M417.95 12.5117L412.579 20.0259" stroke="#1FB6EA" stroke-width="1.62155"/>
<path d="M424.401 12.5117L419.03 20.0259" stroke="#1FB6EA" stroke-width="1.62155"/>
<path d="M430.854 12.5117L425.483 20.0259" stroke="#1FB6EA" stroke-width="1.62155"/>
<path d="M437.304 12.5117L431.933 20.0259" stroke="#1FB6EA" stroke-width="1.62155"/>
<path d="M443.757 12.5117L438.386 20.0259" stroke="#1FB6EA" stroke-width="1.62155"/>
<path d="M12.5444 39.4316V23.8374H31.0626L12.5444 39.4316Z" stroke="#1FB6EA" stroke-width="1.08104"/>
</g>
<path fill-rule="evenodd" clip-rule="evenodd" d="M12 46H28.2155V97.5909H17.4061L17.4061 88.4021H16.325L16.325 98.1314V98.6719H16.8655H28.2155V106.781H25.656H22.7077H12V46ZM15.2433 64.2509V68.575L12.0002 70.7371V62.0888L15.2433 64.2509ZM16.3231 87.3217V84.0786H17.4042V87.3217H16.3231Z" fill="#101010"/>
<rect width="558.945" height="58.7828" transform="translate(28.2158 46)" fill="#101010"/>
<path fill-rule="evenodd" clip-rule="evenodd" d="M619.592 46H587.161V106.781H619.592V99.212L616.349 97.0501V92.726L619.592 90.5641V46ZM617.43 66.7804V63.5372L619.592 61.3752V68.9424L617.43 66.7804Z" fill="#101010"/>
<path fill-rule="evenodd" clip-rule="evenodd" d="M12.9473 122.076H97.4004L85.4863 106.943H617.234V122.078H12.9474L12.9473 122.076Z" fill="#101010"/>
<path d="M12.5395 121.537V107.484H80.8989L91.9632 121.537H12.5395Z" stroke="#1FB6EA" stroke-width="1.08104"/>
</g>
<defs>
<filter id="filter0_dd_370_3397" x="0.699024" y="0.106251" width="650.193" height="155.434" filterUnits="userSpaceOnUse" color-interpolation-filters="sRGB">
<feFlood flood-opacity="0" result="BackgroundImageFix"/>
<feColorMatrix in="SourceAlpha" type="matrix" values="0 0 0 0 0 0 0 0 0 0 0 0 0 0 0 0 0 0 127 0" result="hardAlpha"/>
<feOffset dx="1.08104" dy="3.2431"/>
<feColorMatrix type="matrix" values="0 0 0 0 0.898039 0 0 0 0 0.227451 0 0 0 0 0.141176 0 0 0 1 0"/>
<feBlend mode="normal" in2="BackgroundImageFix" result="effect1_dropShadow_370_3397"/>
<feColorMatrix in="SourceAlpha" type="matrix" values="0 0 0 0 0 0 0 0 0 0 0 0 0 0 0 0 0 0 127 0" result="hardAlpha"/>
<feOffset dx="10" dy="10"/>
<feGaussianBlur stdDeviation="10.65"/>
<feComposite in2="hardAlpha" operator="out"/>
<feColorMatrix type="matrix" values="0 0 0 0 0 0 0 0 0 0 0 0 0 0 0 0 0 0 0.1 0"/>
<feBlend mode="normal" in2="effect1_dropShadow_370_3397" result="effect2_dropShadow_370_3397"/>
<feBlend mode="normal" in="SourceGraphic" in2="effect2_dropShadow_370_3397" result="shape"/>
</filter>
<clipPath id="clip0_370_3397">
<rect width="607.591" height="34.5931" fill="white" transform="translate(12 11.4062)"/>
</clipPath>
<clipPath id="clip1_370_3397">
<rect width="9.72931" height="174.047" fill="white" transform="matrix(0 1 -1 0 617.806 11.4062)"/>
</clipPath>
</defs>
</svg>
