<svg width="350" height="431" viewBox="0 0 350 431" fill="none" xmlns="http://www.w3.org/2000/svg">
<g filter="url(#filter0_d_161_142)">
<path fill-rule="evenodd" clip-rule="evenodd" d="M159.45 340.133L161.034 338.581C160.577 339.39 161.056 338.944 160.4 339.527C160.333 339.588 159.637 339.987 159.45 340.133ZM120.849 295.432C132.022 296.306 140.209 298.972 149.48 304.611C145.849 301.174 142.322 298.236 136.703 296.117C129.547 293.419 126.769 293.986 120.849 295.432ZM108.371 238.844C109.362 240.408 111.404 242.998 112.777 244.65C115.406 247.814 116.845 250.526 118.947 253.415C120.227 255.176 129.287 271.714 130.689 275.308C132.11 278.953 135.104 285.136 135.846 288.937C126.481 287.02 114.92 288.374 109.967 292.654C112.524 291.501 116.132 290.57 119.776 291.093C118.582 292.012 117.224 292.01 115.701 292.718C114.366 293.337 113.112 294.229 112.002 294.818L124.241 291.587L122.343 290.37C126.282 288.706 137.544 291.889 140.695 292.966C140.55 291.819 140.518 291.783 140.108 290.717C136.126 280.332 133.75 273.286 127.837 263.67L125.818 260.071C122.279 254.529 112.504 241.542 108.371 238.844ZM11.6531 243.345C12.1377 240.539 15.5641 232.825 16.4522 230.977C20.4939 222.573 26.2572 216.231 34.4835 212.162C47.0282 205.957 50.7488 206.669 62.3262 202.723C69.2647 200.359 75.7385 197.283 82.975 195.718C86.1864 195.023 93.3328 191.717 95.0724 189.403C96.4587 187.557 98.0238 186.006 99.4339 184.12C102.936 179.434 111.062 172.17 112.239 171.367C114.66 169.718 116.537 166.315 118.218 163.87C120.117 161.106 123.828 155.92 124.796 155.243C128.087 154.602 130.066 152.41 131.6 139.994C132.862 129.769 128.614 134.639 126.049 124.408C125.375 121.72 124.817 119.352 123.501 117.729C119.811 113.181 118.99 109.021 119.388 102.921C119.65 98.9085 118.888 97.8545 118.754 94.5365C118.421 86.3191 123.315 85.5163 126.231 83.2619C123.083 83.7153 123.286 77.0427 123.965 71.0194C124.482 66.4309 124.945 62.1238 126.367 62.1893C126.511 58.9259 126.767 55.6001 127.208 52.0997C128.829 39.2361 132.633 32.6945 139.646 23.8939C148.261 13.0824 160.982 4.74757 175.2 2.0866C195.193 -1.65597 216.978 4.17723 233.047 15.1088C234.116 15.8359 234.503 16.1744 235.446 16.8937L242.092 22.3994C248.263 27.7265 252.481 33.6483 257.564 39.6189C258.831 41.1071 260.6 41.6363 262.313 43.1065C261.665 43.5394 257.055 42.6999 255.986 44.1676C255.27 45.149 254.62 45.1721 256.135 49.036C256.543 50.0784 250.555 45.8478 250.103 46.1265C251.899 55.2841 254.16 68.9371 255.369 78.9207L260.32 79.8893C261.545 80.7692 261.978 81.4552 262.367 83.3146C263.023 86.4527 263.221 90.0161 263.271 93.3007C263.383 100.547 263.293 106.363 260.935 112.731C259.897 115.537 258.737 117.984 257.073 119.758C256.036 120.863 253.293 122.392 252.865 123.737C252.535 124.771 251.04 143.158 248.163 153.865C246.008 159.171 242.264 166.042 240.201 171.179C238.286 175.948 233.272 182.622 230.248 186.95C225.777 193.351 220.108 194.141 214.536 194.22C213.493 194.234 213.652 194.655 212.605 196.739C210.771 200.392 249.848 228.576 258.053 230.484L264.13 233.073C265.455 231.756 266.632 222.423 267.156 220.006C269.002 211.489 271.083 202.251 273.987 194.599C277.468 185.424 282.237 181.908 282.752 171.337C283.032 165.586 284.888 162.242 285.196 157.399C285.56 151.679 283.921 147.608 283.347 142.643C291.137 137.886 299.55 143.318 302.768 151.25C306.035 159.305 304.949 170.562 303.446 179.218C319.11 182.46 323.134 177.786 329.806 179.73C338.226 182.186 342.968 187.544 341.343 196.76C344.003 199.377 345.991 200.313 347.714 204.801C348.43 206.668 348.791 208.862 348.672 211.085C348.521 213.876 347.722 215.062 347.206 217.159C352.062 223.642 349.835 227.274 346.227 233.331C347.807 238.398 348.293 245.549 344.331 248.341C343.024 249.262 339.35 250.816 337.575 251.627C334.496 253.033 333.636 254.19 329.842 253.331L317.546 264.204C310.263 271.591 304.888 270.857 296.691 274.882C296.403 275.024 296.081 275.32 295.752 275.701L320.692 331.052L349.077 394.047C349.077 394.047 270.707 393.824 248.815 393.806L265.418 364.831L282.761 336.983C285.399 333.555 289.07 329.673 291.748 326.224C293.127 324.448 294.201 322.863 295.597 321.278C296.923 319.772 297.547 317.552 298.359 315.265C299.43 312.249 302.252 304.876 302.687 302.19C301.293 305.027 295.684 318.798 294.238 320.32C290.238 324.528 290.634 321.682 285.745 329.841C284.61 331.736 283.569 333.331 282.423 335.303C281.66 336.618 276.275 345.307 270.779 354.164C260.745 370.334 249.291 391.533 248.02 394.031L248.018 394.035L248.015 394.039L248.013 394.043L248.012 394.047H247.968H247.878H247.841H247.745H247.631H247.612H247.478H247.345H247.342H247.212H247.078H246.977H246.944H246.812H246.678H246.545H246.538H246.412H246.279H246.145H246.028H246.013H245.879H245.747H245.614H245.481H245.45H245.348H245.216H245.083H244.951H244.819H244.806H244.687H244.555H244.424H244.292H244.16H244.1H244.03H243.899H243.768H243.638H243.507H243.377H243.334H243.247H243.117H242.988H242.858H242.73H242.601H242.51H242.473H242.345H242.217H242.089H241.962H241.835H241.708H241.632H241.582H241.457H241.33H241.205H241.081H240.956H240.832H240.708H240.702H240.585H240.462H240.339H240.217H240.095H239.974H239.853H239.732H188.4H97.7722C84.6785 394.047 -3.03865 295.985 11.6531 243.345ZM25.8781 229.512C29.1771 224.802 33.2684 221.439 38.1004 218.274C42.798 215.198 48.8116 213.013 55.1683 211.941C64.3252 210.397 68.4776 211.814 76.8042 212.396C63.8779 207.537 46.6672 208.959 35.7398 215.528C30.0692 218.937 26.5005 222.493 23.0354 227.516C20.642 230.986 15.7012 239.899 14.6817 244.398C14.6354 244.393 18.6488 238.579 25.8781 229.512ZM268.071 278.828C269.774 280.507 271.563 281.865 273.571 283.351L273.886 283.581L273.895 283.588L273.897 283.589L273.901 283.592L274.211 283.817L274.216 283.82L274.22 283.823L274.327 283.9L274.434 283.977L274.536 284.049L274.541 284.053L274.648 284.128L274.845 284.267L274.855 284.273L274.861 284.278L274.866 284.282L275.074 284.425L275.171 284.493L275.18 284.499L275.286 284.571L275.392 284.644L275.487 284.709L275.497 284.716L275.515 284.728L275.708 284.857L275.802 284.921L275.814 284.928L275.919 284.998L276.024 285.067L276.116 285.127L276.128 285.136L276.233 285.205L276.338 285.273L276.345 285.276L276.522 285.391L276.547 285.407L276.652 285.474L276.739 285.53L276.756 285.54L276.86 285.606L276.964 285.671L276.977 285.679L277.109 285.761L277.282 285.868L277.38 285.928L277.484 285.991L277.587 286.054L277.67 286.104L277.691 286.116L277.795 286.178L277.898 286.239L277.903 286.242L278.105 286.361L278.209 286.421L278.414 286.539L278.416 286.54L278.519 286.599L278.622 286.657L278.725 286.715L278.829 286.773L278.932 286.83L279.035 286.887L279.138 286.943L279.345 287.055L279.449 287.11L279.552 287.165L279.655 287.219L279.758 287.273L279.83 287.311L279.862 287.327L279.965 287.38C284.445 289.677 289.013 290.879 295.05 291.681L290.81 299.481C292.602 299.301 292.667 299.516 293.337 298.6C293.391 298.526 293.452 298.415 293.505 298.337C293.743 297.979 293.889 297.645 294.12 297.265C300.594 286.638 298.043 292.039 295.496 283.818L293.588 285.159L295.63 289.639C284.689 288.356 277.109 283.817 269.875 277.188C268.996 276.084 268.068 274.98 266.999 273.911L246.628 255.882C244.469 254.286 244.993 254.189 243.553 253.412C242.399 254.186 239.133 258.95 238.332 260.014C236.529 262.411 235.07 264.324 233.282 266.666L215.917 289.913C214.617 291.492 214.822 291.404 214.394 293.866C213.338 299.924 211.472 307.289 210.995 313.282C212.625 308.232 214.731 301.804 217.513 297.787C219.541 294.858 242.938 259.694 244.391 258.503L281.491 313.069C292.994 311.636 300.024 307.874 300.752 303.243L288.4 304.751L256.766 271.255C254.279 268.478 254.054 267.592 253.248 266.351L268.071 278.828ZM158.98 76.0285L159.971 79.8758C171.228 84.8888 182.628 89.0122 195.375 90.7644C196.926 90.9776 198.438 91.16 199.921 91.3167L199.922 91.3173H199.922C208.792 92.2576 216.661 92.2936 226.136 92.5916C232.573 92.1716 238.292 92.1067 244.604 90.9647C249.248 90.1246 256.905 88.1355 258.073 84.5169C255.768 82.2817 254.098 83.5143 252.237 84.8271C242.51 91.6854 204.541 89.1329 194.646 87.3037C182.107 84.9851 170.31 80.9522 158.98 76.0285ZM157.4 78.7145L156.415 74.8962C155.54 74.5037 154.668 74.1062 153.799 73.7035C149.839 71.8723 144.653 69.1265 141.233 67.8433C140.955 68.7547 140.681 69.6667 140.412 70.5801C141.018 70.8858 141.763 71.2538 142.69 71.7028C147.649 74.1062 152.519 76.4832 157.4 78.7145ZM160.228 84.2368C153.322 81.0062 146.266 77.1268 139.526 73.5879C138.102 78.5809 136.549 84.2934 135.018 89.2864C136.447 89.8799 138.893 91.792 139.916 92.5968L154.719 102.921L160.228 84.2368ZM163.53 336.694C162.882 337.778 162.905 337.579 161.315 338.548C161.853 337.773 161.55 337.709 163.53 336.694ZM174.861 333.751C174.267 334.811 174.992 334.008 173.2 335.309C173.834 334.282 173.522 334.432 174.861 333.751ZM163.53 336.694C163.77 336.266 163.521 336.455 163.999 335.991L170.319 330.585C172.925 328.614 175.368 325.68 177.58 324.798C176.619 324.183 179.001 323.988 175.885 324.368C172.706 324.756 166.804 328.153 164.675 328.778C170.157 324.636 177.375 321.4 184.41 320.442L179.419 324.592C177.728 325.977 176.074 327.242 174.236 328.639C171.702 330.564 166.025 335.412 163.53 336.694ZM174.861 333.751C175.442 332.521 181.822 327.443 183.239 326.283L198.107 312.731C198.951 312.04 199.675 311.608 200.44 310.851L209.353 303.035C209.191 304.671 208.918 306.311 208.782 307.886C208.606 309.936 208.833 310.763 207.871 312.27L207.757 309.294C206.349 312.849 195.294 319.858 192.032 322.077C189.648 323.699 176.335 333.3 174.861 333.751ZM179.896 236.524L185.713 240.677L190.607 233.082C192.452 233.903 194.978 235.508 196.67 236.715C199.728 238.896 199.068 238.447 200.643 242.364C202.539 247.081 204.294 251.81 205.915 256.761C207.474 261.524 208.913 266.666 210.245 271.677C211.572 276.665 212.759 282.831 214.402 287.471C212.793 288.572 212.862 288.979 211.699 290.434L210.711 288.791C210.402 288.003 210.312 287.749 209.978 287.018C205.945 278.17 202.015 270.673 197.149 262.168C190.992 251.406 187.441 247.087 180.953 238.172C180.515 237.572 180.445 237.104 179.896 236.524ZM226.857 233.008C228.382 235.955 234.916 256.098 235.277 259.359C233.676 262.091 231.089 264.38 229.85 267C228.992 266.058 229.364 266.925 228.695 264.567L226.299 257.345C222.397 246.223 220.211 240.97 214.552 230.498C215.877 228.354 215.558 229.148 215.718 226.106C215.881 228.478 217.445 230.044 219.822 230.767C221.98 231.423 225.101 231.842 226.857 233.008ZM292.142 252.34L291.37 252.749C291.036 252.9 291.444 252.746 290.853 252.898C291.583 252.044 291.007 252.541 292.085 251.904C295.325 248.819 306.261 241.225 309.899 237.957C311.336 236.667 312.051 234.581 314.221 232.595C315.211 231.921 316.578 231.262 318.111 231.256C319.777 231.25 321.032 232.154 322.48 232.497L336.738 233.593C342.056 233.953 343.777 233.753 343.776 236.625C344.509 237.434 344.546 238.649 344.652 239.966C342.172 238.13 341.639 238.052 338.006 237.38C323.342 234.665 322.181 239.959 315.613 239.917C311.876 239.893 311.055 240.577 309.091 242.515C308.414 243.183 307.59 244.077 306.883 244.958C306.016 246.037 305.978 246.395 304.684 247.056C300.919 248.975 296.099 250.414 292.142 252.34ZM281.863 208.193C285.034 200.122 286.737 194.863 291.603 187.828C296.547 180.682 297.37 181.787 304.485 182.524C307.431 182.83 310.334 183.091 313.343 183.356C323.32 184.231 325.444 181.222 330.83 183.926C334.849 185.343 336.366 187.472 338.353 191.145C327.587 190.933 323.638 190.464 313.577 188.413C309.501 187.583 305.068 187.216 301.033 188.297C297.208 189.322 295.664 191.796 294.169 195.411C290.263 204.852 279.248 220.172 273.33 229.623C276.275 226.468 279.971 221.222 282.813 217.357L287.544 210.995C289.886 208.056 296.467 200.907 302.537 197.904C306.545 195.922 310.331 197.081 312.526 197.692C324.711 201.197 335.733 196.249 340.664 201.102C343.453 202.594 344.597 206.124 345.242 209.307L330.872 206.577C321.377 203.112 320.782 202.334 309.465 203.819C302.043 204.793 298.37 212.647 294.445 214.19C292.141 215.524 290.985 222.86 289.882 225.757C289.45 228.914 289.786 229.988 288.554 232.764C288.105 233.367 287.828 233.983 287.222 234.34C285.885 237.356 282.961 240.355 281.623 243.216C285.054 241.952 291.797 237.116 295.525 234.717C295.874 234.493 297.422 229.874 299.226 226.405C301.068 222.862 303.177 220.455 304.545 219.005C309.157 214.116 313.044 212.087 320.574 214.32C323.109 215 324.068 216.054 325.967 216.823C327.532 217.456 331.091 217.516 333.026 217.689C341.173 218.42 342.747 217.407 345.06 221.043C328.188 218.126 320.101 222.952 315.248 223.203C312.373 223.352 311.735 222.405 309.303 224.081C302.186 230.884 300.593 234.43 294.815 241.868C293.058 244.129 288.725 247.538 286.694 249.547C285.38 250.848 271.475 253.796 268.039 254.544C265.134 255.177 264.611 253.2 261.809 252.967L257.002 257.303L260.72 255.444C261.564 256.187 261.264 256.049 261.869 256.832C263.017 258.318 264.261 259.437 265.638 261.621L275.121 259.468C276.001 261.687 277.558 263.561 278.549 265.474C278.001 267.063 276.486 269.219 275.501 270.902C274.684 272.299 272.744 275.391 272.37 276.662C271.098 276.058 259.841 265.695 259.816 265.665C258.79 264.454 258.576 264.296 257.5 263.342C256.427 262.391 253.357 260.084 252.759 258.82C251.809 257.893 251.241 257.619 250.606 256.527C251.251 255.394 251.914 254.589 252.701 253.521C253.354 252.636 254.051 251.489 254.724 250.527C257.866 246.033 256.711 246.53 258.007 243.787C258.589 242.556 263.881 236.94 265.072 235.814C267.278 230.303 271.751 213.336 272.919 208.195C275.263 197.881 276.788 199.524 278.203 193.264C278.808 190.658 281.567 184.91 282.771 182.254C285.278 176.72 284.831 175.842 285.339 169.268C285.745 164.024 288.798 163.287 288.588 157.382C288.432 153.012 287.313 148.565 286.857 144.267L288.979 144.14C290.823 144.245 291.154 143.987 294.088 145.575C295.162 146.155 295.22 146.42 296.046 147.197C299.003 149.979 300.79 155.746 300.953 160.305C301.11 165.916 303.107 167.046 299.698 178.397C287.479 178.533 287.321 191.411 283.954 199.879C282.833 202.699 281.937 205.483 280.827 208.221C275.867 220.444 272.611 223.614 273.597 222.425C274.631 221.177 280.078 215.099 281.863 208.193ZM203.129 206.867C203.467 206.684 205.942 204.029 206.374 203.437C207.148 202.375 209.375 199.554 210.332 198.824C215.812 207.047 222.106 224.208 221.677 228.364C220.296 227.132 215.852 219.614 214.655 217.511C212.71 214.096 209.848 209.25 207.882 206.305L203.129 206.867ZM62.5418 206.474C68.8425 204.485 74.5897 201.644 81.1619 199.781C84.9346 198.71 87.3996 198.404 90.4817 196.524C92.4478 195.324 95.0788 194.121 97.7973 193.967C99.7873 193.854 99.2466 194.035 99.7634 194.944C98.3115 195.577 96.1568 195.482 94.4867 195.913C91.5603 196.666 92.2657 198.239 81.4986 201.357C73.9159 203.553 71.4567 206.531 62.5418 206.474ZM124.939 157.206C132.172 161.253 156.051 177.196 162.828 181.801C165.989 183.95 169.139 185.816 172.438 188.128L200.157 206.908C199.846 208.361 186.729 230.891 184.406 233.663C179.504 229.995 172.584 223.267 168.723 220.274L139.811 195.556C138.808 194.674 138.766 194.382 137.642 193.558L119.949 178.573C119.007 177.865 118.713 177.321 117.759 176.598C116.896 175.944 116.37 175.373 115.469 174.704C114.321 173.85 114.435 174.377 113.567 172.775L124.939 157.206ZM132.714 131.804C128.838 126.445 129.792 126.3 127.566 119.08C126.954 117.093 125.083 115.718 123.895 113.579C120.589 107.625 123.729 102.395 123.169 97.9193C122.844 95.3239 121.377 93.4812 122.187 90.5492C123.846 84.5439 131.902 84.9748 133.158 88.1355C129.492 88.1002 126.331 86.745 124.636 90.5049C123.647 92.6996 125.083 95.5359 125.156 101.539C126.379 98.0228 127.114 93.1678 129.55 91.1876C131.797 90.8254 133.347 91.1542 134.09 92.8826C131.854 95.1845 131.656 93.4504 131.679 95.9681C134.731 98.3632 137.342 96.6438 139.643 95.1916C138.85 103.724 128.259 97.974 126.407 106.458C125.314 111.462 128.13 111.782 131.12 113.5C133.413 114.818 136.638 119.067 138.119 116.874C139.108 113.57 134.983 112.383 134.453 108.777C135.399 106.346 136.523 106.395 138.24 104.893C139.447 103.837 140.386 102.175 141.36 100.41C144.028 105.019 146.582 115.229 144.532 119.777C143.339 122.426 144.395 125.576 142.959 129.073C142.111 131.137 142.855 130.516 141.869 131.119C143.118 132.27 145.002 134.065 145.988 132.843C148.135 130.184 146.714 127.037 146.912 127.116C144.982 117.232 148.696 123.642 150.148 107.638C150.901 107.653 173.094 119.875 174.734 120.594L179.438 122.566C187.303 125.493 198.062 127.785 206.79 127.7C205.615 129.187 197.029 133.703 194.732 134.93L182.811 141.681C189.766 139.35 199.167 133.782 205.16 131.424C204.516 133.235 203.091 134.686 203.916 137.048C205.108 140.463 209.767 139.566 213.214 141.562C214.875 142.523 216.262 142.853 218.403 143.133C220.184 146.707 222.97 145.784 223.927 144.83C224.349 144.409 224.25 144.334 224.435 144.077C226.055 141.83 229.836 146.629 234.592 142.852C237.153 140.817 237.287 139.813 238.708 136.079C239.379 137.064 240.53 137.82 241.471 138.831C242.158 139.567 242.162 139.687 242.647 140.58L243.701 142.156L243.811 140.881C244.018 139.118 244.239 138.158 243.198 137.091C239.054 132.843 237.623 133.949 237.625 129.648C241.134 129.477 248.626 126.595 250.908 124.088C248.878 133.82 249.507 144.248 245.684 154.226C243.652 159.529 237.773 171.32 233.871 177.581C230.349 183.228 226.632 187.801 222.81 188.336C221.251 188.553 219.053 186.48 213.129 186.322C206.581 186.147 200.924 188.166 197.12 187.705C190.042 185.907 184.984 192.692 149.957 147.956C150.038 157.662 153.467 167.14 156.06 173.364C158.015 178.055 139.376 163.078 137.842 161.979C136.355 160.915 134.593 159.713 133.431 158.554C131.815 157.944 133.42 157.752 132.486 156.623C133.187 151.604 138.675 132.626 132.714 131.804ZM209.964 127.769C211.715 126.968 213.505 127.483 214.561 126.065C217.098 123.13 219.66 117.065 225.101 117.406C226.975 117.523 228.358 119.677 228.897 120.668C235.19 132.227 238.928 143.724 223.248 139.969C223.248 139.969 215.416 139.531 218.826 138.808C221.293 138.285 206.582 133.859 210.617 137.373C203.97 137.662 206.843 128.989 209.964 127.769ZM247.479 50.1587C250.12 56.3092 254.296 72.1203 251.229 79.712C248.069 88.2691 205.738 85.6184 196.558 84.1752C182.763 82.0062 173.286 77.2032 164.732 75.2314C173.803 75.1435 178.902 52.0368 179.341 49.1722C186.526 49.8042 197.922 47.6738 203.938 44.0166C201.363 46.7662 198.131 50.1793 195.359 52.2468C204.411 53.9707 213.808 47.9088 221.432 44.0096C218.98 48.9744 215.231 51.6822 210.683 53.6046C212.253 53.2706 214.555 52.6855 218.123 51.6912C216.986 53.1517 215.698 54.1537 214.279 54.8577C219.409 56.3645 227.624 55.1236 238.519 48.027C237.373 49.7843 236.014 51.8498 234.657 53.6033C237.966 53.2018 246.867 53.8518 247.479 50.1587Z" fill="#1FB6EA"/>
<path fill-rule="evenodd" clip-rule="evenodd" d="M236.674 160.176L237.267 157.114L237.74 152.493C233.295 157.159 229.705 152.612 225.898 154.756C219.91 158.128 219.291 154.674 212.342 154.531C205.111 154.381 204.309 155.149 197.509 152.905C193.983 151.741 194.522 151.62 192.562 149.546C190.615 150.245 189.041 151.92 188.681 154.685C191.682 154.835 190.055 154.984 191.796 153.184C194.993 153.581 193.518 154.115 197.324 154.921C201.599 155.824 205.949 156.693 210.257 157.459C217.179 158.689 217.62 160.558 222.691 159.454C224.746 159.005 226.081 158.455 228.887 158.139C229.959 158.018 231.009 157.917 232.072 157.625C233.499 157.233 234.053 157.003 235.624 156.746L235.425 160.133L236.674 160.176Z" fill="#1FB6EA"/>
<path fill-rule="evenodd" clip-rule="evenodd" d="M199.346 160.03C201.719 160.927 206.003 163.802 207.933 165.627C211.266 168.926 224.1 169.196 227.661 166.479C229.425 164.805 231.305 162.835 233 161.069C230.747 162.282 228.484 164.727 226.315 165.215C224.34 165.66 218.39 164.836 215.949 164.693C211.76 164.448 210.531 164.53 207.024 162.826C205.341 162.008 200.904 159.933 199.346 160.03Z" fill="#1FB6EA"/>
<path fill-rule="evenodd" clip-rule="evenodd" d="M174.089 142.694C174.257 146.829 175.197 151.664 176.273 155.062C177.071 148.172 176.117 144.042 178.785 141.172C179.909 139.963 180.266 139.403 181.202 138.025C179.733 138.654 180.189 138.793 177.764 140.594C176.298 141.683 175.447 141.958 174.089 142.694Z" fill="#1FB6EA"/>
<path fill-rule="evenodd" clip-rule="evenodd" d="M290.941 142.843C290.224 143.328 284.883 141.837 289.002 145.782C289.169 145.942 290.761 147.684 291.356 149.395C292.326 152.18 291.835 153.458 292.748 157.535C292.752 157.552 296.629 166.54 296.629 167.739C296.629 169.573 296.152 171.623 295.189 173.096C294.841 173.627 294.167 177.365 292.444 179.591C291.965 180.211 291.479 181.31 292.201 181.492C293.169 181.737 297.048 182.042 297.563 180.802C299.821 180.675 300.808 176.63 301.68 175.02C303.888 170.942 303.108 159.844 303.242 155.104C303.306 152.845 298.673 146.523 296.353 146.018C295.758 145.888 291.494 142.468 290.941 142.843Z" fill="#111111"/>
</g>
<path d="M164.507 101.919C163.62 101.657 162.86 100.07 162.809 98.3747C162.757 96.6791 163.436 95.5143 164.322 95.7758C168.941 97.117 173.562 98.4585 178.203 99.6393C182.985 100.856 187.991 101.967 193.445 102.868C199.013 103.788 205.108 104.492 211.234 104.907C217.051 105.302 222.838 105.427 228.159 105.218C239.094 104.791 248.255 102.949 257.415 101.108L257.438 101.105C258.287 100.958 259.185 102.224 259.443 103.933C259.7 105.631 259.228 107.127 258.389 107.288C249.194 109.139 239.998 110.987 228.891 111.422C223.458 111.635 217.613 111.51 211.786 111.116C205.685 110.703 199.536 109.987 193.845 109.048C188.308 108.134 183.257 107.013 178.451 105.791C173.506 104.531 169.006 103.225 164.507 101.919Z" fill="#01C8F6"/>
<path d="M164.438 99.6138C164.217 99.5493 164.026 99.1522 164.014 98.7292C164.001 98.3046 164.17 98.0126 164.391 98.0785C168.966 99.4067 173.542 100.735 178.297 101.946C183.084 103.163 188.106 104.278 193.595 105.185C199.211 106.111 205.327 106.822 211.441 107.235C217.264 107.63 223.073 107.754 228.434 107.544C239.433 107.114 248.607 105.27 257.781 103.425L257.789 103.424C258.001 103.387 258.226 103.704 258.291 104.131C258.355 104.557 258.236 104.933 258.024 104.97C248.842 106.816 239.659 108.663 228.617 109.095C223.225 109.307 217.402 109.182 211.579 108.787C205.468 108.374 199.339 107.662 193.696 106.73C188.193 105.822 183.158 104.705 178.359 103.483C173.526 102.252 168.981 100.934 164.438 99.6138Z" fill="#FEFEFE"/>
<defs>
<filter id="filter0_d_161_142" x="-30.5856" y="0.953613" width="380.586" height="429.85" filterUnits="userSpaceOnUse" color-interpolation-filters="sRGB">
<feFlood flood-opacity="0" result="BackgroundImageFix"/>
<feColorMatrix in="SourceAlpha" type="matrix" values="0 0 0 0 0 0 0 0 0 0 0 0 0 0 0 0 0 0 127 0" result="hardAlpha"/>
<feOffset dx="-25.2703" dy="21.4414"/>
<feGaussianBlur stdDeviation="7.65766"/>
<feComposite in2="hardAlpha" operator="out"/>
<feColorMatrix type="matrix" values="0 0 0 0 0 0 0 0 0 0 0 0 0 0 0 0 0 0 0.24 0"/>
<feBlend mode="normal" in2="BackgroundImageFix" result="effect1_dropShadow_161_142"/>
<feBlend mode="normal" in="SourceGraphic" in2="effect1_dropShadow_161_142" result="shape"/>
</filter>
</defs>
</svg>
