<svg width="458" height="530" viewBox="0 0 458 530" fill="none" xmlns="http://www.w3.org/2000/svg">
<path fill-rule="evenodd" clip-rule="evenodd" d="M201.317 457.31L203.451 455.217C202.835 456.308 203.48 455.707 202.597 456.493C202.506 456.574 201.569 457.112 201.317 457.31ZM149.319 397.04C164.37 398.219 175.398 401.814 187.887 409.416C182.996 404.782 178.244 400.821 170.675 397.964C161.036 394.326 157.293 395.09 149.319 397.04ZM132.51 320.744C133.846 322.852 136.596 326.344 138.445 328.571C141.988 332.837 143.926 336.495 146.757 340.39C148.482 342.764 160.686 365.062 162.574 369.908C164.488 374.822 168.521 383.158 169.521 388.283C156.905 385.699 141.333 387.524 134.66 393.294C138.105 391.741 142.965 390.485 147.874 391.19C146.265 392.429 144.436 392.426 142.385 393.381C140.587 394.216 138.897 395.418 137.402 396.213L153.888 391.857L151.332 390.216C156.638 387.971 171.809 392.263 176.053 393.715C175.857 392.168 175.814 392.121 175.263 390.682C169.898 376.681 166.697 367.182 158.732 354.216L156.012 349.363C151.246 341.892 138.079 324.382 132.51 320.744ZM2.2258 326.812C2.87861 323.029 7.49417 312.628 8.69055 310.136C14.135 298.806 21.8984 290.255 32.9797 284.769C49.8782 276.403 54.89 277.363 70.4855 272.043C79.832 268.854 88.5527 264.708 98.3006 262.598C102.627 261.661 112.253 257.204 114.597 254.083C116.464 251.595 118.572 249.503 120.472 246.96C125.19 240.643 136.135 230.848 137.721 229.766C140.983 227.542 143.51 222.954 145.774 219.658C148.334 215.93 153.332 208.939 154.636 208.026C159.069 207.162 161.735 204.207 163.801 187.467C165.502 173.68 159.779 180.245 156.324 166.451C155.417 162.827 154.664 159.635 152.891 157.447C147.921 151.315 146.815 145.705 147.351 137.481C147.703 132.071 146.678 130.65 146.497 126.176C146.048 115.097 152.641 114.015 156.569 110.975C152.329 111.587 152.602 102.59 153.516 94.4688C154.213 88.2823 154.837 82.4751 156.752 82.5634C156.947 78.1634 157.291 73.6794 157.886 68.9598C160.069 51.6161 165.193 42.7961 174.64 30.9305C186.244 16.3535 203.381 5.11581 222.534 1.52808C249.464 -3.51796 278.81 4.34683 300.456 19.0857C301.896 20.066 302.417 20.5224 303.687 21.4923L312.64 28.9154C320.953 36.0978 326.635 44.0821 333.483 52.1322C335.19 54.1386 337.572 54.8522 339.88 56.8344C339.007 57.4181 332.797 56.2863 331.356 58.265C330.392 59.5882 329.517 59.6194 331.557 64.8291C332.107 66.2346 324.041 60.5304 323.431 60.9063C325.851 73.2533 328.897 91.6613 330.525 105.122L337.195 106.428C338.845 107.614 339.428 108.539 339.952 111.046C340.836 115.277 341.102 120.082 341.17 124.51C341.321 134.28 341.2 142.123 338.024 150.708C336.624 154.491 335.062 157.791 332.82 160.182C331.424 161.672 327.729 163.733 327.152 165.547C326.708 166.94 324.693 191.732 320.819 206.168C317.916 213.322 312.872 222.586 310.093 229.512C307.513 235.942 300.76 244.941 296.686 250.776C290.663 259.406 283.027 260.471 275.521 260.578C274.116 260.597 274.33 261.165 272.92 263.975C270.45 268.9 323.088 306.899 334.141 309.472L342.327 312.963C344.111 311.187 345.698 298.603 346.404 295.345C348.89 283.862 351.693 271.407 355.604 261.088C360.294 248.719 366.719 243.978 367.412 229.725C367.789 221.971 370.289 217.463 370.705 210.933C371.195 203.221 368.987 197.732 368.214 191.038C378.708 184.624 390.039 191.947 394.374 202.642C398.776 213.502 397.313 228.68 395.288 240.351C416.389 244.722 421.809 238.421 430.796 241.042C442.139 244.353 448.527 251.577 446.337 264.002C449.92 267.531 452.598 268.793 454.92 274.844C455.885 277.362 456.37 280.32 456.21 283.316C456.007 287.08 454.93 288.678 454.236 291.507C460.777 300.247 457.776 305.144 452.916 313.31C455.045 320.143 455.699 329.784 450.362 333.549C448.602 334.79 443.652 336.886 441.261 337.978C437.115 339.875 435.955 341.434 430.846 340.277L414.281 354.936C404.471 364.896 397.231 363.906 386.189 369.334C385.801 369.524 385.367 369.924 384.924 370.438L418.519 445.066L456.756 530C456.756 530 351.186 529.701 321.697 529.677L344.062 490.609L367.423 453.063C370.977 448.44 375.923 443.206 379.53 438.556C381.387 436.162 382.834 434.025 384.715 431.888C386.501 429.857 387.342 426.865 388.436 423.781C389.878 419.714 393.68 409.774 394.265 406.151C392.387 409.976 384.833 428.544 382.885 430.596C377.496 436.27 378.03 432.433 371.444 443.433C369.915 445.988 368.512 448.138 366.969 450.798C365.941 452.57 358.687 464.285 351.284 476.228C337.768 498.029 322.338 526.611 320.626 529.979L320.623 529.985L320.62 529.99L320.617 529.995L320.615 530H320.556H320.435H320.385H320.256H320.102H320.076H319.896H319.716H319.713H319.537H319.358H319.221H319.177H318.999H318.818H318.639H318.629H318.459H318.281H318.1H317.943H317.922H317.742H317.564H317.385H317.206H317.164H317.027H316.849H316.67H316.492H316.314H316.297H316.137H315.959H315.781H315.604H315.427H315.345H315.251H315.075H314.898H314.723H314.547H314.372H314.314H314.197H314.021H313.847H313.673H313.5H313.326H313.204H313.154H312.981H312.809H312.637H312.465H312.294H312.124H312.021H311.954H311.785H311.615H311.446H311.278H311.11H310.943H310.776H310.768H310.61H310.444H310.28H310.115H309.951H309.787H309.624H309.462H240.314H118.233C100.595 530 -17.5648 397.785 2.2258 326.812ZM21.3878 308.161C25.8318 301.811 31.3429 297.277 37.852 293.01C44.1798 288.862 52.2805 285.916 60.8433 284.471C73.1782 282.389 78.7717 284.3 89.9883 285.084C72.5757 278.533 49.3919 280.451 34.672 289.307C27.0334 293.903 22.2262 298.699 17.5585 305.47C14.3344 310.148 7.67885 322.167 6.30561 328.232C6.24319 328.225 11.6494 320.387 21.3878 308.161ZM347.635 374.653C349.93 376.917 352.339 378.748 355.045 380.751L355.469 381.062L355.48 381.071L355.484 381.073L355.489 381.076L355.907 381.38L355.914 381.384L355.919 381.388L356.063 381.492L356.208 381.595L356.345 381.693L356.352 381.698L356.496 381.799L356.761 381.986L356.774 381.995L356.783 382.001L356.79 382.006L357.069 382.2L357.201 382.291L357.212 382.299L357.355 382.397L357.497 382.495L357.626 382.582L357.639 382.592L357.663 382.608L357.923 382.782L358.05 382.868L358.066 382.877L358.207 382.972L358.348 383.065L358.472 383.147L358.49 383.158L358.631 383.251L358.772 383.342L358.781 383.348L359.02 383.502L359.054 383.523L359.194 383.613L359.312 383.69L359.335 383.703L359.475 383.792L359.616 383.879L359.633 383.891L359.81 384.001L360.043 384.145L360.176 384.227L360.315 384.311L360.455 384.395L360.567 384.463L360.595 384.479L360.734 384.563L360.874 384.646L360.881 384.65L361.153 384.809L361.292 384.891L361.568 385.049L361.571 385.051L361.709 385.131L361.849 385.21L361.988 385.287L362.127 385.365L362.267 385.442L362.406 385.519L362.544 385.595L362.823 385.745L362.962 385.82L363.102 385.894L363.24 385.967L363.379 386.04L363.475 386.09L363.519 386.112L363.658 386.184C369.693 389.281 375.846 390.902 383.979 391.982L378.267 402.499C380.681 402.256 380.768 402.547 381.671 401.311C381.744 401.212 381.826 401.062 381.897 400.956C382.218 400.474 382.415 400.025 382.726 399.512C391.446 385.183 388.01 392.465 384.579 381.382L382.008 383.189L384.76 389.23C370.021 387.499 359.811 381.38 350.066 372.442C348.882 370.954 347.632 369.465 346.192 368.023L318.751 343.716C315.843 341.563 316.549 341.434 314.609 340.386C313.054 341.428 308.654 347.852 307.576 349.287C305.147 352.519 303.181 355.098 300.774 358.256L277.382 389.599C275.63 391.728 275.906 391.609 275.33 394.928C273.908 403.097 271.394 413.027 270.751 421.107C272.947 414.298 275.783 405.631 279.531 400.215C282.263 396.266 313.78 348.855 315.738 347.249L365.714 420.819C381.209 418.888 390.678 413.816 391.659 407.572L375.021 409.605L332.408 364.443C329.058 360.699 328.754 359.504 327.669 357.831L347.635 374.653ZM200.683 101.223L202.019 106.41C217.183 113.169 232.539 118.728 249.71 121.091C251.8 121.378 253.836 121.624 255.834 121.835L255.835 121.836H255.836C267.784 123.104 278.384 123.152 291.147 123.554C299.818 122.988 307.521 122.9 316.024 121.361C322.28 120.228 332.594 117.546 334.168 112.667C331.063 109.654 328.813 111.315 326.306 113.086C313.204 122.332 262.057 118.891 248.728 116.425C231.837 113.299 215.946 107.861 200.683 101.223ZM198.555 104.844L197.228 99.6958C196.05 99.1667 194.876 98.6307 193.704 98.0877C188.37 95.6188 181.385 91.9168 176.778 90.1866C176.403 91.4154 176.034 92.6451 175.672 93.8765C176.488 94.2887 177.492 94.7849 178.74 95.3902C185.42 98.6307 191.981 101.836 198.555 104.844ZM202.365 112.29C193.063 107.934 183.558 102.703 174.478 97.9319C172.56 104.664 170.468 112.366 168.406 119.098C170.331 119.898 173.626 122.476 175.003 123.561L194.944 137.482L202.365 112.29ZM206.812 452.673C205.939 454.135 205.972 453.867 203.829 455.173C204.554 454.128 204.146 454.041 206.812 452.673ZM222.076 448.705C221.277 450.134 222.253 449.051 219.839 450.806C220.693 449.421 220.273 449.623 222.076 448.705ZM206.812 452.673C207.136 452.096 206.801 452.35 207.444 451.725L215.958 444.437C219.468 441.778 222.759 437.823 225.74 436.634C224.444 435.804 227.653 435.542 223.455 436.054C219.173 436.577 211.223 441.158 208.355 442C215.739 436.415 225.463 432.053 234.94 430.761L228.217 436.356C225.939 438.224 223.711 439.929 221.235 441.812C217.821 444.408 210.174 450.944 206.812 452.673ZM222.076 448.705C222.859 447.047 231.453 440.2 233.363 438.636L253.39 420.364C254.527 419.433 255.502 418.85 256.534 417.83L268.54 407.291C268.321 409.497 267.953 411.708 267.77 413.832C267.532 416.595 267.838 417.71 266.543 419.742L266.39 415.73C264.492 420.523 249.601 429.973 245.207 432.965C241.996 435.152 224.062 448.097 222.076 448.705ZM228.859 317.616L236.695 323.215L243.287 312.974C245.772 314.082 249.175 316.246 251.455 317.873C255.574 320.814 254.684 320.209 256.806 325.49C259.36 331.849 261.725 338.225 263.909 344.901C266.008 351.322 267.947 358.256 269.741 365.012C271.528 371.738 273.127 380.051 275.341 386.307C273.173 387.791 273.265 388.339 271.7 390.301L270.369 388.086C269.952 387.024 269.831 386.681 269.382 385.696C263.948 373.766 258.654 363.658 252.1 352.191C243.806 337.681 239.023 331.858 230.282 319.838C229.693 319.028 229.598 318.398 228.859 317.616ZM292.118 312.875C294.172 316.849 302.974 344.006 303.46 348.404C301.303 352.087 297.818 355.173 296.149 358.706C294.995 357.436 295.496 358.605 294.594 355.426L291.366 345.688C286.11 330.692 283.166 323.61 275.543 309.49C277.328 306.601 276.898 307.671 277.113 303.569C277.332 306.768 279.439 308.879 282.641 309.853C285.548 310.737 289.752 311.303 292.118 312.875ZM380.061 338.94L379.021 339.492C378.571 339.696 379.12 339.488 378.324 339.692C379.308 338.541 378.533 339.211 379.984 338.352C384.349 334.192 399.08 323.954 403.981 319.548C405.916 317.808 406.88 314.996 409.802 312.319C411.136 311.409 412.977 310.521 415.043 310.513C417.287 310.504 418.977 311.724 420.928 312.186L440.135 313.663C447.298 314.149 449.617 313.88 449.615 317.752C450.602 318.843 450.653 320.48 450.795 322.257C447.455 319.781 446.737 319.676 441.842 318.769C422.09 315.109 420.526 322.247 411.678 322.191C406.643 322.158 405.538 323.08 402.893 325.693C401.981 326.593 400.87 327.799 399.917 328.987C398.751 330.442 398.698 330.925 396.955 331.815C391.884 334.404 385.391 336.343 380.061 338.94ZM366.215 279.417C370.486 268.536 372.779 261.445 379.334 251.96C385.994 242.324 387.103 243.815 396.688 244.809C400.656 245.221 404.566 245.573 408.62 245.93C422.06 247.11 424.921 243.053 432.176 246.699C437.59 248.61 439.634 251.48 442.31 256.432C427.807 256.146 422.488 255.514 408.935 252.749C403.445 251.629 397.474 251.134 392.037 252.592C386.885 253.975 384.806 257.309 382.792 262.183C377.529 274.913 362.692 295.569 354.72 308.312C358.687 304.057 363.666 296.985 367.494 291.773L373.867 283.195C377.021 279.233 385.887 269.594 394.064 265.545C399.462 262.872 404.563 264.435 407.519 265.26C423.933 269.985 438.78 263.313 445.422 269.856C449.18 271.868 450.72 276.628 451.59 280.919L432.233 277.239C419.442 272.567 418.641 271.518 403.397 273.52C393.398 274.833 388.45 285.422 383.163 287.503C380.059 289.301 378.502 299.192 377.016 303.099C376.435 307.355 376.888 308.803 375.228 312.546C374.623 313.36 374.25 314.189 373.433 314.671C371.633 318.737 367.694 322.781 365.892 326.638C370.513 324.934 379.596 318.413 384.618 315.179C385.087 314.878 387.173 308.649 389.603 303.972C392.085 299.196 394.926 295.95 396.769 293.995C402.981 287.404 408.217 284.668 418.361 287.678C421.775 288.595 423.067 290.016 425.625 291.053C427.733 291.907 432.527 291.987 435.134 292.221C446.108 293.207 448.229 291.84 451.345 296.743C428.618 292.81 417.723 299.317 411.186 299.655C407.313 299.856 406.454 298.579 403.178 300.839C393.59 310.012 391.445 314.792 383.662 324.821C381.295 327.87 375.458 332.466 372.722 335.174C370.952 336.928 352.222 340.904 347.592 341.912C343.68 342.765 342.975 340.099 339.201 339.786L332.726 345.631L337.734 343.125C338.871 344.127 338.467 343.941 339.282 344.996C340.828 347 342.503 348.509 344.358 351.453L357.132 348.551C358.318 351.543 360.415 354.069 361.75 356.649C361.012 358.791 358.971 361.698 357.644 363.967C356.543 365.851 353.93 370.019 353.427 371.733C351.714 370.918 336.549 356.946 336.515 356.906C335.133 355.273 334.845 355.06 333.396 353.774C331.951 352.492 327.815 349.381 327.009 347.677C325.73 346.427 324.965 346.058 324.109 344.585C324.978 343.058 325.872 341.972 326.932 340.533C327.811 339.34 328.75 337.793 329.657 336.496C333.889 330.437 332.334 331.107 334.079 327.408C334.864 325.748 341.992 318.176 343.596 316.658C346.567 309.228 352.594 286.352 354.167 279.42C357.324 265.514 359.378 267.729 361.284 259.289C362.1 255.776 365.816 248.026 367.437 244.444C370.814 236.983 370.212 235.799 370.897 226.935C371.444 219.865 375.556 218.872 375.274 210.91C375.064 205.017 373.556 199.022 372.942 193.227L375.8 193.056C378.284 193.198 378.73 192.85 382.682 194.99C384.129 195.773 384.208 196.13 385.32 197.178C389.303 200.928 391.711 208.705 391.93 214.851C392.142 222.417 394.832 223.94 390.24 239.244C373.779 239.427 373.567 256.791 369.032 268.208C367.521 272.01 366.315 275.764 364.818 279.456C358.138 295.935 353.752 300.209 355.08 298.606C356.473 296.923 363.81 288.729 366.215 279.417ZM260.155 277.629C260.61 277.383 263.945 273.803 264.526 273.005C265.57 271.574 268.569 267.77 269.858 266.785C277.24 277.873 285.718 301.011 285.141 306.614C283.28 304.953 277.293 294.816 275.681 291.981C273.061 287.376 269.206 280.842 266.558 276.872L260.155 277.629ZM70.776 277.099C79.2633 274.418 87.0051 270.588 95.8583 268.075C100.94 266.632 104.261 266.219 108.413 263.684C111.061 262.066 114.605 260.444 118.267 260.236C120.948 260.084 120.219 260.328 120.916 261.553C118.96 262.407 116.057 262.28 113.808 262.86C109.866 263.876 110.816 265.997 96.3118 270.2C86.0974 273.161 82.7849 277.177 70.776 277.099ZM154.829 210.673C164.572 216.129 196.738 237.625 205.867 243.833C210.126 246.731 214.369 249.247 218.813 252.365L256.152 277.685C255.732 279.645 238.063 310.02 234.934 313.759C228.331 308.812 219.009 299.741 213.808 295.706L174.862 262.38C173.511 261.19 173.454 260.796 171.941 259.686L148.107 239.481C146.837 238.527 146.442 237.794 145.156 236.819C143.995 235.937 143.285 235.167 142.073 234.265C140.525 233.114 140.679 233.824 139.51 231.663L154.829 210.673ZM165.302 176.423C160.081 169.198 161.366 169.003 158.368 159.268C157.543 156.589 155.022 154.735 153.422 151.852C148.968 143.823 153.199 136.773 152.444 130.738C152.006 127.238 150.03 124.754 151.122 120.8C153.357 112.704 164.208 113.285 165.9 117.546C160.962 117.499 156.703 115.671 154.42 120.741C153.088 123.7 155.023 127.524 155.121 135.617C156.768 130.877 157.759 124.331 161.04 121.661C164.067 121.173 166.155 121.616 167.155 123.947C164.143 127.05 163.876 124.712 163.907 128.107C168.019 131.336 171.537 129.018 174.636 127.06C173.568 138.563 159.301 130.811 156.805 142.251C155.333 148.997 159.127 149.428 163.155 151.745C166.244 153.522 170.588 159.251 172.583 156.293C173.915 151.84 168.358 150.238 167.644 145.377C168.918 142.099 170.433 142.165 172.746 140.139C174.372 138.717 175.636 136.476 176.949 134.096C180.543 140.31 183.983 154.076 181.222 160.208C179.614 163.779 181.036 168.026 179.102 172.741C177.961 175.524 178.963 174.687 177.635 175.5C179.317 177.053 181.855 179.472 183.182 177.825C186.074 174.239 184.16 169.997 184.428 170.103C181.828 156.777 186.831 165.419 188.787 143.842C189.8 143.861 219.696 160.34 221.905 161.31L228.242 163.968C238.837 167.915 253.329 171.005 265.087 170.89C263.504 172.896 251.938 178.985 248.845 180.638L232.785 189.741C242.154 186.597 254.819 179.091 262.891 175.911C262.023 178.353 260.104 180.309 261.215 183.494C262.821 188.099 269.096 186.889 273.741 189.58C275.977 190.875 277.846 191.32 280.73 191.698C283.13 196.517 286.882 195.273 288.172 193.986C288.74 193.419 288.607 193.317 288.856 192.972C291.038 189.941 296.131 196.412 302.537 191.319C305.987 188.575 306.168 187.223 308.082 182.187C308.986 183.515 310.536 184.535 311.805 185.898C312.729 186.891 312.735 187.052 313.388 188.256L314.808 190.382L314.957 188.662C315.235 186.285 315.533 184.99 314.131 183.553C308.548 177.824 306.621 179.315 306.624 173.517C311.35 173.286 321.443 169.401 324.516 166.021C321.781 179.141 322.628 193.202 317.479 206.654C314.742 213.805 306.823 229.703 301.566 238.144C296.822 245.758 291.815 251.923 286.667 252.644C284.566 252.938 281.606 250.142 273.626 249.929C264.805 249.693 257.185 252.415 252.06 251.794C242.526 249.37 235.712 258.518 188.529 198.201C188.638 211.288 193.257 224.066 196.751 232.458C199.385 238.783 174.276 218.59 172.209 217.108C170.207 215.674 167.833 214.053 166.267 212.49C164.09 211.667 166.253 211.408 164.995 209.886C165.94 203.119 173.332 177.532 165.302 176.423ZM269.362 170.984C271.721 169.904 274.132 170.598 275.555 168.685C278.972 164.728 282.424 156.551 289.753 157.01C292.278 157.169 294.14 160.073 294.866 161.41C303.343 176.994 308.379 192.495 287.256 187.432C287.256 187.432 276.706 186.842 281.299 185.867C284.623 185.161 264.807 179.195 270.242 183.933C261.289 184.322 265.159 172.628 269.362 170.984ZM319.897 66.3428C323.455 74.6354 329.079 95.9531 324.949 106.189C320.692 117.726 263.669 114.152 251.304 112.207C232.721 109.282 219.955 102.806 208.432 100.148C220.652 100.029 227.519 68.8749 228.112 65.0127C237.789 65.8648 253.141 62.9924 261.244 58.0615C257.776 61.7688 253.422 66.3706 249.689 69.1581C261.883 71.4824 274.54 63.3093 284.81 58.052C281.508 64.746 276.458 68.3969 270.331 70.9888C272.446 70.5385 275.546 69.7495 280.353 68.409C278.821 70.3783 277.086 71.7292 275.175 72.6783C282.086 74.7099 293.151 73.0368 307.828 63.4687C306.284 65.838 304.453 68.6229 302.625 70.987C307.082 70.4458 319.073 71.3222 319.897 66.3428Z" fill="url(#paint0_linear_260_1212)"/>
<path fill-rule="evenodd" clip-rule="evenodd" d="M305.342 214.677L306.141 210.549L306.778 204.318C300.791 210.609 295.955 204.479 290.826 207.37C282.761 211.916 281.927 207.259 272.566 207.066C262.825 206.864 261.745 207.9 252.584 204.874C247.835 203.305 248.561 203.142 245.921 200.345C243.298 201.287 241.178 203.545 240.692 207.273C244.735 207.476 242.543 207.677 244.888 205.251C249.195 205.785 247.208 206.505 252.335 207.591C258.094 208.81 263.953 209.98 269.757 211.014C279.082 212.672 279.675 215.193 286.506 213.703C289.274 213.099 291.073 212.357 294.852 211.931C296.296 211.768 297.711 211.631 299.143 211.238C301.065 210.71 301.812 210.4 303.927 210.052L303.659 214.619L305.342 214.677Z" fill="url(#paint1_linear_260_1212)"/>
<path fill-rule="evenodd" clip-rule="evenodd" d="M255.06 214.479C258.256 215.689 264.026 219.566 266.626 222.026C271.116 226.475 288.405 226.839 293.202 223.175C295.578 220.918 298.11 218.262 300.393 215.881C297.358 217.516 294.31 220.812 291.388 221.471C288.728 222.071 280.713 220.96 277.424 220.767C271.782 220.436 270.126 220.547 265.402 218.25C263.135 217.147 257.158 214.35 255.06 214.479Z" fill="url(#paint2_linear_260_1212)"/>
<path fill-rule="evenodd" clip-rule="evenodd" d="M221.036 191.106C221.262 196.681 222.529 203.201 223.978 207.782C225.053 198.492 223.769 192.924 227.362 189.055C228.876 187.424 229.357 186.67 230.618 184.812C228.639 185.66 229.253 185.847 225.986 188.275C224.011 189.743 222.865 190.115 221.036 191.106Z" fill="url(#paint3_linear_260_1212)"/>
<path fill-rule="evenodd" clip-rule="evenodd" d="M378.443 191.307C377.478 191.961 370.282 189.952 375.831 195.269C376.057 195.485 378.201 197.834 379.003 200.141C380.308 203.896 379.647 205.62 380.878 211.116C380.883 211.139 386.106 223.258 386.106 224.874C386.106 227.347 385.463 230.11 384.165 232.097C383.697 232.813 382.789 237.853 380.468 240.853C379.822 241.689 379.168 243.171 380.141 243.417C381.444 243.747 386.669 244.158 387.363 242.487C390.405 242.315 391.735 236.862 392.909 234.69C395.884 229.192 394.833 214.229 395.013 207.839C395.1 204.793 388.858 196.269 385.733 195.588C384.932 195.413 379.188 190.801 378.443 191.307Z" fill="#111111"/>
<path d="M208.13 136.131C206.935 135.778 205.911 133.638 205.842 131.352C205.773 129.066 206.687 127.495 207.88 127.848C214.103 129.656 220.327 131.465 226.578 133.057C233.02 134.698 239.763 136.195 247.111 137.41C254.611 138.651 262.822 139.599 271.073 140.159C278.91 140.691 286.705 140.861 293.873 140.579C308.603 140.003 320.943 137.519 333.283 135.037L333.313 135.033C334.457 134.835 335.666 136.542 336.014 138.846C336.36 141.135 335.724 143.152 334.594 143.37C322.208 145.865 309.82 148.357 294.858 148.944C287.54 149.23 279.666 149.063 271.817 148.531C263.598 147.974 255.316 147.008 247.65 145.742C240.191 144.51 233.387 142.998 226.914 141.351C220.251 139.653 214.19 137.892 208.13 136.131Z" fill="#1FB6EA"/>
<path d="M208.037 133.023C207.739 132.936 207.482 132.401 207.465 131.83C207.448 131.258 207.676 130.864 207.974 130.953C214.137 132.744 220.301 134.535 226.705 136.168C233.154 137.809 239.919 139.311 247.313 140.534C254.878 141.783 263.116 142.741 271.352 143.298C279.196 143.831 287.021 143.999 294.243 143.716C309.06 143.135 321.418 140.649 333.775 138.161L333.786 138.16C334.072 138.11 334.375 138.538 334.462 139.113C334.548 139.688 334.388 140.194 334.103 140.245C321.734 142.733 309.364 145.224 294.489 145.806C287.226 146.092 279.382 145.923 271.539 145.391C263.306 144.834 255.05 143.875 247.449 142.617C240.036 141.393 233.254 139.887 226.789 138.239C220.279 136.58 214.157 134.803 208.037 133.023Z" fill="#FEFEFE"/>
<defs>
<linearGradient id="paint0_linear_260_1212" x1="228.999" y1="0.000488281" x2="228.999" y2="530" gradientUnits="userSpaceOnUse">
<stop offset="0.305" stop-color="#1FB6EA"/>
<stop offset="1" stop-color="#116784"/>
</linearGradient>
<linearGradient id="paint1_linear_260_1212" x1="273.735" y1="200.345" x2="273.735" y2="214.677" gradientUnits="userSpaceOnUse">
<stop offset="0.305" stop-color="#1FB6EA"/>
<stop offset="1" stop-color="#116784"/>
</linearGradient>
<linearGradient id="paint2_linear_260_1212" x1="277.726" y1="214.475" x2="277.726" y2="225.669" gradientUnits="userSpaceOnUse">
<stop offset="0.305" stop-color="#1FB6EA"/>
<stop offset="1" stop-color="#116784"/>
</linearGradient>
<linearGradient id="paint3_linear_260_1212" x1="225.827" y1="184.812" x2="225.827" y2="207.782" gradientUnits="userSpaceOnUse">
<stop offset="0.305" stop-color="#1FB6EA"/>
<stop offset="1" stop-color="#116784"/>
</linearGradient>
</defs>
</svg>
