<svg width="340" height="393" viewBox="0 0 340 393" fill="none" xmlns="http://www.w3.org/2000/svg">
<path fill-rule="evenodd" clip-rule="evenodd" d="M149.45 339.099L151.034 337.548C150.577 338.356 151.056 337.91 150.4 338.494C150.333 338.554 149.637 338.953 149.45 339.099ZM110.849 294.409C122.022 295.283 130.209 297.948 139.48 303.586C135.849 300.149 132.322 297.212 126.703 295.093C119.547 292.396 116.769 292.963 110.849 294.409ZM98.3707 237.834C99.3625 239.398 101.404 241.987 102.777 243.638C105.406 246.801 106.845 249.514 108.947 252.402C110.227 254.162 119.287 270.696 120.689 274.29C122.11 277.934 125.104 284.115 125.846 287.915C116.481 285.999 104.92 287.353 99.9668 291.631C102.524 290.479 106.132 289.548 109.776 290.071C108.582 290.99 107.224 290.988 105.701 291.695C104.366 292.314 103.112 293.206 102.002 293.795L114.241 290.565L112.343 289.348C116.282 287.684 127.544 290.866 130.695 291.943C130.55 290.796 130.518 290.761 130.108 289.694C126.126 279.312 123.75 272.268 117.837 262.654L115.818 259.056C112.279 253.516 102.504 240.532 98.3707 237.834ZM1.65307 242.334C2.13769 239.529 5.56408 231.816 6.45222 229.969C10.4939 221.567 16.2572 215.227 24.4835 211.158C37.0282 204.955 40.7488 205.667 52.3262 201.722C59.2647 199.358 65.7385 196.283 72.975 194.718C76.1864 194.024 83.3328 190.719 85.0724 188.404C86.4587 186.56 88.0238 185.008 89.4339 183.123C92.9363 178.439 101.062 171.175 102.239 170.373C104.66 168.724 106.537 165.322 108.218 162.878C110.117 160.114 113.828 154.93 114.796 154.253C118.087 153.612 120.066 151.421 121.6 139.008C122.862 128.785 118.614 133.653 116.049 123.425C115.375 120.738 114.817 118.371 113.501 116.748C109.811 112.201 108.99 108.041 109.388 101.943C109.65 97.9317 108.888 96.8779 108.754 93.5607C108.421 85.3453 113.315 84.5426 116.231 82.2888C113.083 82.7421 113.286 76.071 113.965 70.0492C114.482 65.4618 114.945 61.1557 116.367 61.2212C116.511 57.9585 116.767 54.6336 117.208 51.134C118.829 38.2734 122.633 31.7333 129.646 22.9349C138.261 12.1259 150.982 3.79306 165.2 1.13272C185.193 -2.60896 206.978 3.22285 223.047 14.1519C224.116 14.8788 224.503 15.2172 225.446 15.9364L232.092 21.4407C238.263 26.7665 242.481 32.6869 247.564 38.6561C248.831 40.1439 250.6 40.6731 252.313 42.1429C251.665 42.5757 247.055 41.7364 245.986 43.2037C245.27 44.1849 244.621 44.208 246.135 48.071C246.543 49.1132 240.555 44.8835 240.103 45.1622C241.899 54.3177 244.16 67.9674 245.369 77.9486L250.32 78.917C251.545 79.7967 251.978 80.4825 252.367 82.3414C253.023 85.4789 253.221 89.0414 253.271 92.3252C253.383 99.5697 253.293 105.385 250.935 111.751C249.897 114.556 248.737 117.003 247.073 118.776C246.036 119.881 243.293 121.409 242.865 122.754C242.535 123.788 241.04 142.17 238.163 152.875C236.008 158.18 232.264 165.05 230.201 170.185C228.286 174.953 223.272 181.625 220.248 185.953C215.777 192.352 210.108 193.141 204.536 193.22C203.493 193.235 203.652 193.656 202.605 195.739C200.771 199.391 239.848 227.568 248.053 229.476L254.13 232.065C255.455 230.748 256.632 221.417 257.156 219C259.002 210.486 261.083 201.25 263.987 193.599C267.468 184.427 272.237 180.911 272.752 170.343C273.032 164.594 274.888 161.251 275.196 156.408C275.56 150.69 273.921 146.62 273.347 141.656C281.137 136.9 289.55 142.33 292.768 150.261C296.035 158.314 294.949 169.568 293.446 178.222C309.11 181.463 313.134 176.791 319.806 178.735C328.226 181.189 332.968 186.547 331.343 195.76C334.003 198.377 335.991 199.312 337.714 203.799C338.43 205.666 338.791 207.86 338.672 210.081C338.521 212.872 337.722 214.057 337.206 216.155C342.062 222.636 339.835 226.267 336.227 232.322C337.807 237.388 338.293 244.537 334.331 247.329C333.024 248.249 329.35 249.803 327.575 250.614C324.496 252.02 323.636 253.177 319.842 252.318L307.546 263.188C300.263 270.574 294.888 269.839 286.691 273.864C286.403 274.005 286.081 274.302 285.752 274.683L310.692 330.02L339.077 393C339.077 393 260.707 392.778 238.815 392.76L255.418 363.791L272.761 335.95C275.399 332.522 279.07 328.641 281.748 325.193C283.127 323.418 284.201 321.834 285.597 320.249C286.923 318.743 287.547 316.524 288.359 314.237C289.43 311.222 292.252 303.851 292.687 301.165C291.293 304.001 285.684 317.769 284.238 319.291C280.238 323.498 280.634 320.653 275.745 328.81C274.61 330.704 273.569 332.298 272.423 334.27C271.66 335.585 266.275 344.271 260.779 353.127C250.745 369.293 239.291 390.487 238.02 392.984L238.018 392.988L238.015 392.992L238.013 392.996L238.012 393H237.968H237.878H237.841H237.745H237.631H237.612H237.478H237.345H237.342H237.212H237.078H236.977H236.944H236.812H236.678H236.545H236.538H236.412H236.279H236.145H236.028H236.013H235.879H235.747H235.614H235.481H235.45H235.348H235.216H235.083H234.951H234.819H234.806H234.687H234.555H234.424H234.292H234.16H234.1H234.03H233.899H233.768H233.638H233.507H233.377H233.334H233.247H233.117H232.988H232.858H232.73H232.601H232.51H232.473H232.345H232.217H232.089H231.962H231.835H231.708H231.632H231.582H231.457H231.33H231.205H231.081H230.956H230.832H230.708H230.702H230.585H230.462H230.339H230.217H230.095H229.974H229.853H229.732H178.4H87.7722C74.6785 393 -13.0386 294.961 1.65307 242.334ZM15.8781 228.504C19.1771 223.795 23.2684 220.433 28.1004 217.269C32.798 214.194 38.8116 212.009 45.1683 210.937C54.3252 209.394 58.4776 210.811 66.8042 211.392C53.8779 206.534 36.6672 207.957 25.7398 214.524C20.0692 217.931 16.5005 221.487 13.0354 226.509C10.642 229.978 5.70118 238.889 4.68174 243.387C4.6354 243.381 8.64877 237.57 15.8781 228.504ZM258.071 277.809C259.774 279.487 261.563 280.845 263.571 282.33L263.886 282.561L263.895 282.567L263.897 282.569L263.901 282.571L264.211 282.797L264.216 282.8L264.22 282.802L264.327 282.879L264.434 282.956L264.536 283.028L264.541 283.032L264.648 283.107L264.845 283.246L264.855 283.253L264.861 283.257L264.866 283.261L265.074 283.405L265.171 283.472L265.18 283.478L265.286 283.55L265.392 283.623L265.487 283.688L265.497 283.695L265.515 283.707L265.708 283.836L265.802 283.9L265.814 283.907L265.919 283.977L266.024 284.046L266.116 284.107L266.128 284.115L266.233 284.184L266.338 284.252L266.345 284.256L266.522 284.37L266.547 284.386L266.652 284.453L266.739 284.509L266.756 284.519L266.86 284.585L266.964 284.65L266.977 284.658L267.109 284.74L267.282 284.847L267.38 284.907L267.484 284.97L267.587 285.033L267.67 285.083L267.691 285.095L267.795 285.156L267.898 285.218L267.903 285.221L268.105 285.339L268.209 285.4L268.414 285.517L268.416 285.519L268.519 285.578L268.622 285.636L268.725 285.694L268.829 285.752L268.932 285.809L269.035 285.865L269.138 285.922L269.345 286.034L269.449 286.089L269.552 286.143L269.655 286.198L269.758 286.252L269.83 286.289L269.862 286.305L269.965 286.359C274.445 288.655 279.013 289.857 285.05 290.658L280.81 298.457C282.602 298.276 282.667 298.492 283.337 297.576C283.391 297.502 283.452 297.391 283.505 297.313C283.743 296.955 283.889 296.622 284.12 296.241C290.594 285.617 288.043 291.017 285.496 282.798L283.588 284.138L285.63 288.618C274.689 287.334 267.109 282.797 259.875 276.169C258.996 275.065 258.068 273.962 256.999 272.892L236.628 254.869C234.469 253.272 234.993 253.176 233.553 252.399C232.399 253.172 229.133 257.935 228.332 258.999C226.529 261.396 225.07 263.308 223.282 265.65L205.917 288.891C204.617 290.469 204.822 290.381 204.394 292.843C203.338 298.9 201.472 306.263 200.995 312.254C202.625 307.206 204.731 300.779 207.513 296.763C209.541 293.835 232.938 258.679 234.391 257.488L271.491 312.041C282.994 310.609 290.024 306.848 290.752 302.218L278.4 303.726L246.766 270.237C244.279 267.461 244.054 266.575 243.248 265.335L258.071 277.809ZM148.98 75.0571L149.971 78.9035C161.228 83.9153 172.628 88.0378 185.375 89.7895C186.926 90.0027 188.438 90.185 189.921 90.3417L189.922 90.3423H189.922C198.792 91.2824 206.661 91.3184 216.136 91.6163C222.573 91.1964 228.292 91.1315 234.604 89.9898C239.248 89.1499 246.905 87.1612 248.073 83.5435C245.768 81.3089 244.098 82.5411 242.237 83.8536C232.51 90.7103 194.541 88.1584 184.646 86.3297C172.107 84.0116 160.31 79.9797 148.98 75.0571ZM147.4 77.7425L146.415 73.925C145.54 73.5327 144.668 73.1352 143.799 72.7326C139.839 70.9019 134.653 68.1568 131.233 66.8738C130.955 67.785 130.681 68.6969 130.412 69.61C131.018 69.9156 131.763 70.2835 132.69 70.7324C137.649 73.1352 142.519 75.5118 147.4 77.7425ZM150.228 83.2635C143.322 80.0336 136.266 76.1552 129.526 72.6171C128.102 77.609 126.549 83.32 125.018 88.3119C126.447 88.9052 128.893 90.8169 129.916 91.6214L144.719 101.944L150.228 83.2635ZM153.53 335.661C152.882 336.745 152.905 336.546 151.315 337.515C151.853 336.74 151.55 336.676 153.53 335.661ZM164.861 332.719C164.267 333.778 164.992 332.975 163.2 334.277C163.834 333.25 163.522 333.4 164.861 332.719ZM153.53 335.661C153.77 335.233 153.521 335.422 153.999 334.958L160.319 329.554C162.925 327.583 165.368 324.649 167.58 323.768C166.619 323.153 169.001 322.958 165.885 323.338C162.706 323.726 156.804 327.122 154.675 327.747C160.157 323.606 167.375 320.371 174.41 319.413L169.419 323.562C167.728 324.947 166.074 326.211 164.236 327.608C161.702 329.533 156.025 334.379 153.53 335.661ZM164.861 332.719C165.442 331.489 171.822 326.412 173.239 325.252L188.107 311.703C188.951 311.013 189.675 310.581 190.44 309.824L199.353 302.01C199.191 303.646 198.918 305.285 198.782 306.86C198.606 308.909 198.833 309.736 197.871 311.242L197.757 308.267C196.349 311.821 185.294 318.829 182.032 321.048C179.648 322.669 166.335 332.267 164.861 332.719ZM169.896 235.515L175.713 239.667L180.607 232.073C182.452 232.894 184.978 234.499 186.67 235.705C189.728 237.886 189.068 237.437 190.643 241.354C192.539 246.069 194.294 250.797 195.915 255.747C197.474 260.508 198.913 265.65 200.245 270.659C201.572 275.647 202.759 281.811 204.402 286.45C202.793 287.55 202.862 287.957 201.699 289.412L200.711 287.769C200.402 286.981 200.312 286.727 199.978 285.997C195.945 277.15 192.015 269.655 187.149 261.152C180.992 250.394 177.441 246.075 170.953 237.162C170.515 236.562 170.445 236.095 169.896 235.515ZM216.857 231.999C218.382 234.946 224.916 255.084 225.277 258.344C223.676 261.075 221.089 263.364 219.85 265.984C218.992 265.042 219.364 265.909 218.695 263.551L216.299 256.331C212.397 245.211 210.211 239.96 204.552 229.49C205.877 227.347 205.558 228.141 205.718 225.099C205.881 227.471 207.445 229.036 209.822 229.759C211.98 230.414 215.101 230.834 216.857 231.999ZM282.142 251.327L281.37 251.736C281.036 251.887 281.444 251.733 280.853 251.885C281.583 251.031 281.007 251.528 282.085 250.891C285.325 247.806 296.261 240.215 299.899 236.947C301.336 235.657 302.051 233.572 304.221 231.587C305.211 230.913 306.578 230.254 308.111 230.248C309.777 230.242 311.032 231.146 312.48 231.489L326.738 232.584C332.056 232.944 333.777 232.745 333.776 235.616C334.509 236.425 334.546 237.639 334.652 238.956C332.172 237.12 331.639 237.042 328.006 236.37C313.342 233.656 312.181 238.949 305.614 238.907C301.876 238.883 301.055 239.567 299.091 241.504C298.414 242.172 297.59 243.066 296.883 243.947C296.016 245.025 295.978 245.384 294.684 246.044C290.919 247.963 286.099 249.401 282.142 251.327ZM271.863 207.19C275.034 199.122 276.737 193.864 281.603 186.83C286.547 179.686 287.37 180.791 294.485 181.528C297.431 181.833 300.334 182.094 303.343 182.359C313.32 183.234 315.444 180.226 320.83 182.929C324.849 184.346 326.366 186.474 328.353 190.146C317.587 189.935 313.638 189.466 303.577 187.415C299.501 186.585 295.068 186.218 291.033 187.299C287.208 188.324 285.664 190.797 284.169 194.411C280.263 203.85 269.248 219.167 263.33 228.616C266.275 225.461 269.971 220.217 272.813 216.352L277.544 209.991C279.886 207.054 286.467 199.906 292.537 196.904C296.545 194.922 300.331 196.081 302.526 196.692C314.711 200.196 325.733 195.249 330.664 200.101C333.453 201.592 334.597 205.122 335.242 208.304L320.872 205.575C311.377 202.111 310.782 201.333 299.465 202.818C292.043 203.791 288.37 211.643 284.445 213.186C282.141 214.519 280.985 221.853 279.882 224.75C279.45 227.906 279.787 228.98 278.554 231.755C278.105 232.359 277.828 232.974 277.222 233.331C275.885 236.346 272.961 239.345 271.623 242.205C275.054 240.941 281.797 236.106 285.525 233.708C285.874 233.484 287.422 228.866 289.226 225.398C291.068 221.856 293.177 219.449 294.545 217.999C299.157 213.112 303.044 211.084 310.574 213.316C313.109 213.996 314.068 215.05 315.967 215.818C317.532 216.451 321.091 216.511 323.026 216.684C331.173 217.415 332.747 216.402 335.06 220.038C318.188 217.121 310.101 221.946 305.248 222.196C302.373 222.345 301.735 221.399 299.303 223.075C292.186 229.876 290.593 233.421 284.815 240.857C283.058 243.118 278.725 246.526 276.694 248.535C275.38 249.835 261.475 252.783 258.039 253.53C255.134 254.163 254.611 252.186 251.809 251.954L247.002 256.288L250.72 254.43C251.564 255.173 251.264 255.035 251.869 255.818C253.017 257.303 254.261 258.422 255.638 260.605L265.121 258.454C266.001 260.672 267.558 262.545 268.549 264.458C268.001 266.047 266.486 268.202 265.501 269.885C264.684 271.281 262.744 274.373 262.37 275.643C261.098 275.039 249.841 264.678 249.816 264.649C248.79 263.438 248.576 263.28 247.5 262.326C246.427 261.376 243.357 259.069 242.759 257.806C241.809 256.878 241.241 256.605 240.606 255.513C241.251 254.381 241.914 253.575 242.701 252.508C243.354 251.623 244.051 250.476 244.724 249.514C247.866 245.021 246.711 245.518 248.007 242.776C248.589 241.545 253.881 235.93 255.072 234.805C257.278 229.295 261.751 212.332 262.919 207.192C265.263 196.88 266.788 198.523 268.203 192.265C268.808 189.66 271.567 183.913 272.771 181.257C275.278 175.725 274.831 174.847 275.339 168.274C275.745 163.032 278.798 162.295 278.588 156.391C278.432 152.022 277.313 147.577 276.857 143.279L278.979 143.152C280.823 143.258 281.154 142.999 284.088 144.587C285.162 145.167 285.22 145.432 286.046 146.209C289.003 148.99 290.79 154.756 290.953 159.314C291.11 164.924 293.107 166.053 289.698 177.401C277.479 177.537 277.321 190.412 273.954 198.879C272.833 201.698 271.937 204.481 270.827 207.219C265.867 219.438 262.611 222.607 263.597 221.419C264.631 220.171 270.078 214.095 271.863 207.19ZM193.129 205.864C193.467 205.682 195.942 203.027 196.374 202.436C197.148 201.374 199.375 198.554 200.332 197.823C205.812 206.045 212.106 223.202 211.677 227.357C210.296 226.125 205.852 218.608 204.655 216.506C202.71 213.092 199.848 208.247 197.882 205.303L193.129 205.864ZM52.5418 205.472C58.8425 203.483 64.5897 200.643 71.1619 198.78C74.9346 197.709 77.3996 197.404 80.4817 195.524C82.4478 194.324 85.0788 193.121 87.7973 192.967C89.7873 192.854 89.2466 193.035 89.7634 193.944C88.3115 194.577 86.1568 194.483 84.4867 194.913C81.5603 195.666 82.2657 197.239 71.4986 200.356C63.9159 202.551 61.4567 205.529 52.5418 205.472ZM114.939 156.216C122.172 160.261 146.051 176.201 152.828 180.804C155.989 182.953 159.139 184.819 162.438 187.13L190.157 205.906C189.846 207.359 176.729 229.883 174.406 232.655C169.504 228.987 162.584 222.261 158.723 219.268L129.811 194.557C128.808 193.674 128.766 193.382 127.642 192.559L109.949 177.577C109.007 176.87 108.713 176.326 107.759 175.603C106.896 174.949 106.37 174.378 105.469 173.709C104.321 172.856 104.435 173.382 103.567 171.78L114.939 156.216ZM122.714 130.819C118.838 125.462 119.792 125.317 117.566 118.098C116.954 116.112 115.083 114.737 113.895 112.599C110.589 106.646 113.729 101.418 113.169 96.9428C112.844 94.3479 111.377 92.5057 112.187 89.5744C113.846 83.5705 121.902 84.0013 123.158 87.1612C119.492 87.1259 116.331 85.7711 114.636 89.5301C113.647 91.7242 115.083 94.5599 115.156 100.561C116.379 97.0462 117.114 92.1923 119.55 90.2127C121.797 89.8505 123.347 90.1792 124.09 91.9072C121.854 94.2086 121.656 92.4749 121.679 94.992C124.731 97.3865 127.342 95.6675 129.643 94.2157C128.85 102.746 118.259 96.9974 116.407 105.48C115.314 110.482 118.13 110.802 121.12 112.52C123.413 113.838 126.638 118.086 128.119 115.893C129.108 112.59 124.983 111.403 124.453 107.798C125.399 105.367 126.523 105.416 128.24 103.914C129.447 102.859 130.386 101.198 131.36 99.433C134.028 104.041 136.582 114.248 134.532 118.796C133.339 121.443 134.395 124.593 132.959 128.089C132.111 130.152 132.855 129.531 131.869 130.134C133.118 131.286 135.002 133.08 135.988 131.859C138.135 129.199 136.714 126.054 136.912 126.133C134.982 116.251 138.696 122.659 140.148 106.659C140.901 106.674 163.094 118.893 164.734 119.612L169.438 121.583C177.303 124.51 188.062 126.802 196.79 126.716C195.615 128.204 187.029 132.718 184.732 133.944L172.811 140.694C179.766 138.363 189.167 132.797 195.16 130.439C194.516 132.25 193.091 133.701 193.916 136.063C195.108 139.477 199.767 138.58 203.214 140.575C204.875 141.535 206.262 141.865 208.403 142.145C210.184 145.719 212.97 144.796 213.927 143.842C214.349 143.421 214.25 143.346 214.435 143.09C216.055 140.843 219.836 145.641 224.592 141.865C227.153 139.83 227.287 138.827 228.708 135.093C229.379 136.078 230.53 136.834 231.471 137.844C232.158 138.581 232.162 138.7 232.647 139.593L233.701 141.169L233.811 139.894C234.018 138.132 234.239 137.172 233.198 136.106C229.054 131.858 227.623 132.964 227.625 128.664C231.134 128.493 238.626 125.612 240.908 123.106C238.878 132.835 239.507 143.261 235.684 153.236C233.652 158.538 227.773 170.327 223.871 176.585C220.349 182.232 216.632 186.803 212.81 187.338C211.251 187.555 209.053 185.482 203.129 185.324C196.581 185.149 190.924 187.168 187.12 186.707C180.042 184.91 174.984 191.693 139.957 146.968C140.038 156.672 143.467 166.147 146.06 172.369C148.015 177.059 129.376 162.086 127.842 160.987C126.355 159.924 124.593 158.722 123.431 157.563C121.815 156.953 123.42 156.761 122.486 155.632C123.187 150.614 128.675 131.642 122.714 130.819ZM199.964 126.786C201.715 125.985 203.505 126.499 204.561 125.081C207.098 122.147 209.66 116.084 215.101 116.424C216.975 116.542 218.358 118.695 218.897 119.686C225.19 131.242 228.928 142.737 213.248 138.982C213.248 138.982 205.416 138.545 208.826 137.822C211.293 137.299 196.582 132.874 200.617 136.387C193.97 136.676 196.843 128.005 199.964 126.786ZM237.479 49.1935C240.12 55.3425 244.296 71.1498 241.229 78.7398C238.069 87.2948 195.738 84.6447 186.558 83.2019C172.763 81.0334 163.286 76.2316 154.732 74.2602C163.803 74.1723 168.902 51.0711 169.341 48.2072C176.526 48.839 187.922 46.7091 193.938 43.0528C191.363 45.8018 188.131 49.214 185.359 51.281C194.411 53.0045 203.808 46.9441 211.432 43.0458C208.98 48.0094 205.231 50.7166 200.683 52.6385C202.253 52.3046 204.555 51.7196 208.123 50.7256C206.986 52.1858 205.698 53.1875 204.279 53.8913C209.409 55.3977 217.624 54.1571 228.519 47.0622C227.373 48.8191 226.014 50.8842 224.657 52.6372C227.966 52.2359 236.867 52.8857 237.479 49.1935Z" fill="#1FB6EA"/>
<path fill-rule="evenodd" clip-rule="evenodd" d="M226.674 159.222L227.267 156.16L227.74 151.539C223.295 156.205 219.705 151.659 215.898 153.802C209.91 157.174 209.291 153.72 202.342 153.577C195.111 153.427 194.309 154.196 187.509 151.951C183.983 150.788 184.522 150.667 182.562 148.592C180.615 149.291 179.041 150.966 178.681 153.731C181.682 153.882 180.055 154.031 181.796 152.231C184.993 152.627 183.518 153.162 187.324 153.967C191.599 154.871 195.949 155.739 200.257 156.505C207.179 157.735 207.62 159.605 212.691 158.5C214.746 158.052 216.081 157.501 218.887 157.185C219.959 157.065 221.009 156.963 222.072 156.672C223.499 156.28 224.053 156.05 225.624 155.792L225.425 159.179L226.674 159.222Z" fill="#1FB6EA"/>
<path fill-rule="evenodd" clip-rule="evenodd" d="M189.347 159.076C191.72 159.973 196.003 162.849 197.933 164.673C201.266 167.973 214.101 168.243 217.662 165.525C219.426 163.851 221.306 161.881 223 160.115C220.747 161.328 218.485 163.773 216.315 164.262C214.341 164.706 208.391 163.882 205.949 163.74C201.761 163.494 200.531 163.576 197.025 161.872C195.342 161.054 190.904 158.98 189.347 159.076Z" fill="#1FB6EA"/>
<path fill-rule="evenodd" clip-rule="evenodd" d="M164.089 141.74C164.257 145.875 165.197 150.711 166.273 154.108C167.071 147.218 166.117 143.088 168.785 140.218C169.909 139.009 170.266 138.45 171.202 137.071C169.733 137.701 170.189 137.839 167.764 139.64C166.298 140.729 165.447 141.005 164.089 141.74Z" fill="#1FB6EA"/>
</svg>
