<svg width="592" height="685" viewBox="0 0 592 685" fill="none" xmlns="http://www.w3.org/2000/svg">
<path fill-rule="evenodd" clip-rule="evenodd" d="M260.218 591.051L262.976 588.346C262.18 589.756 263.014 588.979 261.872 589.995C261.755 590.1 260.544 590.795 260.218 591.051ZM193.007 513.155C212.462 514.679 226.715 519.325 242.859 529.15C236.536 523.161 230.394 518.042 220.61 514.348C208.152 509.648 203.314 510.635 193.007 513.155ZM171.28 414.545C173.007 417.271 176.561 421.784 178.951 424.662C183.53 430.176 186.036 434.903 189.695 439.937C191.924 443.005 207.699 471.824 210.14 478.088C212.614 484.439 217.827 495.213 219.119 501.837C202.812 498.497 182.684 500.856 174.059 508.314C178.511 506.306 184.794 504.683 191.139 505.594C189.059 507.195 186.695 507.192 184.043 508.425C181.719 509.504 179.535 511.058 177.603 512.085L198.912 506.456L195.608 504.335C202.467 501.434 222.076 506.981 227.563 508.858C227.309 506.859 227.253 506.797 226.541 504.938C219.606 486.842 215.469 474.564 205.173 457.807L201.658 451.535C195.497 441.878 178.477 419.247 171.28 414.545ZM2.87731 422.388C3.72111 417.499 9.68707 404.056 11.2335 400.836C18.2708 386.192 28.3057 375.141 42.6291 368.049C64.4717 357.237 70.9498 358.478 91.1082 351.602C103.189 347.481 114.461 342.122 127.061 339.395C132.653 338.184 145.096 332.423 148.125 328.389C150.539 325.174 153.264 322.47 155.719 319.184C161.818 311.019 175.965 298.359 178.016 296.961C182.231 294.087 185.498 288.157 188.425 283.896C191.733 279.079 198.194 270.043 199.88 268.863C205.609 267.746 209.055 263.927 211.725 242.291C213.924 224.472 206.527 232.958 202.061 215.13C200.888 210.446 199.915 206.32 197.624 203.492C191.199 195.567 189.77 188.316 190.462 177.687C190.918 170.695 189.593 168.858 189.358 163.077C188.779 148.757 197.301 147.358 202.377 143.43C196.897 144.22 197.25 132.592 198.432 122.096C199.333 114.1 200.138 106.595 202.614 106.709C202.866 101.022 203.311 95.2265 204.08 89.1267C206.901 66.7107 213.525 55.3113 225.736 39.9756C240.735 21.1356 262.886 6.61131 287.642 1.97434C322.452 -4.54742 360.384 5.61744 388.363 24.6668C390.224 25.9337 390.898 26.5236 392.54 27.7771L404.112 37.3712C414.857 46.6541 422.201 56.9734 431.052 67.3777C433.259 69.971 436.338 70.8933 439.321 73.4552C438.192 74.2096 430.166 72.7467 428.303 75.3042C427.057 77.0144 425.926 77.0546 428.563 83.7879C429.274 85.6044 418.848 78.2321 418.06 78.7178C421.187 94.6758 425.125 118.467 427.23 135.865L435.85 137.552C437.983 139.086 438.737 140.281 439.414 143.521C440.557 148.99 440.901 155.199 440.988 160.923C441.183 173.55 441.028 183.686 436.922 194.782C435.113 199.672 433.094 203.936 430.196 207.028C428.392 208.953 423.615 211.616 422.87 213.961C422.296 215.762 419.691 247.803 414.684 266.462C410.931 275.708 404.411 287.682 400.82 296.632C397.485 304.944 388.755 316.573 383.49 324.116C375.705 335.269 365.835 336.646 356.133 336.784C354.316 336.809 354.593 337.542 352.771 341.174C349.577 347.539 417.616 396.652 431.904 399.977L442.484 404.489C444.79 402.194 446.841 385.93 447.753 381.718C450.967 366.877 454.59 350.779 459.646 337.444C465.707 321.457 474.012 315.329 474.909 296.908C475.396 286.887 478.627 281.06 479.165 272.62C479.798 262.652 476.944 255.559 475.945 246.907C489.509 238.617 504.156 248.082 509.759 261.905C515.448 275.941 513.558 295.558 510.94 310.642C538.214 316.29 545.22 308.147 556.837 311.535C571.499 315.814 579.756 325.151 576.925 341.21C581.557 345.771 585.018 347.402 588.019 355.223C589.266 358.476 589.894 362.3 589.686 366.172C589.424 371.037 588.032 373.102 587.135 376.758C595.59 388.054 591.711 394.384 585.429 404.938C588.18 413.769 589.026 426.229 582.128 431.096C579.853 432.699 573.455 435.408 570.364 436.82C565.004 439.272 563.506 441.287 556.901 439.791L535.49 458.737C522.81 471.611 513.451 470.33 499.178 477.346C498.678 477.592 498.116 478.109 497.544 478.773L540.969 575.226L590.392 685C590.392 685 453.936 684.613 415.819 684.581L444.727 634.088L474.923 585.562C479.517 579.587 485.91 572.823 490.572 566.812C492.973 563.718 494.843 560.957 497.273 558.194C499.583 555.57 500.669 551.702 502.083 547.716C503.948 542.46 508.862 529.613 509.618 524.931C507.191 529.874 497.426 553.872 494.908 556.524C487.943 563.858 488.633 558.898 480.121 573.116C478.144 576.418 476.331 579.197 474.336 582.634C473.007 584.925 463.631 600.066 454.061 615.501C436.591 643.678 416.647 680.619 414.434 684.972L414.43 684.98L414.426 684.987L414.422 684.993L414.419 685H414.344H414.187H414.122H413.955H413.757H413.723H413.49H413.258H413.254H413.026H412.794H412.617H412.561H412.33H412.097H411.865H411.853H411.633H411.402H411.169H410.965H410.939H410.707H410.476H410.245H410.013H409.959H409.782H409.551H409.32H409.091H408.861H408.839H408.631H408.402H408.172H407.943H407.714H407.608H407.486H407.259H407.03H406.804H406.576H406.35H406.275H406.123H405.897H405.672H405.447H405.222H404.998H404.84H404.775H404.552H404.329H404.107H403.886H403.665H403.444H403.311H403.224H403.006H402.786H402.568H402.351H402.134H401.918H401.703H401.691H401.487H401.273H401.061H400.848H400.636H400.424H400.213H400.004H310.624H152.826C130.028 685 -22.7036 514.118 2.87731 422.388ZM27.6457 398.283C33.3898 390.076 40.5134 384.215 48.9268 378.701C57.106 373.34 67.5769 369.532 78.645 367.664C94.5887 364.974 101.819 367.444 116.317 368.457C93.8099 359.99 63.8431 362.469 44.8166 373.915C34.943 379.855 28.7293 386.053 22.696 394.806C18.5285 400.852 9.92578 416.384 8.15076 424.223C8.07008 424.215 15.0581 414.084 27.6457 398.283ZM449.346 484.221C452.312 487.147 455.426 489.513 458.923 492.103L459.471 492.504L459.486 492.516L459.49 492.518L459.497 492.522L460.037 492.915L460.046 492.921L460.053 492.925L460.239 493.06L460.426 493.193L460.603 493.319L460.612 493.326L460.798 493.457L461.141 493.699L461.158 493.71L461.169 493.718L461.178 493.724L461.539 493.975L461.709 494.093L461.724 494.103L461.909 494.229L462.092 494.356L462.259 494.469L462.276 494.481L462.308 494.502L462.644 494.727L462.807 494.838L462.828 494.85L463.01 494.972L463.193 495.093L463.353 495.198L463.376 495.213L463.558 495.333L463.741 495.451L463.752 495.458L464.061 495.657L464.105 495.685L464.287 495.802L464.439 495.9L464.468 495.917L464.65 496.032L464.831 496.145L464.854 496.16L465.082 496.302L465.384 496.489L465.555 496.594L465.735 496.703L465.916 496.812L466.06 496.9L466.096 496.921L466.277 497.028L466.457 497.136L466.466 497.141L466.818 497.347L466.998 497.453L467.355 497.657L467.358 497.66L467.537 497.763L467.718 497.864L467.897 497.965L468.078 498.066L468.258 498.165L468.437 498.264L468.617 498.362L468.976 498.557L469.157 498.654L469.337 498.749L469.516 498.844L469.696 498.938L469.82 499.003L469.876 499.031L470.057 499.124C477.857 503.127 485.81 505.221 496.322 506.618L488.94 520.211C492.059 519.896 492.173 520.272 493.339 518.675C493.433 518.547 493.54 518.353 493.632 518.217C494.046 517.593 494.3 517.012 494.703 516.35C505.975 497.831 501.533 507.242 497.097 492.917L493.775 495.253L497.332 503.061C478.281 500.824 465.083 492.915 452.488 481.364C450.957 479.44 449.341 477.516 447.48 475.652L412.011 444.236C408.251 441.454 409.163 441.286 406.657 439.932C404.646 441.279 398.959 449.582 397.565 451.436C394.425 455.613 391.885 458.947 388.773 463.028L358.537 503.538C356.273 506.289 356.63 506.135 355.885 510.426C354.047 520.983 350.798 533.817 349.966 544.26C352.806 535.46 356.471 524.258 361.315 517.258C364.847 512.155 405.586 450.878 408.116 448.803L472.713 543.888C492.742 541.392 504.982 534.837 506.249 526.766L484.743 529.394L429.662 471.024C425.333 466.186 424.94 464.641 423.537 462.479L449.346 484.221ZM259.399 130.825L261.125 137.529C280.726 146.265 300.575 153.45 322.769 156.503C325.471 156.875 328.102 157.193 330.685 157.466L330.686 157.467H330.687C346.131 159.105 359.833 159.168 376.33 159.687C387.538 158.955 397.495 158.842 408.486 156.852C416.572 155.388 429.903 151.922 431.937 145.617C427.925 141.722 425.017 143.869 421.776 146.157C404.84 158.108 338.729 153.66 321.5 150.473C299.667 146.432 279.127 139.405 259.399 130.825ZM256.648 135.505L254.933 128.852C253.41 128.168 251.892 127.475 250.378 126.773C243.483 123.582 234.454 118.797 228.499 116.561C228.014 118.149 227.538 119.739 227.07 121.33C228.124 121.863 229.422 122.504 231.035 123.287C239.67 127.475 248.15 131.617 256.648 135.505ZM261.573 145.128C249.549 139.499 237.263 132.739 225.527 126.572C223.047 135.273 220.344 145.227 217.678 153.928C220.166 154.962 224.425 158.294 226.206 159.696L251.98 177.688L261.573 145.128ZM267.321 585.058C266.193 586.947 266.234 586.601 263.465 588.289C264.402 586.939 263.874 586.827 267.321 585.058ZM287.05 579.93C286.017 581.777 287.279 580.376 284.159 582.645C285.263 580.855 284.72 581.116 287.05 579.93ZM267.321 585.058C267.739 584.312 267.307 584.641 268.138 583.833L279.142 574.413C283.68 570.977 287.933 565.865 291.786 564.328C290.112 563.256 294.259 562.916 288.833 563.579C283.299 564.255 273.023 570.175 269.315 571.264C278.86 564.046 291.429 558.407 303.678 556.737L294.988 563.969C292.044 566.383 289.164 568.586 285.963 571.021C281.551 574.376 271.667 582.823 267.321 585.058ZM287.05 579.93C288.062 577.786 299.171 568.937 301.639 566.915L327.526 543.3C328.995 542.096 330.256 541.343 331.589 540.025L347.109 526.404C346.826 529.255 346.35 532.113 346.113 534.857C345.806 538.429 346.202 539.87 344.528 542.496L344.329 537.311C341.876 543.506 322.628 555.72 316.949 559.587C312.798 562.413 289.618 579.143 287.05 579.93ZM295.818 410.503L305.947 417.74L314.468 404.504C317.68 405.935 322.078 408.732 325.025 410.835C330.349 414.636 329.199 413.854 331.941 420.68C335.243 428.899 338.3 437.139 341.122 445.768C343.836 454.067 346.342 463.028 348.662 471.759C350.971 480.453 353.038 491.197 355.9 499.283C353.097 501.201 353.217 501.909 351.193 504.445L349.473 501.583C348.934 500.209 348.777 499.766 348.197 498.493C341.174 483.074 334.33 470.01 325.859 455.189C315.138 436.437 308.956 428.91 297.658 413.375C296.896 412.328 296.774 411.513 295.818 410.503ZM377.585 404.375C380.24 409.511 391.617 444.611 392.246 450.295C389.458 455.055 384.953 459.044 382.796 463.61C381.303 461.968 381.951 463.479 380.786 459.371L376.614 446.785C369.82 427.403 366.014 418.25 356.161 400.001C358.468 396.266 357.912 397.65 358.19 392.348C358.474 396.482 361.197 399.211 365.336 400.47C369.093 401.613 374.527 402.344 377.585 404.375ZM491.258 438.064L489.913 438.777C489.332 439.04 490.042 438.771 489.014 439.035C490.285 437.548 489.282 438.414 491.158 437.304C496.801 431.927 515.842 418.694 522.176 413C524.677 410.751 525.924 407.117 529.701 403.656C531.425 402.481 533.805 401.333 536.475 401.323C539.375 401.312 541.56 402.888 544.082 403.485L568.908 405.395C578.167 406.023 581.164 405.674 581.162 410.678C582.438 412.089 582.503 414.205 582.687 416.501C578.37 413.301 577.442 413.165 571.115 411.994C545.583 407.263 543.562 416.488 532.126 416.416C525.618 416.373 524.189 417.565 520.77 420.942C519.591 422.106 518.156 423.664 516.924 425.199C515.416 427.08 515.349 427.704 513.095 428.855C506.541 432.2 498.147 434.707 491.258 438.064ZM473.361 361.132C478.882 347.069 481.846 337.905 490.319 325.646C498.927 313.192 500.361 315.118 512.75 316.403C517.879 316.936 522.933 317.391 528.173 317.852C545.545 319.377 549.243 314.134 558.62 318.846C565.618 321.316 568.261 325.025 571.72 331.426C552.974 331.056 546.099 330.239 528.581 326.666C521.484 325.218 513.765 324.578 506.738 326.463C500.078 328.249 497.391 332.56 494.788 338.859C487.986 355.311 468.807 382.008 458.503 398.478C463.631 392.979 470.067 383.838 475.014 377.103L483.251 366.016C487.329 360.895 498.788 348.437 509.358 343.203C516.336 339.749 522.928 341.77 526.75 342.835C547.966 348.942 567.157 340.319 575.743 348.776C580.6 351.376 582.591 357.528 583.715 363.074L558.694 358.318C542.161 352.279 541.126 350.924 521.421 353.512C508.497 355.208 502.102 368.894 495.268 371.584C491.256 373.907 489.243 386.691 487.323 391.74C486.571 397.241 487.157 399.112 485.011 403.95C484.23 405.002 483.747 406.074 482.691 406.696C480.364 411.952 475.273 417.179 472.943 422.164C478.917 419.961 490.657 411.534 497.149 407.353C497.755 406.964 500.451 398.914 503.592 392.869C506.8 386.696 510.472 382.501 512.854 379.974C520.884 371.455 527.652 367.919 540.764 371.81C545.177 372.995 546.847 374.832 550.153 376.172C552.878 377.275 559.075 377.379 562.444 377.681C576.629 378.955 579.37 377.189 583.398 383.526C554.021 378.442 539.939 386.852 531.49 387.289C526.484 387.549 525.373 385.899 521.139 388.82C508.746 400.675 505.973 406.853 495.913 419.815C492.853 423.756 485.309 429.695 481.772 433.196C479.484 435.463 455.274 440.601 449.29 441.904C444.232 443.006 443.321 439.561 438.443 439.156L430.074 446.711L436.547 443.472C438.017 444.767 437.494 444.526 438.548 445.891C440.547 448.481 442.712 450.43 445.11 454.236L461.621 450.485C463.154 454.352 465.864 457.617 467.59 460.951C466.636 463.72 463.997 467.477 462.283 470.41C460.86 472.844 457.482 478.232 456.832 480.447C454.617 479.394 435.016 461.335 434.972 461.283C433.186 459.173 432.814 458.897 430.94 457.235C429.072 455.579 423.727 451.557 422.685 449.356C421.031 447.74 420.042 447.263 418.936 445.359C420.059 443.386 421.214 441.982 422.585 440.122C423.721 438.58 424.935 436.581 426.107 434.904C431.578 427.073 429.567 427.939 431.823 423.159C432.837 421.013 442.051 411.227 444.124 409.265C447.965 399.662 455.754 370.095 457.788 361.137C461.869 343.163 464.524 346.026 466.987 335.118C468.042 330.577 472.846 320.561 474.941 315.932C479.306 306.289 478.528 304.759 479.413 293.302C480.119 284.165 485.436 282.881 485.07 272.59C484.799 264.975 482.85 257.226 482.056 249.736L485.75 249.515C488.961 249.698 489.538 249.248 494.646 252.015C496.516 253.027 496.618 253.488 498.056 254.842C503.204 259.69 506.317 269.74 506.6 277.685C506.874 287.462 510.351 289.431 504.415 309.211C483.138 309.447 482.864 331.889 477.002 346.646C475.05 351.56 473.49 356.412 471.556 361.183C462.921 382.482 457.252 388.005 458.968 385.933C460.769 383.759 470.253 373.168 473.361 361.132ZM336.27 358.822C336.858 358.504 341.169 353.876 341.92 352.846C343.269 350.996 347.147 346.08 348.812 344.806C358.354 359.137 369.313 389.042 368.567 396.283C366.161 394.136 358.423 381.035 356.339 377.371C352.952 371.419 347.969 362.975 344.547 357.843L336.27 358.822ZM91.4836 358.137C102.454 354.671 112.461 349.722 123.905 346.474C130.473 344.608 134.765 344.075 140.132 340.798C143.555 338.707 148.136 336.611 152.87 336.342C156.334 336.146 155.393 336.461 156.293 338.045C153.765 339.148 150.013 338.984 147.105 339.734C142.01 341.047 143.238 343.788 124.491 349.22C111.288 353.047 107.006 358.237 91.4836 358.137ZM200.128 272.284C212.723 279.336 254.299 307.118 266.099 315.142C271.604 318.887 277.088 322.139 282.832 326.169L331.096 358.894C330.554 361.427 307.715 400.686 303.67 405.518C295.135 399.125 283.086 387.401 276.363 382.185L226.023 339.113C224.276 337.575 224.203 337.066 222.247 335.631L191.44 309.518C189.799 308.284 189.288 307.337 187.626 306.076C186.124 304.937 185.208 303.942 183.64 302.776C181.64 301.288 181.838 302.206 180.328 299.413L200.128 272.284ZM213.665 228.018C206.917 218.68 208.579 218.428 204.703 205.846C203.637 202.383 200.378 199.988 198.31 196.261C192.553 185.884 198.022 176.771 197.046 168.971C196.48 164.449 193.926 161.238 195.337 156.128C198.226 145.663 212.252 146.415 214.438 151.922C208.056 151.861 202.551 149.499 199.6 156.051C197.878 159.876 200.379 164.818 200.506 175.278C202.635 169.152 203.916 160.691 208.156 157.241C212.069 156.61 214.768 157.183 216.061 160.194C212.168 164.206 211.823 161.184 211.863 165.571C217.177 169.745 221.724 166.749 225.731 164.218C224.35 179.086 205.91 169.067 202.683 183.852C200.781 192.571 205.684 193.128 210.89 196.123C214.883 198.42 220.498 205.823 223.077 202.001C224.799 196.245 217.616 194.175 216.693 187.892C218.34 183.656 220.298 183.741 223.288 181.123C225.39 179.284 227.024 176.388 228.72 173.312C233.366 181.344 237.813 199.135 234.244 207.061C232.165 211.676 234.004 217.166 231.504 223.259C230.028 226.856 231.323 225.774 229.607 226.825C231.782 228.831 235.062 231.958 236.777 229.83C240.516 225.195 238.041 219.712 238.388 219.85C235.027 202.626 241.494 213.796 244.022 185.908C245.332 185.933 283.974 207.231 286.83 208.485L295.02 211.92C308.715 217.021 327.448 221.016 342.645 220.867C340.599 223.459 325.649 231.328 321.651 233.465L300.893 245.23C313.003 241.168 329.373 231.466 339.807 227.356C338.685 230.512 336.204 233.041 337.641 237.157C339.717 243.108 347.828 241.545 353.831 245.022C356.722 246.697 359.138 247.272 362.865 247.76C365.967 253.988 370.817 252.38 372.484 250.717C373.218 249.984 373.047 249.853 373.368 249.406C376.189 245.489 382.772 253.853 391.053 247.271C395.512 243.724 395.746 241.976 398.22 235.467C399.389 237.184 401.392 238.503 403.032 240.263C404.226 241.547 404.234 241.755 405.078 243.311L406.913 246.059L407.106 243.836C407.466 240.764 407.85 239.09 406.038 237.232C398.822 229.829 396.332 231.756 396.335 224.262C402.443 223.964 415.489 218.942 419.462 214.574C415.927 231.531 417.022 249.704 410.366 267.09C406.828 276.333 396.593 296.88 389.797 307.789C383.666 317.63 377.193 325.598 370.539 326.53C367.824 326.91 363.997 323.296 353.683 323.02C342.281 322.716 332.432 326.234 325.807 325.431C313.484 322.298 304.676 334.122 243.688 256.165C243.829 273.079 249.8 289.594 254.316 300.44C257.72 308.615 225.265 282.516 222.594 280.601C220.005 278.748 216.937 276.653 214.913 274.633C212.1 273.569 214.894 273.235 213.27 271.267C214.49 262.521 224.045 229.451 213.665 228.018ZM348.171 220.988C351.221 219.592 354.336 220.489 356.176 218.017C360.593 212.902 365.055 202.335 374.528 202.928C377.791 203.133 380.199 206.886 381.138 208.614C392.095 228.755 398.603 248.791 371.301 242.247C371.301 242.247 357.664 241.484 363.601 240.224C367.898 239.312 342.283 231.6 349.309 237.724C337.736 238.227 342.738 223.113 348.171 220.988ZM413.491 85.7443C418.09 96.4621 425.361 124.014 420.022 137.244C414.519 152.155 340.813 147.536 324.83 145.021C300.81 141.241 284.309 132.872 269.415 129.436C285.209 129.282 294.087 89.017 294.852 84.0252C307.361 85.1265 327.205 81.414 337.679 75.0411C333.195 79.8326 327.568 85.7802 322.742 89.383C338.503 92.387 354.864 81.8237 368.139 75.0288C363.87 83.6805 357.343 88.3991 349.424 91.749C352.158 91.167 356.165 90.1474 362.378 88.4148C360.398 90.9599 358.155 92.706 355.686 93.9327C364.618 96.5584 378.921 94.396 397.892 82.0296C395.896 85.0918 393.529 88.6913 391.167 91.7468C396.928 91.0472 412.427 92.1799 413.491 85.7443Z" fill="url(#paint0_linear_523_241)"/>
<path fill-rule="evenodd" clip-rule="evenodd" d="M394.678 277.459L395.71 272.123L396.534 264.071C388.795 272.202 382.544 264.279 375.915 268.015C365.49 273.891 364.412 267.872 352.312 267.622C339.721 267.361 338.326 268.7 326.484 264.789C320.346 262.761 321.284 262.551 317.872 258.936C314.482 260.153 311.741 263.072 311.113 267.891C316.339 268.153 313.506 268.412 316.537 265.276C322.104 265.967 319.536 266.898 326.163 268.301C333.606 269.876 341.18 271.389 348.681 272.725C360.734 274.868 361.502 278.126 370.331 276.201C373.909 275.42 376.234 274.46 381.119 273.91C382.986 273.699 384.815 273.522 386.665 273.014C389.15 272.332 390.115 271.931 392.849 271.482L392.503 277.384L394.678 277.459Z" fill="url(#paint1_linear_523_241)"/>
<path fill-rule="evenodd" clip-rule="evenodd" d="M329.684 277.204C333.815 278.767 341.274 283.778 344.635 286.958C350.438 292.707 372.785 293.178 378.985 288.442C382.057 285.525 385.33 282.093 388.28 279.015C384.357 281.129 380.418 285.389 376.641 286.24C373.203 287.015 362.843 285.579 358.591 285.331C351.299 284.903 349.158 285.046 343.052 282.077C340.122 280.651 332.395 277.036 329.684 277.204Z" fill="url(#paint2_linear_523_241)"/>
<path fill-rule="evenodd" clip-rule="evenodd" d="M285.706 246.995C285.999 254.201 287.636 262.627 289.508 268.548C290.898 256.541 289.238 249.344 293.883 244.344C295.84 242.236 296.462 241.261 298.092 238.859C295.534 239.956 296.327 240.198 292.105 243.336C289.552 245.233 288.071 245.714 285.706 246.995Z" fill="url(#paint3_linear_523_241)"/>
<path fill-rule="evenodd" clip-rule="evenodd" d="M489.166 247.254C487.919 248.1 478.618 245.503 485.791 252.376C486.082 252.654 488.853 255.69 489.89 258.671C491.578 263.526 490.723 265.753 492.314 272.857C492.321 272.887 499.071 288.549 499.071 290.638C499.071 293.834 498.241 297.406 496.563 299.973C495.958 300.899 494.784 307.413 491.784 311.291C490.949 312.371 490.104 314.286 491.361 314.604C493.046 315.03 499.799 315.562 500.697 313.402C504.628 313.18 506.347 306.132 507.865 303.325C511.71 296.219 510.352 276.88 510.585 268.621C510.697 264.684 502.629 253.667 498.589 252.788C497.554 252.561 490.13 246.601 489.166 247.254Z" fill="#111111"/>
<path d="M269.023 175.943C267.478 175.486 266.154 172.721 266.065 169.766C265.976 166.811 267.157 164.782 268.7 165.237C276.743 167.575 284.788 169.912 292.869 171.97C301.195 174.091 309.911 176.026 319.408 177.596C329.103 179.199 339.716 180.426 350.382 181.149C360.511 181.837 370.587 182.056 379.852 181.692C398.891 180.947 414.842 177.737 430.792 174.529L430.832 174.523C432.31 174.268 433.873 176.474 434.323 179.452C434.769 182.411 433.948 185.017 432.487 185.299C416.477 188.523 400.465 191.744 381.126 192.503C371.666 192.873 361.489 192.656 351.343 191.969C340.72 191.249 330.014 190.001 320.105 188.364C310.464 186.772 301.669 184.819 293.302 182.689C284.691 180.495 276.856 178.218 269.023 175.943Z" fill="#1FB6EA"/>
<path d="M268.902 171.927C268.517 171.814 268.185 171.122 268.163 170.385C268.141 169.645 268.436 169.136 268.821 169.251C276.787 171.566 284.754 173.881 293.032 175.991C301.368 178.112 310.112 180.054 319.669 181.634C329.448 183.249 340.096 184.487 350.743 185.207C360.881 185.895 370.995 186.112 380.33 185.746C399.482 184.995 415.456 181.783 431.428 178.568L431.443 178.566C431.812 178.501 432.204 179.054 432.316 179.798C432.428 180.541 432.22 181.195 431.852 181.26C415.864 184.477 399.875 187.696 380.649 188.449C371.261 188.818 361.121 188.599 350.983 187.912C340.342 187.192 329.671 185.952 319.845 184.327C310.264 182.744 301.498 180.798 293.141 178.669C284.726 176.524 276.813 174.227 268.902 171.927Z" fill="#FEFEFE"/>
<defs>
<linearGradient id="paint0_linear_523_241" x1="295.999" y1="0" x2="295.999" y2="685" gradientUnits="userSpaceOnUse">
<stop offset="0.305" stop-color="#1FB6EA"/>
<stop offset="1" stop-color="#116784"/>
</linearGradient>
<linearGradient id="paint1_linear_523_241" x1="353.823" y1="258.936" x2="353.823" y2="277.459" gradientUnits="userSpaceOnUse">
<stop offset="0.305" stop-color="#1FB6EA"/>
<stop offset="1" stop-color="#116784"/>
</linearGradient>
<linearGradient id="paint2_linear_523_241" x1="358.982" y1="277.198" x2="358.982" y2="291.666" gradientUnits="userSpaceOnUse">
<stop offset="0.305" stop-color="#1FB6EA"/>
<stop offset="1" stop-color="#116784"/>
</linearGradient>
<linearGradient id="paint3_linear_523_241" x1="291.899" y1="238.859" x2="291.899" y2="268.548" gradientUnits="userSpaceOnUse">
<stop offset="0.305" stop-color="#1FB6EA"/>
<stop offset="1" stop-color="#116784"/>
</linearGradient>
</defs>
</svg>
