<svg width="128" height="128" viewBox="0 0 128 128" fill="none" xmlns="http://www.w3.org/2000/svg">
<circle cx="64" cy="64" r="64" fill="#101010"/>
<path d="M95.5558 27.0039H32.001V90.5682H95.5558V27.0039Z" fill="#FEFEFE"/>
<path fill-rule="evenodd" clip-rule="evenodd" d="M54.4297 27C54.8852 28.402 55.3287 29.8122 55.6914 30.8075C57.2757 30.1734 59.1496 29.8137 61.034 29.9486C62.4296 30.0486 63.6868 30.4081 64.8072 30.9573C66.9928 32.0285 68.5469 33.6048 69.3211 35.8783C69.8663 37.4794 69.7189 37.9685 69.9079 38.82C69.9746 39.1206 70.1865 39.1717 70.3005 39.5973C70.4947 39.5209 70.4213 39.5423 70.6169 39.4343C70.7596 40.1358 71.3435 41.5361 71.1482 42.1705C72.4267 42.2185 72.3701 42.7721 72.4302 43.96C72.4767 44.8812 72.4459 45.6349 72.4816 46.5557C72.5133 47.3704 72.2208 47.3293 72.1539 47.99C71.968 48.2979 71.9901 48.5935 71.8045 48.9083C70.5497 51.0364 71.1947 49.9381 70.44 50.5439C70.4678 51.5534 70.9831 53.9474 71.2648 54.9115C71.346 54.9591 71.2359 54.9237 71.4246 54.989L71.8562 55.1108C72.1808 55.2626 72.4616 56.0574 72.6718 56.5119C72.7358 56.6502 73.1095 57.4898 73.1574 57.5517C73.5447 58.0545 74.0187 57.4338 74.5574 58.2316L75.2519 59.2708C75.8046 60.0669 76.2215 60.9348 76.8241 61.2337L79.1078 62.4157C81.2362 63.5032 83.2521 64.4507 85.5042 65.31C87.0279 65.8913 91.4307 67.2042 92.3699 67.8039C94.3807 69.0887 93.9712 71.3814 94.5511 72.6262C94.7178 72.9838 95.3426 73.9467 95.583 74.1188L95.5635 27H54.4297Z" fill="#E53A24"/>
<path fill-rule="evenodd" clip-rule="evenodd" d="M54.4297 27C54.8852 28.402 55.3287 29.8122 55.6914 30.8075C54.9038 31.1227 54.1877 31.5057 53.5773 31.9292C52.1648 32.9095 51.0038 34.1755 50.403 35.8247C49.8604 37.3141 50.2713 36.3497 49.3837 37.233C49.5179 37.4111 49.8614 37.5635 50.0769 37.6535C49.9022 38.1051 49.2153 38.5905 49.1273 38.9328L49.7497 39.0416L49.2877 40.0079C49.3004 40.0174 49.3255 40.0159 49.333 40.0404C49.3401 40.0634 49.3703 40.0666 49.3794 40.072C49.3971 40.0824 49.4786 40.1253 49.4994 40.1363L49.5776 41.061L49.9062 41.1396C50.578 44.8733 49.5582 43.4253 49.5558 45.3441C49.5546 46.3249 50.4966 48.9627 50.5252 49.4593C50.536 49.6482 50.1765 50.0122 50.0543 50.1739C49.5496 50.8418 49.2892 50.8496 48.6659 51.6225C48.4851 51.8467 48.3152 51.7701 48.0973 51.9612L45.4835 54.394C45.4737 56.7308 45.2737 57.2047 44.8407 58.8115C44.6554 59.4991 44.5999 60.9919 44.2154 61.9467C44.0363 62.3909 43.7194 63.2621 43.688 63.5632C43.6399 64.0245 44.2656 64.7478 44.3814 65.4504C44.69 67.3219 44.5141 69.7212 44.5196 71.6913C44.521 72.1951 43.7317 74.0036 43.4546 74.5643C43.2242 75.0303 43.2089 74.5316 42.9798 74.92C42.8246 75.183 42.6134 75.6961 42.4643 76.0016C41.1476 78.6974 40.0259 80.643 38.1868 82.8859L36.0714 85.5556C35.8303 85.9022 35.6312 86.1598 35.4097 86.4871C35.1574 86.8605 34.1183 89.0603 33.4406 90.5643H32.0006L32 27H54.4297ZM54.5592 68.2599C54.5014 67.9016 55.3075 65.0135 55.4807 64.4779C55.8195 63.4296 56.1873 62.5318 56.8031 61.6378C56.8559 61.561 56.8741 61.5165 56.9124 61.4702C57.0685 61.281 56.9224 61.4227 57.0788 61.3412C57.2249 61.507 57.3238 61.6912 57.4579 61.8808C57.9083 62.5176 57.8048 62.3146 58.2173 62.7852C58.3457 62.9317 58.4887 62.9963 58.6536 63.1615C58.7238 63.6948 58.8128 64.4401 58.7314 64.9641C58.0494 65.7611 57.873 66.7686 56.791 67.2897C56.5257 67.4176 55.1737 67.6685 54.8497 68.0697C54.6359 68.3342 54.8554 68.1737 54.5592 68.2599ZM51.8887 64.2898C51.1643 64.4848 49.9352 63.4101 49.6255 63.0865L49.8011 62.4614C50.4851 62.8053 51.2785 62.7255 51.3723 61.9142C51.6227 59.7465 52.7179 60.1577 51.317 58.3163C51.1324 58.0738 50.9602 57.9194 50.569 57.8198C49.6458 57.5847 49.7681 57.8329 49.7192 57.3716C50.4041 57.4138 51.0575 57.569 51.8098 57.6175C52.1157 57.9323 52.4119 58.2482 52.691 58.6059C53.0762 59.0999 53.621 58.6705 54.1858 59.0139C54.1139 59.6949 53.3133 61.4238 53.1165 62.1153C52.9694 62.6327 52.4045 63.5446 52.0797 64.0544L51.8887 64.2898ZM51.5935 53.2611C51.8326 53.0361 51.7794 52.3165 51.962 52.0577C52.1154 51.8405 51.8262 51.642 52.0026 51.4659C52.5091 52.8372 54.3537 56.2442 54.6413 57.1368C54.0287 56.8022 53.5785 56.4394 52.2099 55.5532C51.2251 54.9156 49.3245 54.436 49.046 54.2677L50.5214 54.6282L51.5935 53.2611Z" fill="#1FB6EA"/>
<path fill-rule="evenodd" clip-rule="evenodd" d="M54.7795 59.8857C55.033 60.206 55.7797 60.9882 56.1826 61.2043C56.1826 61.2043 56.1886 61.1709 56.1276 61.3694C55.7994 62.4187 55.0546 63.1184 54.465 62.9337C53.8736 62.749 53.5041 61.8194 53.9875 60.7013C54.4689 59.5851 54.6027 59.6576 54.7795 59.8857ZM61.886 53.552C62.62 54.0812 64.1873 54.7021 64.4705 55.5535C64.614 55.9851 64.2504 56.5125 64.1144 56.9303C64.082 57.0296 64.0099 57.0549 64.0111 57.0346C64.0156 56.9667 64.2241 56.3924 64.2287 56.3578C64.3062 55.7631 64.2831 55.568 63.6569 55.0807C63.2686 54.7785 62.8597 54.3655 62.4337 54.0922C62.2755 53.9907 62.1179 53.8908 61.9576 53.7929C61.8317 53.7162 61.4174 53.3749 61.7223 53.4863C61.7643 53.5016 61.85 53.526 61.886 53.552ZM49.4585 54.2472L50.1446 54.3675C50.257 54.282 50.3622 54.1934 50.458 54.0961C50.645 53.9074 51.4586 52.8274 51.5193 52.1642C51.4048 52.2799 51.2654 52.4164 51.0396 52.6281L49.4585 54.2472ZM52.7154 43.7574C54.7038 43.7069 54.4909 44.0775 56.5549 43.7315C57.5578 43.5634 58.1402 43.4723 59.0951 43.2546C60.3198 42.9755 60.4968 42.8533 61.4947 42.5223C63.7144 41.7858 63.3151 41.7067 61.3965 42.2742C59.0003 42.9831 57.3466 43.7288 54.73 43.6355C54.2383 43.618 53.754 43.5684 53.2652 43.5166C52.9386 43.4819 51.7444 43.5295 52.4351 43.743C52.5303 43.7724 52.6164 43.7598 52.7154 43.7574ZM53.702 44.7842C55.2787 44.7723 55.6175 45.1848 57.2582 44.9396C58.0554 44.8204 58.1309 44.7426 58.6943 44.5731C59.6477 44.286 59.8821 44.1767 60.6775 43.9282C62.447 43.3755 62.1317 43.3073 60.6031 43.7303C58.694 44.2585 57.373 44.8265 55.3004 44.7159C54.9109 44.6951 54.5277 44.6491 54.1411 44.6012C53.8829 44.5692 52.9355 44.5901 53.4801 44.7691C53.5551 44.7936 53.6236 44.7849 53.702 44.7842ZM52.0864 52.9997C51.932 53.4474 51.6827 53.7636 51.411 54.167C51.2211 54.3885 51.1767 54.4172 50.8357 54.7471C51.4815 54.9416 52.1999 55.1909 52.6768 55.4993C53.1287 55.9139 52.7318 55.3027 52.4587 54.446C52.3039 53.9591 52.1753 53.4657 52.0864 52.9997ZM70.792 41.2438C70.7782 40.9194 70.5286 40.3653 70.4775 40.4066C70.177 40.6621 69.8448 41.0472 67.9758 42.4956L67.7519 43.4821C67.9365 43.3759 70.8096 41.6427 70.792 41.2438ZM72.1657 73.0545C72.1518 73.1371 72.1518 73.2255 72.0496 73.3139C71.9927 73.3611 71.8728 73.424 71.7687 73.4121C71.7294 73.4063 71.6548 73.3886 71.6251 73.3728C71.2498 73.1882 71.4248 72.6144 71.8218 72.6596C72.0064 72.6792 72.1441 72.8069 72.1657 72.9759V73.0545ZM71.1162 73.2215V73.5832H72.9438V73.8171H70.7409C70.6211 73.8171 70.5149 73.8171 70.4147 73.8288C70.2869 73.8425 70.222 73.8189 70.1002 73.8504C69.5598 73.99 69.3142 74.5912 69.3142 75.0885V75.2693C69.3142 76.0573 69.884 76.8768 70.7016 76.8768H70.792C70.792 76.7668 70.8136 76.6529 70.8273 76.5625C70.8666 76.2854 70.9218 75.9473 71.0377 75.7233C71.2047 75.401 71.5623 75.283 72.036 75.283C72.5155 75.283 73.274 75.3755 73.673 75.2084C73.9815 75.0786 74.0817 74.5932 74.1289 74.2769C74.18 73.9211 74.1801 73.6676 74.1485 73.3119C74.0993 72.7401 73.95 72.4787 73.3842 72.3274C72.7886 72.1703 71.8433 72.2606 71.3579 72.5318C71.3187 72.5534 71.191 72.628 71.1731 72.6576C71.13 72.7401 71.1162 73.0841 71.1162 73.2215ZM73.1679 77.8889C73.1818 77.8064 73.1837 77.718 73.2859 77.6296C73.3409 77.5823 73.4608 77.5194 73.5649 77.5313C73.6042 77.5352 73.6808 77.5548 73.7084 77.5686C74.0837 77.7554 73.9088 78.3272 73.5118 78.2839C73.3271 78.2642 73.1896 78.1364 73.1679 77.9656V77.8889ZM74.2173 77.7219V77.3603H72.3915V77.1265H74.5946C74.7126 77.1265 74.8187 77.1265 74.9208 77.1145C75.0486 77.1009 75.1115 77.1245 75.2352 77.093C75.7738 76.9535 76.0194 76.3522 76.0194 75.8549V75.6741C76.0194 74.8861 75.4495 74.0666 74.6319 74.0666H74.5416C74.5416 74.1767 74.52 74.2907 74.5081 74.381C74.4669 74.6561 74.412 74.9962 74.2959 75.2201C74.1289 75.5425 73.7731 75.6604 73.2976 75.6604C72.8181 75.6604 72.0615 75.566 71.6606 75.735C71.3521 75.8648 71.2519 76.3502 71.2066 76.6645C71.1555 77.0204 71.1555 77.2758 71.185 77.6315C71.2341 78.2034 71.3835 78.4647 71.9514 78.614C72.5449 78.7732 73.492 78.6828 73.9755 78.4116C74.015 78.3901 74.1426 78.3153 74.1603 78.2839C74.2036 78.2034 74.2173 77.8594 74.2173 77.7219ZM43.3401 76.1005C44.9555 77.6 44.4778 80.4889 45.2757 80.652C45.4449 80.6855 46.4569 80.6638 46.7693 80.3847C47.463 79.7717 48.2628 78.9934 49.2554 78.0186C50.1271 77.1614 51.014 76.4585 51.463 75.5766C51.4957 75.5097 51.496 75.5231 51.5643 75.3559C51.6206 75.7763 51.5721 76.4953 51.4667 77.1537C51.1827 79.9721 50.0774 85.4719 48.8733 90.5668H52.2486C52.8657 85.5744 56.2132 75.6701 59.2699 71.9717C59.209 72.9602 57.5582 76.9319 56.7309 80.1843C55.7574 84.0085 55.2292 87.5085 54.6815 90.5668H58.3396C59.0341 84.4825 60.6119 79.0552 61.6814 73.1723C62.5028 72.5966 63.0826 71.5944 63.9628 72.1976C64.1536 72.3294 64.5761 72.7637 64.6802 72.9464L63.2849 77.0577C62.0166 80.5678 60.8351 86.6576 60.1336 90.5668H79.5427C80.3128 83.8611 81.4548 76.6328 82.1961 75.5935C82.0192 76.3718 81.294 81.676 81.0719 82.9396C80.8127 84.4066 80.4652 87.8144 80.2571 90.5668H95.5544L95.5824 74.0399C95.3428 73.869 94.7164 72.9857 94.5512 72.628C93.9716 71.3841 94.3804 69.0907 92.37 67.8074C91.4306 67.206 87.0265 65.8932 85.5034 65.3116C83.2513 64.4528 81.2351 63.5056 79.1069 62.4187L76.8232 61.2358C76.1933 60.9229 75.0574 58.9829 74.5574 58.2349C74.0188 57.4371 73.5433 58.0561 73.1561 57.555C73.1089 57.4921 72.7356 56.6529 72.6707 56.5153C72.4605 56.0594 72.1794 55.2655 71.8552 55.1141C71.6505 55.0562 71.4455 55.0175 71.2637 54.9138C70.9826 53.9508 70.6092 51.451 70.5817 50.4408C72.3012 50.5313 72.0399 49.0652 72.4703 47.8743C72.8043 47.3201 72.9537 44.5826 72.9184 43.9027C72.8593 42.7157 72.5686 42.1163 71.2892 42.0671C71.4837 41.4324 70.9001 40.0332 70.7586 39.3315C70.5621 39.4397 70.6347 39.418 70.4423 39.4946C69.3652 35.5073 69.1844 32.9309 64.9474 30.8537C61.3648 29.0969 56.0627 29.9045 52.8633 32.1251C50.7095 33.6206 50.1397 35.0258 49.5874 36.5959C49.5146 36.8064 49.2435 37.6926 49.1649 37.9087C49.3006 38.0856 49.8409 37.5668 50.0572 37.6553C49.8822 38.1073 49.1944 38.5927 49.1079 38.9346L49.7289 39.0447L49.267 40.0096C49.3433 40.064 49.3969 40.0943 49.4793 40.1393L49.5579 41.0629L49.8861 41.1415C50.5582 44.8755 49.5579 43.427 49.556 45.347C49.554 46.3277 50.4954 48.965 50.5249 49.4622C50.5347 49.651 50.1751 50.0145 50.0531 50.1756C49.8938 50.3878 48.4554 51.6475 48.0958 51.9639C46.6514 53.3081 45.885 53.5518 45.4821 54.3969C45.2069 54.9766 45.1735 55.9434 44.9298 57.3231C44.6134 59.127 44.356 60.7032 43.8962 62.8119C43.4422 63.94 43.7409 64.3132 44.3816 65.4532C44.6901 67.324 44.5132 69.7234 44.5192 71.6947C44.521 72.1976 43.7311 74.0056 43.4541 74.5657C43.224 75.0335 43.2084 74.5343 42.9784 74.9234C42.8231 75.1848 42.6129 75.6977 42.4636 76.0043C41.1469 78.7006 40.0247 80.6462 38.1853 82.8884L36.0707 85.5571C35.8291 85.905 35.6304 86.1625 35.4084 86.4907C35.1563 86.8628 34.1176 89.0624 33.4404 90.5668H48.1261C48.8888 87.8504 49.7866 84.2657 50.0531 82.7234C50.1653 82.0732 50.5153 80.371 50.8418 78.764L47.4158 82.5681C46.0931 83.0202 44.9043 82.7802 44.3777 82.5012C43.1749 81.8646 44.1948 78.901 43.5051 77.0086C43.2929 76.4287 42.888 75.9297 43.1886 75.2889C43.3833 75.5503 43.3537 75.6269 43.3401 76.1005ZM58.2539 69.9278C57.9022 68.8313 58.0692 67.2414 58.0731 66.7167C58.0712 66.2786 58.7316 64.9657 59.219 64.8616C59.3957 65.9561 60.2506 66.6519 60.455 67.047C60.2546 67.2513 58.4721 69.814 58.2539 69.9278ZM54.7013 68.1348C54.6134 68.2135 54.5629 68.2621 54.5594 68.2634C54.5003 67.9036 55.3061 65.0169 55.4811 64.4804C55.8191 63.4328 56.108 62.6507 56.7232 61.7565C57.1102 62.411 58.1656 63.2462 58.7059 63.6294C58.7688 64.1698 58.7414 63.9596 58.763 64.4862C58.3422 64.8363 55.4257 67.4864 54.7013 68.1348ZM54.7104 68.2024C54.8981 69.2135 52.8284 74.2441 51.8296 74.3615C51.2696 74.4281 51.0869 74.7151 50.8019 75.8313L50.253 76.3221C50.2179 76.3517 50.2237 76.35 50.2486 76.3187C50.6563 75.8054 50.2327 74.3523 50.747 74.2789C53.2164 73.9227 54.6053 68.362 54.7104 68.2024ZM51.8886 64.2916C51.1635 64.4882 50.0217 63.1008 49.7131 62.7765L49.7997 62.4639C50.4855 62.8079 51.2776 62.7273 51.3718 61.9177C51.6215 59.7481 52.718 60.1609 51.3167 58.3195C51.1321 58.0757 50.9592 57.9226 50.5679 57.8222C49.6444 57.5863 49.7682 57.836 49.7191 57.3741C50.4031 57.4154 51.0573 57.5706 51.81 57.6199C52.1147 57.9342 52.4115 58.2507 52.6904 58.6083C53.0756 59.1016 53.3685 58.9089 53.9149 59.08C53.842 59.7618 53.3135 61.4264 53.1169 62.1181C52.9695 62.6351 52.4036 63.5468 52.0794 64.0577L51.8886 64.2916ZM45.4978 65.2448C45.0204 64.9381 43.2575 64.8851 43.9965 62.9101C44.4287 61.7565 44.3679 63.3128 44.8946 59.7403C45.3681 56.5291 45.49 58.2094 46.5452 55.1672C46.6671 54.8135 46.8421 54.6837 47.2233 54.5737C48.0299 54.3428 49.3838 54.7794 50.3443 55.1383L50.3552 55.1425L50.3579 55.1435L50.3715 55.1485L50.3849 55.1536L50.3984 55.1587L50.4113 55.1636L50.4117 55.1637C50.6339 55.2475 50.833 55.326 50.9964 55.3892C51.5172 55.5917 53.1149 56.077 53.3606 56.5487C53.8144 57.4252 53.6102 56.8926 54.1565 57.4292C54.6243 57.891 54.3864 58.6555 53.9049 58.5709C52.8752 58.6731 52.716 57.7043 52.2483 57.093C52.2307 57.1009 52.3956 56.8062 52.3858 56.8121C51.4053 57.333 50.9984 56.5468 50.5839 56.4211C50.1514 56.3995 49.9883 56.6117 48.8957 56.4937C48.4652 56.4249 47.8384 56.1105 47.7086 56.7748C47.4394 58.1642 46.5944 59.8405 46.3447 61.336C46.728 60.5066 46.7812 60.375 47.2133 59.5241C48.0074 57.9558 47.7755 57.7337 48.705 57.9459C49.2846 58.0501 49.8349 58.1563 50.4344 58.2309C51.0711 58.3117 51.2127 58.6653 51.4505 59.1546C51.7647 59.8031 51.5035 59.9938 51.2737 60.6186C51.1595 60.9332 50.8588 61.8881 50.6899 62.1161C49.9942 62.1122 49.9332 61.4363 49.9451 61.1553C49.9627 60.7583 50.2752 60.4457 50.6212 60.0252C50.3165 60.1216 50.1751 60.2728 49.839 60.1431C49.6896 60.0842 49.5677 59.923 49.4969 59.9014C49.4676 59.8916 49.3006 59.9053 49.1393 59.8582L49.047 60.2611C48.4299 60.4064 48.257 60.094 47.8364 59.8778C47.8305 60.4909 48.1214 60.6677 48.6344 60.7994C48.3828 61.6524 47.5613 62.6154 47.3215 63.2069L48.1804 63.8436C48.2628 63.9046 48.7679 64.3546 48.6618 64.8537C48.4987 65.6181 48.5046 65.9188 48.0682 66.2569L48.705 66.1941L49.6366 66.8582C50.0845 66.9231 49.8803 67.6915 49.8508 68.3872C49.8349 68.7409 49.774 69.2441 49.8116 69.525C50.0336 69.3148 50.5032 68.6133 50.5759 68.509C51.4563 67.2316 51.7315 66.7854 51.4209 66.0092C51.2225 65.512 49.7878 64.9676 49.3122 64.4862C49.562 64.49 49.8624 64.1953 50.061 64.2033C51.252 64.2582 51.3562 64.8478 52.3545 65.1621C52.6589 64.4037 53.1463 63.2717 53.8204 63.1164C53.9835 63.2167 54.0524 63.2875 54.2116 63.3975C54.3451 63.4879 54.4316 63.5174 54.577 63.649C54.6066 64.1718 54.5554 64.8792 54.2351 65.172C53.9109 65.1269 53.4628 64.7928 53.2072 64.6493C53.9639 65.6025 54.7009 66.0407 54.1899 66.9329C54.1152 67.4203 52.7789 69.2931 52.4527 69.7687C52.0263 70.3995 51.8219 71.0146 51.4269 71.6553C51.2775 71.8969 51.2225 72.068 50.8902 72.1053C50.6015 71.6493 50.004 70.0496 49.7387 69.7668C49.4538 70.9871 49.2474 73.8367 48.2943 74.212C47.3844 74.5736 44.8827 71.8321 44.8827 71.8301C44.8375 70.71 44.7943 66.5673 45.089 65.6299L45.4978 65.2448ZM70.7526 57.3428C70.279 57.8459 70.0746 58.3213 69.4084 58.856C69.1509 59.0623 68.8701 59.1153 68.4651 59.0386C68.3944 58.6849 69.9233 56.2088 70.0865 55.4756C69.8724 55.6545 69.7543 55.8805 69.5814 56.0968L67.0149 59.1036C66.4843 59.7717 64.9455 61.5797 64.2753 61.8547C63.0294 62.3637 62.3024 62.2262 61.1232 62.1967C60.1877 62.0651 59.5706 62.0337 59.2641 62.578C58.989 62.4542 58.0495 61.4755 57.8218 61.2376C57.2791 60.6697 58.0692 60.2336 58.5762 60.0173C60.5808 59.1625 62.3534 60.2256 62.1844 58.6555C62.1489 58.3234 61.241 58.2133 61.1015 58.2271C60.404 58.286 59.2915 58.6986 57.9572 58.5178H57.5858C57.0041 58.4315 56.9117 58.5199 56.7682 58.3117C57.1436 57.7534 57.5328 57.6256 58.3777 57.5883C60.5945 57.4921 59.5392 57.5137 60.6751 57.266C61.3786 57.1795 61.524 57.384 62.1235 56.9732C62.2846 56.9183 62.7091 56.7118 62.8663 56.6725C63.1866 56.592 63.6053 56.8926 63.4992 56.6648C63.4579 56.6312 63.1296 56.4682 63.0531 56.3975C62.943 56.2913 62.9921 56.1166 62.8762 56.2127C62.772 56.2972 62.7524 56.4525 62.6129 56.533C62.1727 56.7217 61.972 56.8456 60.7518 56.6333C59.9008 56.6529 59.6198 56.9654 58.7 56.9183C57.9946 56.8809 58.0575 56.7118 57.3578 56.9969C56.7447 57.2445 55.8721 57.0853 55.3827 56.1754C55.2611 55.5484 55.8231 54.5463 56.2042 54.1198C56.7212 54.5894 57.238 55.061 57.7528 55.5307L58.6724 56.0182C58.93 56.2461 58.8671 56.3581 59.158 56.4543C59.716 56.2187 59.2838 55.4325 59.3585 54.8449L59.8517 54.3498C60.2506 54.3007 60.3135 54.4381 60.7675 54.3045C61.1467 54.1924 61.1133 54.1178 61.1408 53.6658C60.3332 53.3258 59.5235 53.7012 58.7708 53.8997C57.965 54.1119 57.9907 53.8742 57.4816 53.8427C57.1652 53.6992 57.0297 54.1139 56.6818 53.8662C56.55 53.772 56.3949 53.5125 56.4793 53.1647C56.5521 52.8718 56.7153 52.864 56.847 52.6734C57.3127 51.9953 57.0728 50.8869 57.4718 50.6806C58.7374 50.0282 59.5136 50.9479 60.0876 51.0658C62.265 51.5158 64.5013 50.325 66.164 49.1635L68.5733 47.324C68.8189 47.5305 69.0586 47.9628 69.1491 48.2438L69.2827 48.8826L69.662 48.8687C69.662 48.2125 69.6836 46.7091 70.0529 46.312C70.2555 46.426 70.2063 46.4476 70.4853 46.5144C70.7791 46.1368 70.7964 46.0748 71.301 46.0781C71.3403 46.5576 71.2323 46.829 71.179 47.2454C72.1186 46.2178 71.7234 45.9426 71.4051 45.1997C71.0828 45.1565 71.0592 45.1683 70.8392 45.003C70.8667 44.6947 71.2793 44.1189 71.4504 43.8732C71.698 44.1169 71.8767 44.6768 72.0163 44.8636C72.2002 45.1073 72.2498 44.6821 72.3092 44.504C72.49 45.2567 72.537 46.9015 72.2266 47.562C71.7413 48.5936 71.4837 50.3328 69.9882 49.8278C69.717 49.6901 69.8172 49.4563 69.6128 49.2675C69.9706 51.8597 71.189 54.6405 70.7999 57.0736C71.1755 56.5311 71.8029 55.9277 71.4307 55.3519C72.1086 55.5151 72.258 56.4858 72.7769 57.4489C73.5196 58.8264 71.8119 61.0883 71.0377 62.2872C69.6501 64.4351 69.2237 64.9185 67.907 67.2101L65.2698 71.2738C65.0378 71.1148 64.802 70.7119 64.6645 70.4899L62.6226 67.3318C62.7404 67.0645 62.7404 67.1352 62.9764 66.9251C67.0011 63.1971 68.5299 61.1925 70.7526 57.3428ZM45.7218 56.7886C45.6806 55.7686 45.7572 54.6975 46.333 54.0844L48.202 52.2784C48.5223 51.9953 50.1279 50.6081 50.1318 50.6021C50.6742 49.8002 50.5995 49.8631 50.908 49.9358C51.1398 50.5313 50.0375 51.9383 49.8134 52.1545C49.5344 52.4257 49.1807 52.6281 48.8033 52.8778C48.3768 53.1588 48.255 53.8191 47.917 54.1826C46.7496 54.161 46.6534 54.1315 46.4981 54.5463L46.1601 55.5171C46.0128 55.9533 45.8831 56.3975 45.7218 56.7886ZM50.6192 48.2771C50.4718 47.6759 50.2713 47.041 50.173 46.4359C53.265 47.1224 58.3166 46.5203 61.3786 45.752C64.7294 44.9128 67.5455 42.9082 67.6299 42.6154C67.6537 42.533 67.5808 43.5528 67.2212 43.8219C65.7403 44.9332 58.9177 47.6215 50.9692 46.7602L51.6724 49.4918C50.7685 49.2126 50.8333 49.1517 50.6192 48.2771ZM67.6948 43.9618C68.1311 43.7887 68.7325 43.1952 69.1294 43.093L69.5499 45.1389C69.1152 45.5131 68.6898 45.9339 68.2372 46.3199L67.6948 43.9618ZM64.3481 37.7063C64.6625 38.8069 65.5232 41.5778 67.7086 41.9473C67.7244 42.3796 66.9343 42.6292 66.6238 42.8296C63.6465 44.7536 59.1403 46.0075 55.6226 46.029C52.8123 46.0466 51.4505 45.7657 50.7547 45.3706C50.7744 44.1817 50.8 44.046 50.9826 42.9849C50.9277 42.2676 51.1675 40.5441 51.5762 39.9153C51.9604 39.9075 52.8967 39.919 53.8066 39.9141C53.5023 39.609 53.1901 39.2438 52.9263 38.9327C55.1978 40.0353 56.8099 40.0739 57.7608 39.6577C57.4703 39.5566 57.1977 39.3948 56.9432 39.1409C57.6545 39.2454 58.1119 39.302 58.4224 39.3281C57.4997 39.0685 56.7115 38.6376 56.1178 37.7398C57.6812 38.3056 59.6389 39.2453 61.3396 38.6913C60.7553 38.3603 60.0493 37.7809 59.4863 37.3133C60.734 37.8718 62.9804 38.0041 64.3481 37.7063Z" fill="#2B2A29"/>
<path d="M52.2904 49.0753C52.0758 49.0473 51.9246 48.8506 51.9525 48.6362C51.9806 48.4218 52.1772 48.2705 52.3917 48.2984C52.7403 48.3445 53.089 48.3908 53.4631 48.4253C53.8409 48.4602 54.2539 48.485 54.7377 48.4891C55.2314 48.4934 55.8085 48.4757 56.4135 48.4363C56.9837 48.3992 57.5693 48.3431 58.1218 48.2683C58.6871 48.192 59.2263 48.0948 59.7358 47.9857C60.2474 47.8761 60.7206 47.7564 61.1563 47.6346C61.5959 47.5115 62.0011 47.3856 62.3958 47.2524C62.7759 47.1241 63.1635 46.9819 63.575 46.8245C63.9988 46.6624 64.4162 46.4964 64.7871 46.3429C65.1697 46.1845 65.5234 46.0318 65.809 45.9008C66.3747 45.6413 66.6888 45.4583 67.002 45.2758L67.0016 45.275L67.0029 45.2744C67.1903 45.165 67.4309 45.2282 67.5403 45.4156C67.6496 45.6029 67.5865 45.8437 67.399 45.953L67.3977 45.9536H67.3961C67.0714 46.143 66.7463 46.3325 66.1346 46.6132C65.8359 46.7502 65.473 46.9071 65.0849 47.0677C64.6699 47.2395 64.2455 47.4089 63.8544 47.5585C63.4591 47.7097 63.0663 47.853 62.6446 47.9955C62.2373 48.1329 61.8189 48.263 61.365 48.39C60.9071 48.5181 60.417 48.6423 59.8986 48.7534C59.3783 48.8648 58.8207 48.965 58.2262 49.0453C57.6491 49.1233 57.045 49.1816 56.4626 49.2194C55.8532 49.259 55.2568 49.2767 54.7315 49.2721C54.2219 49.2678 53.7882 49.2419 53.3926 49.2053C52.9933 49.1684 52.6417 49.1218 52.2904 49.0753Z" fill="#1FB6EA"/>
<path d="M52.3284 48.7862C52.2748 48.7793 52.237 48.73 52.244 48.6765C52.2509 48.6229 52.3001 48.585 52.3537 48.5921C52.7033 48.6382 53.0528 48.6844 53.4367 48.72C53.8211 48.7556 54.2421 48.7808 54.7354 48.7851C55.2409 48.7894 55.8253 48.7716 56.4319 48.7321C57.0069 48.6948 57.5993 48.6379 58.161 48.562C58.7372 48.4841 59.2832 48.3858 59.7969 48.2757C60.311 48.1657 60.7906 48.0443 61.2345 47.9201C61.6795 47.7956 62.0897 47.6681 62.4891 47.5333C62.8851 47.3996 63.2746 47.257 63.6797 47.102C64.0915 46.9445 64.5116 46.7773 64.8989 46.617C65.2835 46.4578 65.6407 46.3034 65.9311 46.1701C66.5144 45.9026 66.8326 45.717 67.1503 45.532L67.1501 45.5318L67.1515 45.5309C67.1983 45.5037 67.2585 45.5195 67.2858 45.5663C67.3131 45.6132 67.2973 45.6734 67.2504 45.7008L67.2488 45.7014C66.9282 45.8882 66.6073 46.0753 66.0125 46.3483C65.7187 46.483 65.3592 46.6384 64.9733 46.7981C64.5747 46.9631 64.1528 47.1312 63.7497 47.2854C63.3481 47.439 62.9571 47.5819 62.5513 47.719C62.1487 47.8549 61.7353 47.9835 61.2868 48.1089C60.8372 48.2348 60.3534 48.3573 59.8376 48.4677C59.3214 48.5782 58.7708 48.6772 58.1871 48.7562C57.6193 48.8329 57.0222 48.8903 56.4443 48.9279C55.8365 48.9673 55.2472 48.9852 54.7338 48.9808C54.2338 48.9765 53.808 48.951 53.4191 48.9149C53.0293 48.8791 52.6788 48.8325 52.3284 48.7862Z" fill="#FEFEFE"/>
<path d="M32.0216 101.524L32.0039 100.176H33.7107L33.7281 101.602H33.4945L33.4799 100.399H32.24L32.2562 101.602H32.0226L32.0216 101.524ZM35.3252 100.176C35.3673 100.176 35.407 100.179 35.4439 100.186C35.5389 100.202 35.6162 100.24 35.6758 100.298C35.7353 100.356 35.7739 100.432 35.7918 100.526C35.7987 100.563 35.8026 100.603 35.803 100.647L35.8104 101.194C35.8115 101.266 35.8055 101.328 35.7922 101.38C35.7778 101.435 35.7549 101.479 35.7235 101.51C35.6921 101.542 35.6488 101.566 35.5933 101.581C35.5417 101.595 35.4798 101.602 35.4076 101.602H34.8912C34.7612 101.602 34.6562 101.594 34.5762 101.577C34.5334 101.568 34.4902 101.553 34.447 101.533C34.4045 101.513 34.3615 101.488 34.3184 101.458L34.317 101.457L34.3231 101.999L34.0928 102L34.0681 100.176H34.2708L34.2855 100.317L34.2902 100.314C34.3315 100.285 34.3716 100.262 34.4105 100.243C34.4514 100.224 34.4912 100.21 34.5297 100.201C34.5676 100.193 34.6117 100.186 34.6619 100.182C34.7114 100.178 34.767 100.176 34.8284 100.176H35.3252ZM35.5671 100.628C35.5666 100.58 35.5612 100.539 35.551 100.505C35.5428 100.478 35.532 100.458 35.5184 100.445C35.5054 100.432 35.4857 100.421 35.4596 100.413C35.427 100.404 35.3863 100.399 35.3375 100.399L34.8354 100.398C34.7514 100.398 34.6744 100.407 34.6048 100.426C34.5369 100.444 34.4764 100.471 34.4234 100.508L34.3068 100.59L34.3141 101.208L34.4228 101.284C34.4678 101.315 34.5244 101.339 34.5925 101.355C34.6651 101.372 34.7496 101.381 34.846 101.38L35.3687 101.38C35.4175 101.38 35.4574 101.376 35.4883 101.368C35.5141 101.362 35.5323 101.353 35.5427 101.342C35.5533 101.331 35.5616 101.313 35.5674 101.287C35.5745 101.255 35.5776 101.215 35.5766 101.167L35.5671 100.628ZM36.607 101.602C36.4558 101.602 36.337 101.56 36.2514 101.476C36.2075 101.433 36.1744 101.38 36.1524 101.318C36.132 101.26 36.1212 101.195 36.1201 101.121L36.1104 100.579C36.1092 100.507 36.1151 100.445 36.1279 100.395C36.1417 100.34 36.1641 100.297 36.1949 100.265C36.226 100.234 36.2691 100.211 36.324 100.197C36.3748 100.183 36.4367 100.176 36.5092 100.176H37.3538C37.5055 100.176 37.6242 100.218 37.7098 100.302C37.7536 100.345 37.7867 100.398 37.8087 100.46C37.8292 100.518 37.8399 100.583 37.841 100.656L37.8506 101.199C37.8519 101.271 37.8461 101.333 37.8334 101.383C37.8194 101.439 37.7971 101.482 37.7663 101.513C37.735 101.544 37.692 101.567 37.6372 101.582C37.5864 101.595 37.5246 101.602 37.4519 101.602H36.607ZM36.5917 101.38H37.4027C37.4532 101.38 37.4939 101.376 37.5248 101.368C37.5513 101.361 37.5702 101.352 37.5817 101.341C37.593 101.329 37.6019 101.31 37.6079 101.284C37.615 101.252 37.6182 101.211 37.617 101.162L37.6074 100.633C37.6069 100.585 37.6014 100.544 37.5908 100.51C37.582 100.483 37.5703 100.462 37.5555 100.448C37.5406 100.433 37.5195 100.422 37.4922 100.414C37.4594 100.404 37.4185 100.399 37.3695 100.399H36.5581C36.5086 100.399 36.468 100.403 36.4364 100.411C36.4099 100.417 36.391 100.426 36.3796 100.437C36.3682 100.449 36.3593 100.468 36.3532 100.494C36.3459 100.526 36.3428 100.566 36.344 100.616L36.3537 101.144C36.3542 101.193 36.3598 101.234 36.3704 101.268C36.3791 101.295 36.3909 101.316 36.4057 101.33C36.4209 101.345 36.4419 101.356 36.4689 101.365C36.5017 101.375 36.5427 101.38 36.5917 101.38ZM38.1882 101.524L38.1705 100.176H39.6101L39.6089 100.399H38.4066L38.4228 101.602H38.1892L38.1882 101.524ZM41.0742 100.176C41.1163 100.176 41.1559 100.179 41.1927 100.186C41.2877 100.202 41.3651 100.24 41.4247 100.298C41.4842 100.356 41.5228 100.432 41.5406 100.526C41.5477 100.563 41.5515 100.603 41.552 100.647L41.5592 101.194C41.5604 101.266 41.5544 101.328 41.5411 101.38C41.5268 101.435 41.5039 101.479 41.4724 101.51C41.4411 101.542 41.3977 101.566 41.3423 101.581C41.2906 101.595 41.2287 101.602 41.1565 101.602H40.6401C40.5101 101.602 40.405 101.594 40.3252 101.577C40.2823 101.568 40.2391 101.553 40.1959 101.533C40.1534 101.513 40.1105 101.488 40.0672 101.458L40.0659 101.457L40.0721 101.999L39.8417 102L39.817 100.176H40.0198L40.0343 100.317L40.0391 100.314C40.0805 100.285 40.1205 100.262 40.1593 100.243C40.2003 100.224 40.2402 100.21 40.2787 100.201C40.3166 100.193 40.3606 100.186 40.4108 100.182C40.4603 100.178 40.5159 100.176 40.5772 100.176H41.0742ZM41.3161 100.628C41.3155 100.58 41.3101 100.539 41.2999 100.505C41.2918 100.478 41.2809 100.458 41.2674 100.445C41.2543 100.432 41.2346 100.421 41.2084 100.413C41.1759 100.404 41.1352 100.399 41.0864 100.399L40.5843 100.398C40.5003 100.398 40.4233 100.407 40.3537 100.426C40.2858 100.444 40.2252 100.471 40.1723 100.508L40.0557 100.59L40.063 101.208L40.1716 101.284C40.2168 101.315 40.2734 101.339 40.3414 101.355C40.414 101.372 40.4985 101.381 40.5948 101.38L41.1176 101.38C41.1664 101.38 41.2062 101.376 41.2371 101.368C41.2629 101.362 41.2812 101.353 41.2916 101.342C41.3021 101.331 41.3104 101.313 41.3163 101.287C41.3234 101.255 41.3265 101.215 41.3255 101.167L41.3161 100.628ZM43.0916 100.177C43.4065 100.177 43.566 100.334 43.5692 100.649L43.5806 101.602H43.3786L43.3617 101.453L43.3271 101.476C43.2889 101.502 43.2524 101.523 43.2174 101.54C43.1812 101.558 43.1473 101.571 43.116 101.579C43.0843 101.587 43.0469 101.593 43.0038 101.597C42.9612 101.6 42.9125 101.602 42.8577 101.602H42.2713C42.1517 101.602 42.0547 101.566 41.9811 101.493C41.9437 101.456 41.9155 101.412 41.8968 101.362C41.8795 101.315 41.8707 101.263 41.8702 101.205L41.8711 101.085C41.8713 101.029 41.8772 100.98 41.8889 100.939C41.9014 100.894 41.9206 100.858 41.9466 100.832C41.9731 100.804 42.0085 100.784 42.0528 100.771C42.094 100.759 42.1426 100.753 42.1985 100.753H43.3358L43.334 100.624C43.3334 100.574 43.328 100.532 43.3182 100.499C43.3103 100.473 43.3001 100.454 43.2878 100.442C43.2757 100.43 43.2563 100.42 43.23 100.413C43.1972 100.403 43.1556 100.399 43.1055 100.399H42.3086C42.2732 100.399 42.2442 100.402 42.2219 100.408C42.2031 100.413 42.1893 100.42 42.1804 100.429C42.1716 100.438 42.1648 100.451 42.1601 100.47C42.1544 100.492 42.1519 100.521 42.1529 100.557C42.158 100.584 42.1545 100.663 42.1549 100.697H41.9208L41.9202 100.525C41.92 100.465 41.926 100.413 41.9383 100.37C41.9516 100.324 41.9724 100.286 42.0007 100.258C42.0289 100.23 42.0661 100.209 42.1123 100.195C42.1557 100.183 42.2068 100.176 42.2656 100.176L43.0916 100.177ZM43.1967 101.283L43.3416 101.183L43.3388 100.975H42.2436C42.2106 100.975 42.1836 100.978 42.1628 100.984C42.1454 100.989 42.1324 100.995 42.1243 101.004C42.1163 101.011 42.1102 101.024 42.1059 101.04C42.1006 101.061 42.0983 101.086 42.0994 101.117L42.1038 101.228C42.1047 101.262 42.1089 101.29 42.1164 101.313C42.1218 101.329 42.1289 101.342 42.1372 101.35C42.1456 101.358 42.1578 101.365 42.174 101.37C42.1957 101.376 42.223 101.38 42.2561 101.38H42.8537C42.9209 101.38 42.9832 101.372 43.0404 101.355C43.0976 101.339 43.1498 101.315 43.1967 101.283ZM43.9272 101.524L43.9095 100.176H44.0787L44.8841 101.049L45.6654 100.176H45.8649L45.8823 101.602H45.6487L45.6364 100.562L44.9674 101.306L44.8534 101.307L44.1477 100.548L44.1618 101.602H43.9283L43.9272 101.524ZM46.2396 101.524L46.222 100.176H46.3912L47.1966 101.049L47.9779 100.176H48.1774L48.1948 101.602H47.9612L47.9489 100.562L47.2799 101.306L47.1659 101.307L46.4602 100.548L46.4742 101.602H46.2407L46.2396 101.524ZM50.1123 100.176H50.2761L50.2934 101.602H50.0598L50.0472 100.526L48.7216 101.602H48.5531L48.5357 100.176H48.7693L48.7819 101.239L50.0915 100.176H50.1123ZM51.8906 100.176C51.9328 100.176 51.9723 100.179 52.0092 100.186C52.1042 100.202 52.1816 100.24 52.2412 100.298C52.3006 100.356 52.3393 100.432 52.3571 100.526C52.3642 100.563 52.3679 100.603 52.3685 100.647L52.3757 101.194C52.3769 101.266 52.3708 101.328 52.3575 101.38C52.3432 101.435 52.3203 101.479 52.2889 101.51C52.2576 101.542 52.2141 101.566 52.1588 101.581C52.1072 101.595 52.0452 101.602 51.973 101.602H51.4567C51.3266 101.602 51.2216 101.594 51.1417 101.577C51.0987 101.568 51.0555 101.553 51.0124 101.533C50.9699 101.513 50.927 101.488 50.8837 101.458L50.8824 101.457L50.8886 101.999L50.6582 102L50.6335 100.176H50.8363L50.8508 100.317L50.8556 100.314C50.897 100.285 50.9371 100.262 50.9758 100.243C51.0169 100.224 51.0566 100.21 51.0952 100.201C51.133 100.193 51.1771 100.186 51.2273 100.182C51.2769 100.178 51.3324 100.176 51.3937 100.176H51.8906ZM52.1326 100.628C52.132 100.58 52.1266 100.539 52.1165 100.505C52.1083 100.478 52.0973 100.458 52.0838 100.445C52.0708 100.432 52.0512 100.421 52.0249 100.413C51.9924 100.404 51.9517 100.399 51.9029 100.399L51.4008 100.398C51.3167 100.398 51.2398 100.407 51.1701 100.426C51.1023 100.444 51.0417 100.471 50.9888 100.508L50.8723 100.59L50.8796 101.208L50.9882 101.284C51.0333 101.315 51.0899 101.339 51.1578 101.355C51.2305 101.372 51.3151 101.381 51.4113 101.38L51.9341 101.38C51.9829 101.38 52.0227 101.376 52.0536 101.368C52.0794 101.362 52.0977 101.353 52.1081 101.342C52.1186 101.331 52.1269 101.313 52.1329 101.287C52.1399 101.255 52.143 101.215 52.142 101.167L52.1326 100.628ZM53.1723 101.602C53.0211 101.602 52.9024 101.56 52.8167 101.476C52.7729 101.433 52.7399 101.38 52.7178 101.318C52.6973 101.26 52.6866 101.195 52.6855 101.121L52.6759 100.579C52.6746 100.507 52.6805 100.445 52.6932 100.395C52.7072 100.34 52.7296 100.297 52.7604 100.265C52.7914 100.234 52.8344 100.211 52.8893 100.197C52.9403 100.183 53.0021 100.176 53.0747 100.176H53.9192C54.0709 100.176 54.1896 100.218 54.2753 100.302C54.3191 100.345 54.3521 100.398 54.3741 100.46C54.3945 100.518 54.4054 100.583 54.4065 100.656L54.4161 101.199C54.4173 101.271 54.4115 101.333 54.3987 101.383C54.3848 101.439 54.3624 101.482 54.3316 101.513C54.3003 101.544 54.2573 101.567 54.2026 101.582C54.1517 101.595 54.0899 101.602 54.0173 101.602H53.1723ZM53.1571 101.38H53.9681C54.0186 101.38 54.0592 101.376 54.0901 101.368C54.1166 101.361 54.1357 101.352 54.1471 101.341C54.1585 101.329 54.1672 101.31 54.1733 101.284C54.1805 101.252 54.1836 101.211 54.1825 101.162L54.1729 100.633C54.1723 100.585 54.1668 100.544 54.1561 100.51C54.1475 100.483 54.1356 100.462 54.1208 100.448C54.106 100.433 54.0848 100.422 54.0576 100.414C54.0248 100.404 53.9838 100.399 53.9349 100.399H53.1235C53.0739 100.399 53.0334 100.403 53.0018 100.411C52.9753 100.417 52.9563 100.426 52.9449 100.437C52.9335 100.449 52.9248 100.468 52.9186 100.494C52.9114 100.526 52.9083 100.566 52.9094 100.616L52.919 101.144C52.9196 101.193 52.9252 101.234 52.9358 101.268C52.9445 101.295 52.9563 101.316 52.9712 101.33C52.986 101.345 53.007 101.356 53.0343 101.365C53.0672 101.375 53.108 101.38 53.1571 101.38ZM56.058 100.176C56.1056 100.176 56.1494 100.183 56.1891 100.198C56.2321 100.213 56.2694 100.237 56.3008 100.268C56.3322 100.3 56.3555 100.336 56.3709 100.379C56.3849 100.417 56.392 100.46 56.3922 100.507L56.3944 100.66C56.3944 100.724 56.3841 100.777 56.3634 100.819C56.3569 100.832 56.3493 100.844 56.3408 100.855C56.3585 100.872 56.374 100.891 56.3872 100.912C56.4186 100.963 56.4347 101.024 56.4356 101.096L56.4387 101.322C56.4397 101.368 56.4354 101.408 56.4259 101.442C56.4156 101.479 56.3991 101.51 56.3766 101.533L56.3761 101.534C56.3531 101.557 56.323 101.575 56.2859 101.586C56.2515 101.597 56.2115 101.602 56.1661 101.602H54.7546L54.7359 100.176H56.058ZM56.1588 100.494C56.1588 100.47 56.1563 100.451 56.1516 100.436C56.1486 100.426 56.1452 100.42 56.1412 100.416C56.1372 100.412 56.1302 100.409 56.1201 100.406C56.1043 100.401 56.0839 100.399 56.0592 100.399H54.9721L54.9767 100.743H56.0528C56.0983 100.743 56.1276 100.736 56.1406 100.723C56.1463 100.717 56.1509 100.708 56.1542 100.695C56.1587 100.679 56.1609 100.657 56.1608 100.632L56.1588 100.494ZM56.2022 101.061C56.2021 101.037 56.1995 101.016 56.1946 101C56.1917 100.991 56.1886 100.985 56.1855 100.982C56.182 100.978 56.1755 100.975 56.1662 100.972C56.1509 100.968 56.1313 100.966 56.1075 100.966H54.9797L54.9851 101.38H56.1015C56.1269 101.38 56.1474 101.378 56.1627 101.373C56.1742 101.37 56.1823 101.366 56.1867 101.361C56.1991 101.349 56.2052 101.318 56.205 101.271L56.2022 101.061ZM57.9463 100.177C58.2612 100.177 58.4206 100.334 58.4239 100.649L58.4351 101.602H58.2333L58.2164 101.453L58.1818 101.476C58.1436 101.502 58.1071 101.523 58.0721 101.54C58.0358 101.558 58.002 101.571 57.9707 101.579C57.939 101.587 57.9016 101.593 57.8584 101.597C57.8159 101.6 57.7672 101.602 57.7124 101.602H57.1259C57.0063 101.602 56.9094 101.566 56.8358 101.493C56.7983 101.456 56.7702 101.412 56.7515 101.362C56.7342 101.315 56.7254 101.263 56.7249 101.205L56.7257 101.085C56.726 101.029 56.7319 100.98 56.7435 100.939C56.756 100.894 56.7753 100.858 56.8013 100.832C56.8278 100.804 56.8632 100.784 56.9075 100.771C56.9487 100.759 56.9973 100.753 57.0532 100.753H58.1905L58.1887 100.624C58.188 100.574 58.1827 100.532 58.1728 100.499C58.165 100.473 58.1548 100.454 58.1425 100.442C58.1302 100.43 58.1109 100.42 58.0847 100.413C58.0518 100.403 58.0102 100.399 57.9601 100.399H57.1633C57.1278 100.399 57.0988 100.402 57.0766 100.408C57.0578 100.413 57.0439 100.42 57.0351 100.429C57.0263 100.438 57.0194 100.451 57.0148 100.47C57.009 100.492 57.0066 100.521 57.0076 100.557C57.0127 100.584 57.0091 100.663 57.0096 100.697H56.7755L56.7749 100.525C56.7746 100.465 56.7807 100.413 56.793 100.37C56.8063 100.324 56.827 100.286 56.8553 100.258C56.8836 100.23 56.9208 100.209 56.967 100.195C57.0104 100.183 57.0615 100.176 57.1203 100.176L57.9463 100.177ZM58.0514 101.283L58.1963 101.183L58.1934 100.975H57.0983C57.0653 100.975 57.0382 100.978 57.0175 100.984C57.0001 100.989 56.9871 100.995 56.9789 101.004C56.9709 101.011 56.9647 101.024 56.9605 101.04C56.9552 101.061 56.953 101.086 56.954 101.117L56.9584 101.228C56.9593 101.262 56.9635 101.29 56.971 101.313C56.9765 101.329 56.9836 101.342 56.9919 101.35C57.0002 101.358 57.0125 101.365 57.0286 101.37C57.0503 101.376 57.0777 101.38 57.1107 101.38H57.7082C57.7756 101.38 57.8379 101.372 57.895 101.355C57.9523 101.339 58.0044 101.315 58.0514 101.283ZM60.2931 100.176H60.4709L60.4883 101.602H60.2547L60.2472 100.975H59.0085L59.0163 101.602H58.7827L58.7654 100.176H58.999L59.006 100.753H60.2445L60.2374 100.176H60.2931ZM62.4058 100.176H62.5696L62.5868 101.602H62.3533L62.3407 100.526L61.0151 101.602H60.8466L60.8292 100.176H61.0628L61.0755 101.239L62.3849 100.176H62.4058ZM64.136 100.176C64.2088 100.176 64.2734 100.185 64.3296 100.204C64.391 100.223 64.4426 100.254 64.4844 100.295C64.526 100.336 64.5575 100.387 64.5786 100.447C64.5981 100.504 64.6089 100.568 64.6109 100.641C64.6219 100.7 64.6139 100.863 64.6148 100.938H63.1468L63.1507 101.159C63.1512 101.208 63.1563 101.25 63.1658 101.283C63.1733 101.308 63.1829 101.327 63.1946 101.338C63.2221 101.366 63.2809 101.38 63.371 101.38H64.2275C64.2907 101.38 64.3324 101.369 64.3522 101.348C64.3614 101.338 64.3688 101.323 64.3745 101.303C64.3811 101.28 64.3847 101.251 64.3853 101.216L64.3819 101.046H64.6161C64.617 101.114 64.6197 101.183 64.6187 101.25C64.6183 101.31 64.6119 101.362 64.5996 101.405C64.5862 101.452 64.5659 101.49 64.5388 101.519C64.5111 101.547 64.4745 101.569 64.4289 101.583C64.3864 101.596 64.3359 101.602 64.2777 101.602H63.3925C63.3527 101.602 63.315 101.599 63.2794 101.593C63.1834 101.577 63.1054 101.54 63.0454 101.481C62.9857 101.422 62.9467 101.345 62.9286 101.25C62.9217 101.214 62.9179 101.174 62.917 101.132L62.9074 100.585C62.9061 100.512 62.9122 100.45 62.9255 100.399C62.9398 100.343 62.9627 100.3 62.9942 100.268C63.0256 100.236 63.0691 100.213 63.1245 100.198C63.1763 100.183 63.2383 100.176 63.3105 100.176H64.136ZM63.1408 100.621L63.1427 100.716H64.3764L64.3747 100.619C64.3735 100.57 64.3679 100.529 64.358 100.496C64.3502 100.47 64.3404 100.452 64.3285 100.44C64.3173 100.429 64.2992 100.419 64.2743 100.412C64.2425 100.403 64.2024 100.399 64.1542 100.399H63.3573C63.3087 100.399 63.2688 100.403 63.2377 100.411C63.2111 100.418 63.1918 100.428 63.1798 100.441C63.1669 100.454 63.1574 100.474 63.1508 100.501C63.1432 100.532 63.1398 100.572 63.1408 100.621ZM67.2155 100.176H67.3935L67.4107 101.602H67.1772L67.1698 100.975H65.931L65.9389 101.602H65.7052L65.688 100.176H65.9215L65.9286 100.753H67.167L67.1599 100.176H67.2155ZM68.9616 100.177C69.2765 100.177 69.436 100.334 69.4392 100.649L69.4506 101.602H69.2486L69.2318 101.453L69.1973 101.476C69.1589 101.502 69.1224 101.523 69.0875 101.54C69.0512 101.558 69.0174 101.571 68.986 101.579C68.9543 101.587 68.9169 101.593 68.8738 101.597C68.8313 101.6 68.7826 101.602 68.7278 101.602H68.1414C68.0217 101.602 67.9247 101.566 67.8512 101.493C67.8137 101.456 67.7855 101.412 67.7669 101.362C67.7495 101.315 67.7407 101.263 67.7402 101.205L67.7411 101.085C67.7414 101.029 67.7473 100.98 67.7588 100.939C67.7714 100.894 67.7906 100.858 67.8168 100.832C67.8431 100.804 67.8785 100.784 67.9229 100.771C67.964 100.759 68.0127 100.753 68.0685 100.753H69.2059L69.204 100.624C69.2033 100.574 69.198 100.532 69.1883 100.499C69.1803 100.473 69.1702 100.454 69.1578 100.442C69.1457 100.43 69.1263 100.42 69.1001 100.413C69.0672 100.403 69.0256 100.399 68.9756 100.399H68.1787C68.1432 100.399 68.1143 100.402 68.092 100.408C68.0731 100.413 68.0592 100.42 68.0505 100.429C68.0416 100.438 68.0349 100.451 68.0301 100.47C68.0244 100.492 68.022 100.521 68.0229 100.557C68.028 100.584 68.0245 100.663 68.0249 100.697H67.7909L67.7902 100.525C67.79 100.465 67.7962 100.413 67.8083 100.37C67.8216 100.324 67.8424 100.286 67.8707 100.258C67.8989 100.23 67.9361 100.209 67.9823 100.195C68.0257 100.183 68.0769 100.176 68.1356 100.176L68.9616 100.177ZM69.0667 101.283L69.2117 101.183L69.2089 100.975H68.1136C68.0806 100.975 68.0536 100.978 68.0328 100.984C68.0154 100.989 68.0024 100.995 67.9942 101.004C67.9863 101.011 67.9802 101.024 67.9759 101.04C67.9705 101.061 67.9684 101.086 67.9694 101.117L67.9738 101.228C67.9748 101.262 67.979 101.29 67.9865 101.313C67.9919 101.329 67.9989 101.342 68.0073 101.35C68.0156 101.358 68.0279 101.365 68.044 101.37C68.0657 101.376 68.0931 101.38 68.1261 101.38H68.7237C68.791 101.38 68.8533 101.372 68.9105 101.355C68.9676 101.339 69.0198 101.315 69.0667 101.283ZM69.9144 100.255L69.9171 100.657C69.9173 100.691 69.9214 100.72 69.9291 100.744C69.9349 100.762 69.9426 100.775 69.9522 100.784L69.9525 100.785C69.9621 100.794 69.9756 100.802 69.9929 100.807C70.0156 100.814 70.0445 100.818 70.0796 100.818H71.1213L71.1136 100.176H71.3471L71.3645 101.602H71.1308L71.1241 101.04H70.1032C70.0426 101.04 69.9875 101.032 69.9381 101.014C69.885 100.996 69.8392 100.968 69.8011 100.93C69.7629 100.893 69.7342 100.847 69.7148 100.795C69.6971 100.746 69.6875 100.691 69.6863 100.63C69.6694 100.54 69.6814 100.285 69.6799 100.173L69.914 100.178L69.9144 100.255ZM73.282 100.176H73.4457L73.463 101.602H73.2295L73.2168 100.526L71.8912 101.602H71.7227L71.7054 100.176H71.939L71.9516 101.239L73.261 100.176H73.282ZM75.3317 100.176H75.5095L75.5269 101.602H75.2933L75.2859 100.975H74.0472L74.055 101.602H73.8214L73.804 100.176H74.0375L74.0447 100.753H75.2831L75.276 100.176H75.3317ZM77.0778 100.177C77.3927 100.177 77.5521 100.334 77.5553 100.649L77.5666 101.602H77.3648L77.3478 101.453L77.3133 101.476C77.2751 101.502 77.2386 101.523 77.2036 101.54C77.1674 101.558 77.1335 101.571 77.1021 101.579C77.0705 101.587 77.0331 101.593 76.99 101.597C76.9474 101.6 76.8986 101.602 76.8438 101.602H76.2574C76.1377 101.602 76.0409 101.566 75.9672 101.493C75.9298 101.456 75.9017 101.412 75.883 101.362C75.8657 101.315 75.8568 101.263 75.8564 101.205L75.8572 101.085C75.8575 101.029 75.8634 100.98 75.875 100.939C75.8875 100.894 75.9068 100.858 75.9328 100.832C75.9593 100.804 75.9947 100.784 76.039 100.771C76.0802 100.759 76.1288 100.753 76.1847 100.753H77.3219L77.3201 100.624C77.3195 100.574 77.3142 100.532 77.3043 100.499C77.2965 100.473 77.2863 100.454 77.274 100.442C77.2618 100.43 77.2424 100.42 77.2162 100.413C77.1833 100.403 77.1418 100.399 77.0916 100.399H76.2947C76.2593 100.399 76.2303 100.402 76.208 100.408C76.1892 100.413 76.1754 100.42 76.1665 100.429C76.1578 100.438 76.1509 100.451 76.1463 100.47C76.1405 100.492 76.1381 100.521 76.1391 100.557C76.1442 100.584 76.1406 100.663 76.1411 100.697H75.907L75.9063 100.525C75.9061 100.465 75.9122 100.413 75.9245 100.37C75.9378 100.324 75.9586 100.286 75.9868 100.258C76.015 100.23 76.0523 100.209 76.0984 100.195C76.1418 100.183 76.193 100.176 76.2518 100.176L77.0778 100.177ZM77.1829 101.283L77.3278 101.183L77.3249 100.975H76.2298C76.1968 100.975 76.1697 100.978 76.1489 100.984C76.1315 100.989 76.1186 100.995 76.1104 101.004C76.1024 101.011 76.0962 101.024 76.092 101.04C76.0867 101.061 76.0845 101.086 76.0856 101.117L76.0899 101.228C76.0908 101.262 76.095 101.29 76.1025 101.313C76.108 101.329 76.115 101.342 76.1233 101.35C76.1316 101.358 76.1439 101.365 76.1601 101.37C76.1818 101.376 76.2092 101.38 76.2421 101.38H76.8397C76.9071 101.38 76.9694 101.372 77.0265 101.355C77.0838 101.339 77.1359 101.315 77.1829 101.283ZM79.105 100.176C79.1778 100.176 79.2424 100.185 79.2987 100.204C79.3599 100.223 79.4116 100.254 79.4535 100.295C79.4951 100.336 79.5266 100.387 79.5477 100.447C79.5672 100.504 79.5778 100.568 79.5798 100.641C79.591 100.7 79.5828 100.863 79.5838 100.938H78.1158L78.1197 101.159C78.1201 101.208 78.1252 101.25 78.1349 101.283C78.1423 101.308 78.1519 101.327 78.1635 101.338C78.191 101.366 78.2499 101.38 78.34 101.38H79.1966C79.2597 101.38 79.3014 101.369 79.3212 101.348C79.3303 101.338 79.3379 101.323 79.3434 101.303C79.3502 101.28 79.3537 101.251 79.3543 101.216L79.3509 101.046H79.5851C79.586 101.114 79.5887 101.183 79.5878 101.25C79.5873 101.31 79.5809 101.362 79.5685 101.405C79.5552 101.452 79.535 101.49 79.5077 101.519C79.4801 101.547 79.4435 101.569 79.3979 101.583C79.3555 101.596 79.305 101.602 79.2466 101.602H78.3615C78.3217 101.602 78.284 101.599 78.2485 101.593C78.1525 101.577 78.0744 101.54 78.0144 101.481C77.9546 101.422 77.9156 101.345 77.8976 101.25C77.8907 101.214 77.8868 101.174 77.8861 101.132L77.8763 100.585C77.8751 100.512 77.8812 100.45 77.8945 100.399C77.9089 100.343 77.9318 100.3 77.9631 100.268C77.9946 100.236 78.0381 100.213 78.0936 100.198C78.1453 100.183 78.2073 100.176 78.2795 100.176H79.105ZM78.1098 100.621L78.1116 100.716H79.3454L79.3436 100.619C79.3424 100.57 79.3369 100.529 79.327 100.496C79.3193 100.47 79.3094 100.452 79.2976 100.44C79.2863 100.429 79.2681 100.419 79.2433 100.412C79.2115 100.403 79.1714 100.399 79.1232 100.399H78.3263C78.2777 100.399 78.2378 100.403 78.2067 100.411C78.1801 100.418 78.1608 100.428 78.1487 100.441C78.136 100.454 78.1263 100.474 78.1198 100.501C78.1122 100.532 78.1088 100.572 78.1098 100.621ZM79.7373 100.32L79.738 100.176H81.4437L81.4426 100.399H80.7077L80.7239 101.602H80.4904L80.4742 100.399H79.7369L79.7373 100.32ZM82.1009 101.602C81.9496 101.602 81.8309 101.56 81.7452 101.476C81.7014 101.433 81.6684 101.38 81.6463 101.318C81.6259 101.26 81.6151 101.195 81.614 101.121L81.6044 100.579C81.6032 100.507 81.6091 100.446 81.6221 100.395C81.6362 100.339 81.6586 100.296 81.6892 100.265C81.7206 100.234 81.7636 100.211 81.8183 100.197C81.8692 100.183 81.931 100.176 82.0035 100.176L82.7992 100.176C82.8356 100.176 82.8709 100.178 82.9049 100.184C83.004 100.199 83.0845 100.237 83.1463 100.298C83.2079 100.359 83.248 100.439 83.2668 100.538C83.2735 100.574 83.2775 100.613 83.2788 100.655L83.2817 100.758L83.0543 100.766L83.0515 100.635C83.0494 100.586 83.0427 100.544 83.0314 100.51C83.0221 100.482 83.0101 100.461 82.9954 100.447C82.981 100.433 82.9605 100.421 82.9342 100.413C82.9021 100.404 82.8619 100.399 82.8137 100.399H82.052C82.0025 100.399 81.9619 100.403 81.9304 100.411C81.9038 100.417 81.8848 100.426 81.8734 100.437C81.862 100.449 81.8533 100.468 81.8471 100.494C81.8399 100.526 81.8368 100.566 81.8379 100.616L81.8475 101.144C81.8481 101.193 81.8537 101.234 81.8644 101.268C81.873 101.295 81.8849 101.316 81.8997 101.33C81.9145 101.345 81.9356 101.356 81.9629 101.365C81.9957 101.375 82.0366 101.38 82.0856 101.38H82.8468C82.8973 101.38 82.938 101.376 82.9689 101.368C82.9954 101.361 83.0144 101.352 83.0258 101.341C83.0373 101.329 83.046 101.31 83.0521 101.284C83.0594 101.252 83.0625 101.212 83.0613 101.162L83.0579 100.989H83.2886C83.2901 101.043 83.2865 101.155 83.2949 101.199C83.2961 101.271 83.2903 101.333 83.2775 101.384C83.2636 101.439 83.2412 101.482 83.2104 101.513C83.1794 101.544 83.1363 101.567 83.0814 101.582C83.0305 101.595 82.9687 101.602 82.8961 101.602H82.1009ZM83.9302 100.176H85.2518L85.2692 101.602H85.0357L85.0293 101.055H84.2327L83.7741 101.602H83.4433L83.9139 101.049C83.8857 101.045 83.8593 101.039 83.8342 101.03C83.7821 101.012 83.737 100.985 83.6993 100.948C83.6614 100.911 83.6331 100.866 83.6146 100.814C83.5976 100.767 83.5892 100.713 83.5892 100.653L83.5899 100.519C83.59 100.461 83.5962 100.411 83.6085 100.369C83.6218 100.323 83.6421 100.286 83.6694 100.258C83.6971 100.23 83.7339 100.209 83.7795 100.195C83.8222 100.183 83.8724 100.176 83.9302 100.176ZM83.9769 100.833H85.0264L85.0212 100.399H83.9716C83.9381 100.399 83.9104 100.402 83.889 100.408C83.871 100.413 83.8577 100.42 83.8493 100.429L83.8489 100.429C83.8402 100.438 83.8335 100.451 83.8288 100.469C83.8231 100.491 83.8205 100.518 83.8211 100.551L83.8226 100.677C83.823 100.711 83.8268 100.74 83.8341 100.764C83.8394 100.782 83.8464 100.795 83.8548 100.803C83.8625 100.811 83.8745 100.817 83.8907 100.822C83.9131 100.829 83.9419 100.833 83.9769 100.833ZM86.8303 101.602C86.6791 101.602 86.5603 101.56 86.4747 101.476C86.4308 101.433 86.3978 101.38 86.3758 101.318C86.3553 101.26 86.3445 101.195 86.3434 101.121L86.3337 100.579C86.3326 100.507 86.3385 100.446 86.3515 100.395C86.3656 100.339 86.388 100.296 86.4186 100.265C86.45 100.234 86.4929 100.211 86.5477 100.197C86.5986 100.183 86.6604 100.176 86.733 100.176L87.5286 100.176C87.565 100.176 87.6003 100.178 87.6343 100.184C87.7335 100.199 87.814 100.237 87.8758 100.298C87.9372 100.359 87.9774 100.439 87.9962 100.538C88.003 100.574 88.007 100.613 88.0082 100.655L88.0112 100.758L87.7838 100.766L87.781 100.635C87.7788 100.586 87.7721 100.544 87.7608 100.51C87.7515 100.482 87.7395 100.461 87.7248 100.447C87.7103 100.433 87.69 100.421 87.6636 100.413C87.6314 100.404 87.5912 100.399 87.543 100.399H86.7814C86.7319 100.399 86.6913 100.403 86.6597 100.411C86.6332 100.417 86.6143 100.426 86.6029 100.437C86.5915 100.449 86.5826 100.468 86.5765 100.494C86.5692 100.526 86.5661 100.566 86.5673 100.616L86.577 101.144C86.5775 101.193 86.5832 101.234 86.5938 101.268C86.6024 101.295 86.6143 101.316 86.6291 101.33C86.6438 101.345 86.665 101.356 86.6922 101.365C86.7251 101.375 86.766 101.38 86.815 101.38H87.5763C87.6268 101.38 87.6675 101.376 87.6984 101.368C87.7248 101.361 87.7438 101.352 87.7553 101.341C87.7666 101.329 87.7754 101.31 87.7815 101.284C87.7887 101.252 87.7918 101.212 87.7907 101.162L87.7873 100.989H88.0179C88.0196 101.043 88.0158 101.155 88.0242 101.199C88.0255 101.271 88.0197 101.333 88.0068 101.384C87.993 101.439 87.9707 101.482 87.9399 101.513C87.9089 101.544 87.8657 101.567 87.8108 101.582C87.7599 101.595 87.698 101.602 87.6255 101.602H86.8303ZM89.1078 101.524L89.0848 99.7286H90.8872L90.8861 99.9512H89.3207L89.3277 100.494H90.6246C90.6855 100.494 90.7409 100.503 90.7907 100.521C90.8438 100.54 90.8901 100.568 90.9293 100.607C90.9685 100.645 90.998 100.691 91.0178 100.744C91.0362 100.793 91.0461 100.848 91.0473 100.91L91.052 101.253C91.0531 101.313 91.0476 101.364 91.0355 101.408C91.0223 101.455 91.0014 101.493 90.9728 101.521C90.9445 101.549 90.9069 101.57 90.8605 101.583C90.8169 101.596 90.7659 101.602 90.7075 101.602H89.1088L89.1078 101.524ZM89.3393 101.38H90.6646C90.699 101.38 90.7272 101.377 90.749 101.37C90.7669 101.366 90.7801 101.359 90.7887 101.35C90.7975 101.341 90.8044 101.327 90.8094 101.308C90.8155 101.285 90.8185 101.255 90.8182 101.22L90.8165 100.888C90.8157 100.852 90.8113 100.821 90.8032 100.796C90.7969 100.777 90.7886 100.762 90.7783 100.752C90.7682 100.742 90.7537 100.734 90.7351 100.728C90.7113 100.721 90.6812 100.717 90.6448 100.717H89.3306L89.3393 101.38ZM91.3656 101.524L91.3425 99.729L92.7889 99.7285C92.9412 99.7283 93.0592 99.7697 93.1423 99.8524C93.2247 99.9345 93.267 100.052 93.2691 100.204L93.2733 100.497C93.2744 100.57 93.2686 100.632 93.2556 100.683C93.2416 100.738 93.219 100.782 93.188 100.814C93.157 100.846 93.1138 100.869 93.0583 100.885C93.0068 100.899 92.9449 100.906 92.8726 100.906H91.5911L91.6001 101.602H91.3666L91.3656 101.524ZM91.5881 100.684H92.8275C92.9193 100.684 92.9776 100.671 93.0023 100.645C93.0134 100.634 93.0223 100.614 93.0287 100.587C93.0363 100.555 93.0399 100.514 93.0396 100.465L93.0383 100.181C93.0378 100.133 93.0324 100.092 93.022 100.058C93.0137 100.031 93.0026 100.011 92.989 99.9976C92.9755 99.9843 92.9553 99.9735 92.9289 99.9657C92.8961 99.9561 92.8552 99.9512 92.8063 99.9512H91.5786L91.5881 100.684ZM94.0511 101.602C93.9716 101.602 93.8998 101.591 93.8358 101.569C93.7681 101.545 93.7102 101.51 93.6618 101.462C93.6134 101.415 93.5771 101.357 93.5531 101.29C93.5306 101.227 93.5192 101.156 93.5187 101.077L93.5067 100.181C93.5059 100.102 93.5134 100.034 93.5291 99.9769C93.5455 99.9166 93.5716 99.8686 93.6071 99.8328C93.6422 99.7973 93.69 99.7707 93.7502 99.7533C93.8072 99.7369 93.8749 99.7286 93.953 99.7286H95.021C95.101 99.7286 95.1729 99.7397 95.2366 99.7617C95.304 99.7854 95.362 99.821 95.4103 99.8687C95.4588 99.9162 95.4951 99.9734 95.519 100.04C95.5415 100.103 95.5529 100.174 95.5534 100.254L95.5653 101.149C95.5662 101.229 95.5589 101.297 95.5435 101.353C95.5269 101.414 95.501 101.462 95.4654 101.498C95.4301 101.534 95.3823 101.56 95.322 101.577C95.2649 101.594 95.1973 101.602 95.1191 101.602H94.0511ZM94.0339 101.38H95.0653C95.172 101.38 95.2432 101.361 95.2791 101.324L95.2793 101.324C95.2963 101.306 95.3093 101.28 95.3181 101.247C95.328 101.209 95.3325 101.162 95.3318 101.106L95.3198 100.231C95.319 100.177 95.3124 100.13 95.2998 100.092C95.2888 100.059 95.2735 100.033 95.2541 100.014C95.2349 99.9944 95.209 99.9796 95.1765 99.9692C95.1389 99.9572 95.0928 99.9512 95.0384 99.9512H94.0069C93.9001 99.9512 93.829 99.9698 93.7932 100.007L93.7929 100.007C93.776 100.024 93.7629 100.05 93.754 100.084C93.7441 100.121 93.7396 100.168 93.7403 100.224L93.7522 101.099C93.753 101.154 93.7597 101.2 93.7723 101.238C93.7833 101.271 93.7988 101.298 93.8184 101.318C93.8375 101.336 93.8634 101.351 93.8957 101.361C93.9335 101.374 93.9795 101.38 94.0339 101.38Z" fill="#FEFEFE"/>
<path d="M94.1379 92.7603L95.5615 94.2075V98.038H89.694L88.2785 96.5831C88.2758 95.3089 88.2732 94.0242 88.2705 92.75L94.1379 92.7603ZM89.694 94.2684V96.5397H94.1379V94.2684H89.694Z" fill="#E53A24"/>
<path d="M56.7201 96.1168V94.6697H61.2095L59.76 96.1168H56.7201ZM61.618 92.752L61.6154 94.2703H56.2732V96.5417H61.5373V98.04H56.2732L54.8496 96.5929V92.752H61.618Z" fill="#FEFEFE"/>
<path d="M46.9922 98.0384L46.9951 92.75H54.286V94.6679L52.8546 96.1148H54.286V98.038H49.0722V96.5398H52.8546V96.1148H49.0722V94.6679H52.8546V94.2685H48.6118L48.609 98.0384H46.9922Z" fill="#FEFEFE"/>
<path d="M38.5714 92.7502L38.5732 94.2685H33.4255V96.5398L38.6203 96.5414L37.15 98.038H33.4075L32.002 96.5805L32 92.75L38.5714 92.7502Z" fill="#FEFEFE"/>
<path d="M37.999 98.039L39.4758 96.5359L44.561 96.5388L45.0061 96.1148H39.1394L39.1374 92.7501H40.5609L40.5629 94.6679H44.9988V92.75H46.4302V96.5805L44.9889 98.038L37.999 98.039Z" fill="#FEFEFE"/>
<path d="M68.0451 96.1174L69.9294 98.0393H67.6821L65.782 96.1103L64.1419 96.1148L64.1432 94.6678H64.7762H68.0487V94.2684H63.8059V98.038L62.1895 98.0303V92.75H69.4722V96.1148L68.0451 96.1174Z" fill="#FEFEFE"/>
<path d="M72.5674 98.038V92.75H79.8583V94.6782L78.4269 96.1148H79.8583V98.038H74.6446V96.5398H78.4269V96.1148H74.6446V94.6678H78.4269V94.2684H74.1842V98.038H72.5674Z" fill="#E53A24"/>
<path d="M86.261 96.1174L88.1452 98.0393H85.8981L83.9979 96.1103L82.3578 96.1148L82.3591 94.6678H82.992H86.2647V94.2684H82.0219V98.038L80.4053 98.0303V92.75H87.688V96.1148L86.261 96.1174Z" fill="#E53A24"/>
</svg>
