<svg width="140" height="164" viewBox="0 0 140 164" fill="none" xmlns="http://www.w3.org/2000/svg">
<path d="M139.458 0H0.480469V138.998H139.458V0Z" fill="#FEFEFE"/>
<path fill-rule="evenodd" clip-rule="evenodd" d="M49.5283 0C50.5244 3.06575 51.4941 6.14942 52.2873 8.32585C55.7519 6.93946 59.8495 6.1528 63.9702 6.44771C67.0219 6.66635 69.7712 7.45252 72.2212 8.65344C77.0004 10.996 80.3989 14.4428 82.0918 19.4143C83.284 22.9156 82.9617 23.9851 83.375 25.847C83.5208 26.5044 83.9842 26.6162 84.2334 27.5469C84.6581 27.3799 84.4975 27.4266 84.9254 27.1903C85.2375 28.7244 86.5141 31.7865 86.087 33.1736C88.8828 33.2787 88.7591 34.4893 88.8906 37.0868C88.9923 39.1012 88.9247 40.7494 89.0029 42.7629C89.0722 44.5444 88.4327 44.4546 88.2862 45.8993C87.8797 46.5727 87.9282 47.2191 87.5224 47.9075C84.7784 52.5611 86.1887 50.1594 84.5384 51.4841C84.5992 53.6915 85.7261 58.9267 86.342 61.0348C86.5197 61.1389 86.2788 61.0615 86.6916 61.2043L87.6354 61.4706C88.3451 61.8026 88.9591 63.5406 89.4189 64.5345C89.5588 64.8369 90.376 66.6729 90.4806 66.8082C91.3275 67.9077 92.364 66.5504 93.5422 68.2949L95.0608 70.5674C96.2695 72.3083 97.1811 74.206 98.4987 74.8598L103.492 77.4444C108.147 79.8225 112.555 81.8944 117.48 83.7735C120.812 85.0446 130.439 87.9155 132.493 89.227C136.89 92.0364 135.995 97.05 137.263 99.7719C137.627 100.554 138.994 102.659 139.519 103.036L139.477 0H49.5283Z" fill="#E53A24"/>
<path fill-rule="evenodd" clip-rule="evenodd" d="M49.5281 0C50.5242 3.06575 51.4939 6.14942 52.2871 8.32585C50.5649 9.01517 48.9988 9.85267 47.664 10.7788C44.5752 12.9225 42.0366 15.691 40.7228 19.2971C39.5362 22.5541 40.4347 20.4453 38.4939 22.3767C38.7873 22.7662 39.5384 23.0994 40.0096 23.2963C39.6278 24.2839 38.1256 25.3453 37.9331 26.0937L39.2941 26.3317L38.2839 28.4447C38.3118 28.4656 38.3666 28.4622 38.383 28.5157C38.3985 28.566 38.4646 28.5731 38.4844 28.5849C38.5232 28.6077 38.7014 28.7014 38.7469 28.7256L38.9179 30.7476L39.6365 30.9195C41.1054 39.0841 38.8755 35.9176 38.8701 40.1136C38.8675 42.2583 40.9275 48.0263 40.9899 49.1123C41.0137 49.5253 40.2275 50.3214 39.9602 50.6749C38.8566 52.1354 38.2871 52.1526 36.9242 53.8426C36.5288 54.3329 36.1574 54.1654 35.6809 54.5833L29.9651 59.9032C29.9438 65.0132 29.5063 66.0494 28.5596 69.5631C28.1543 71.0667 28.033 74.331 27.1921 76.4188C26.8006 77.3902 26.1077 79.2952 26.0389 79.9538C25.9338 80.9625 27.302 82.544 27.5553 84.0805C28.2301 88.1728 27.8454 93.4196 27.8575 97.7277C27.8604 98.8294 26.1345 102.784 25.5285 104.01C25.0247 105.029 24.9912 103.939 24.4903 104.788C24.1508 105.363 23.6891 106.485 23.3629 107.153C20.4839 113.048 18.0309 117.303 14.0093 122.207L9.38356 128.045C8.85622 128.803 8.42089 129.366 7.93664 130.082C7.38485 130.898 5.11254 135.709 3.63075 138.998H0.481698L0.480469 0H49.5281ZM49.8112 90.2241C49.6848 89.4406 51.4476 83.1251 51.8263 81.9539C52.5672 79.6615 53.3715 77.6984 54.718 75.7433C54.8335 75.5755 54.8732 75.4781 54.957 75.3769C55.2984 74.9632 54.979 75.2731 55.3209 75.0949C55.6405 75.4573 55.8567 75.8602 56.1499 76.2747C57.1348 77.6672 56.9085 77.2234 57.8106 78.2524C58.0912 78.5727 58.4041 78.7141 58.7646 79.0753C58.9181 80.2414 59.1127 81.8711 58.9348 83.0171C57.4433 84.7599 57.0576 86.963 54.6916 88.1026C54.1115 88.3823 51.1549 88.9309 50.4465 89.8081C49.9789 90.3866 50.4588 90.0355 49.8112 90.2241ZM43.9716 81.5426C42.3874 81.9689 39.6999 79.6189 39.0227 78.9112L39.4067 77.5444C40.9023 78.2964 42.6373 78.1219 42.8424 76.3478C43.3898 71.6076 45.7849 72.5068 42.7213 68.4801C42.3177 67.9498 41.9412 67.6123 41.0858 67.3944C39.067 66.8804 39.3345 67.423 39.2275 66.4143C40.7253 66.5066 42.154 66.846 43.799 66.9521C44.468 67.6404 45.1157 68.3312 45.7261 69.1135C46.5684 70.1936 47.7597 69.2546 48.9947 70.0057C48.8376 71.4948 47.0868 75.2755 46.6565 76.7875C46.3348 77.919 45.0994 79.9131 44.3893 81.0278L43.9716 81.5426ZM43.3261 57.4258C43.8489 56.9338 43.7327 55.3602 44.1319 54.7944C44.4673 54.3193 43.8349 53.8852 44.2206 53.5002C45.3283 56.4989 49.3618 63.949 49.9908 65.901C48.6512 65.1693 47.6667 64.3759 44.674 62.4379C42.5206 61.0438 38.3643 59.9949 37.7554 59.6269L40.9817 60.4152L43.3261 57.4258Z" fill="#1FB6EA"/>
<path fill-rule="evenodd" clip-rule="evenodd" d="M50.2946 71.906C50.8488 72.6064 52.4817 74.3168 53.3628 74.7894C53.3628 74.7894 53.3758 74.7163 53.2424 75.1504C52.5248 77.445 50.896 78.975 49.6067 78.5711C48.3135 78.1672 47.5056 76.1344 48.5627 73.6894C49.6154 71.2486 49.9079 71.4072 50.2946 71.906ZM65.8345 58.0559C67.4395 59.2132 70.8667 60.5708 71.4861 62.4327C71.7999 63.3765 71.0047 64.5297 70.7074 65.4432C70.6365 65.6604 70.4788 65.7159 70.4815 65.6713C70.4914 65.5229 70.9473 64.267 70.9573 64.1915C71.1268 62.891 71.0764 62.4644 69.7069 61.3988C68.8578 60.7378 67.9636 59.8347 67.0322 59.2372C66.6862 59.0151 66.3417 58.7967 65.9911 58.5827C65.7158 58.4149 64.8098 57.6687 65.4766 57.9123C65.5683 57.9457 65.7558 57.999 65.8345 58.0559ZM38.6589 59.5761L40.1594 59.8391C40.4051 59.6522 40.6351 59.4585 40.8445 59.2457C41.2535 58.8331 43.0326 56.4714 43.1653 55.0211C42.915 55.2741 42.6101 55.5727 42.1164 56.0356L38.6589 59.5761ZM45.7809 36.6377C50.129 36.5273 49.6634 37.3377 54.1768 36.5811C56.3699 36.2135 57.6435 36.0143 59.7315 35.5383C62.4096 34.9279 62.7968 34.6608 64.9788 33.9369C69.8326 32.3265 68.9595 32.1534 64.764 33.3945C59.5243 34.9446 55.9082 36.5753 50.1863 36.3712C49.1111 36.3329 48.0521 36.2244 46.9831 36.1111C46.2691 36.0353 43.6575 36.1395 45.1679 36.6063C45.3761 36.6707 45.5645 36.6431 45.7809 36.6377ZM47.9382 38.8832C51.3861 38.857 52.1269 39.7592 55.7147 39.2229C57.458 38.9624 57.6231 38.7921 58.8551 38.4215C60.94 37.7936 61.4525 37.5547 63.1919 37.0113C67.0613 35.8027 66.3717 35.6535 63.0292 36.5784C58.8545 37.7336 55.9658 38.9757 51.4335 38.7338C50.582 38.6883 49.744 38.5878 48.8985 38.4829C48.3339 38.413 46.2623 38.4587 47.453 38.85C47.6172 38.9038 47.7668 38.8846 47.9382 38.8832ZM44.4054 56.8482C44.0679 57.8271 43.5227 58.5186 42.9285 59.4006C42.5132 59.8851 42.4162 59.9478 41.6704 60.6693C43.0827 61.0945 44.6536 61.6398 45.6964 62.3141C46.6848 63.2208 45.8168 61.8843 45.2195 60.0107C44.881 58.9461 44.5998 57.8672 44.4054 56.8482ZM85.3095 31.1413C85.2793 30.4319 84.7335 29.2201 84.6217 29.3104C83.9645 29.8692 83.2382 30.7113 79.1512 33.8785L78.6616 36.0358C79.0652 35.8036 85.348 32.0134 85.3095 31.1413ZM88.3133 100.703C88.2831 100.883 88.283 101.076 88.0596 101.27C87.9351 101.373 87.6729 101.51 87.4453 101.485C87.3593 101.472 87.1962 101.433 87.1313 101.399C86.3105 100.995 86.6933 99.7401 87.5613 99.8389C87.9651 99.8817 88.2661 100.161 88.3133 100.531V100.703ZM86.0185 101.068V101.859H90.0149V102.37H85.1977C84.9357 102.37 84.7035 102.37 84.4844 102.396C84.205 102.426 84.0631 102.374 83.7967 102.443C82.615 102.748 82.0779 104.063 82.0779 105.15V105.546C82.0779 107.269 83.3239 109.061 85.1117 109.061H85.3095C85.3095 108.82 85.3567 108.571 85.3868 108.373C85.4727 107.768 85.5933 107.028 85.8468 106.538C86.2119 105.834 86.994 105.576 88.0298 105.576C89.0784 105.576 90.7369 105.778 91.6095 105.413C92.2841 105.129 92.5032 104.067 92.6063 103.376C92.7182 102.598 92.7182 102.043 92.6492 101.265C92.5417 100.015 92.2151 99.4435 90.9778 99.1125C89.6755 98.7689 87.6085 98.9665 86.547 99.5595C86.4613 99.6067 86.1819 99.7699 86.1429 99.8345C86.0485 100.015 86.0185 100.767 86.0185 101.068ZM90.505 111.274C90.5353 111.094 90.5394 110.9 90.7629 110.707C90.8832 110.604 91.1454 110.466 91.373 110.492C91.4589 110.5 91.6265 110.543 91.6868 110.574C92.5076 110.982 92.125 112.232 91.257 112.138C90.8529 112.095 90.5525 111.815 90.505 111.442V111.274ZM92.7996 110.909V110.118H88.8072V109.607H93.6247C93.8828 109.607 94.1148 109.607 94.338 109.581C94.6174 109.551 94.7549 109.602 95.0256 109.534C96.2033 109.229 96.7403 107.914 96.7403 106.826V106.431C96.7403 104.708 95.4942 102.916 93.7064 102.916H93.5088C93.5088 103.156 93.4615 103.406 93.4356 103.603C93.3456 104.205 93.2255 104.948 92.9715 105.438C92.6064 106.143 91.8284 106.401 90.7885 106.401C89.7401 106.401 88.0854 106.195 87.209 106.564C86.5342 106.848 86.3151 107.909 86.216 108.597C86.1044 109.375 86.1044 109.933 86.1688 110.711C86.2763 111.962 86.6029 112.533 87.8448 112.86C89.1425 113.208 91.2137 113.01 92.271 112.417C92.3572 112.37 92.6364 112.206 92.6751 112.138C92.7698 111.962 92.7996 111.209 92.7996 110.909ZM25.2797 107.363C28.812 110.642 27.7675 116.96 29.5123 117.316C29.8822 117.389 32.0952 117.342 32.7785 116.732C34.2954 115.391 36.0442 113.689 38.2149 111.558C40.1211 109.683 42.0605 108.146 43.0423 106.218C43.1137 106.071 43.1144 106.101 43.2638 105.735C43.3868 106.654 43.2808 108.227 43.0503 109.666C42.4293 115.829 40.0124 127.856 37.3793 138.997H44.7601C46.1095 128.08 53.4296 106.422 60.1139 98.3348C59.9807 100.496 56.3709 109.181 54.5617 116.293C52.433 124.656 51.2778 132.309 50.0803 138.997H58.0795C59.5981 125.692 63.0483 113.824 65.387 100.96C67.1833 99.7011 68.4511 97.5096 70.3759 98.8287C70.7931 99.1169 71.717 100.067 71.9446 100.466L68.8934 109.456C66.1202 117.132 63.5365 130.449 62.0024 138.997H104.445C106.129 124.334 108.626 108.527 110.247 106.255C109.86 107.956 108.275 119.555 107.789 122.318C107.222 125.526 106.462 132.978 106.007 138.997H139.458L139.519 102.857C138.995 102.484 137.626 100.552 137.264 99.7699C135.997 97.0499 136.891 92.0348 132.495 89.2286C130.44 87.9134 120.81 85.0428 117.479 83.7709C112.555 81.893 108.146 79.8217 103.492 77.445L98.4981 74.8582C97.1207 74.1739 94.6368 69.9317 93.5434 68.2962C92.3657 66.5514 91.3258 67.9051 90.4791 66.8093C90.3759 66.6718 89.5595 64.8367 89.4176 64.5358C88.9581 63.539 88.3433 61.8029 87.6344 61.4717C87.1867 61.3451 86.7385 61.2606 86.341 61.0337C85.7262 58.928 84.9098 53.4616 84.8495 51.2525C88.6097 51.4505 88.0383 48.2446 88.9794 45.6403C89.7099 44.4285 90.0365 38.4423 89.9592 36.9554C89.8302 34.3599 89.1944 33.0492 86.3967 32.9415C86.8221 31.5537 85.5459 28.494 85.2364 26.9596C84.8067 27.1962 84.9655 27.1487 84.5447 27.3163C82.1896 18.597 81.7942 12.9633 72.5289 8.42084C64.6948 4.57933 53.1005 6.34537 46.1044 11.2011C41.3946 14.4715 40.1485 17.5442 38.9408 20.9775C38.7817 21.4378 38.1887 23.3757 38.017 23.8484C38.3136 24.235 39.4952 23.1007 39.9681 23.2942C39.5855 24.2825 38.0814 25.344 37.8923 26.0916L39.2502 26.3323L38.2403 28.4424C38.4071 28.5613 38.5243 28.6276 38.7044 28.7259L38.8763 30.7457L39.594 30.9176C41.0637 39.0827 38.8763 35.9152 38.8722 40.1139C38.8679 42.2584 40.9264 48.0255 40.9908 49.1126C41.0123 49.5254 40.2259 50.3203 39.9591 50.6726C39.6109 51.1367 36.4655 53.8914 35.6791 54.5831C32.5206 57.5225 30.8447 58.0554 29.9636 59.9035C29.3619 61.171 29.2888 63.2852 28.7559 66.3023C28.0641 70.2469 27.5012 73.6936 26.4957 78.3048C25.503 80.7715 26.1562 81.5877 27.5571 84.0806C28.2317 88.1715 27.845 93.4183 27.8581 97.729C27.862 98.8287 26.1347 102.782 25.5289 104.007C25.0258 105.03 24.9916 103.938 24.4887 104.789C24.1493 105.361 23.6895 106.482 23.3631 107.153C20.4838 113.049 18.0298 117.303 14.0075 122.207L9.38346 128.042C8.85515 128.803 8.42077 129.366 7.93532 130.084C7.38401 130.898 5.11265 135.707 3.63184 138.997H35.7454C37.4132 133.057 39.3765 125.218 39.9591 121.846C40.2046 120.424 40.9699 116.702 41.684 113.188L34.1922 121.506C31.2998 122.495 28.7002 121.97 27.5487 121.36C24.9185 119.968 27.1487 113.487 25.6405 109.349C25.1766 108.081 24.2911 106.99 24.9485 105.589C25.3742 106.16 25.3095 106.328 25.2797 107.363ZM57.8921 93.8652C57.1231 91.4675 57.4882 87.9909 57.4967 86.8434C57.4926 85.8854 58.9366 83.0145 60.0024 82.7869C60.3889 85.1803 62.2583 86.7018 62.7053 87.5657C62.267 88.0124 58.3693 93.6163 57.8921 93.8652ZM50.1236 89.9445C49.9314 90.1164 49.821 90.2227 49.8132 90.2257C49.6839 89.439 51.4461 83.1264 51.8286 81.9533C52.5678 79.6626 53.1995 77.9522 54.5448 75.9969C55.3912 77.428 57.6989 79.2544 58.8804 80.0924C59.018 81.2742 58.9582 80.8144 59.0054 81.9659C58.0851 82.7315 51.7076 88.5267 50.1236 89.9445ZM50.1435 90.0922C50.5539 92.3033 46.0279 103.304 43.844 103.561C42.6193 103.706 42.2198 104.334 41.5966 106.775L40.3964 107.848C40.3196 107.913 40.3322 107.909 40.3867 107.841C41.2782 106.718 40.3518 103.54 41.4765 103.38C46.8766 102.601 49.9137 90.4414 50.1435 90.0922ZM43.973 81.5405C42.3874 81.9703 39.8906 78.9365 39.2158 78.2273L39.4051 77.5438C40.9048 78.2961 42.6367 78.1198 42.8428 76.3494C43.3888 71.605 45.7865 72.5076 42.7224 68.4812C42.3186 67.948 41.9406 67.6131 41.0849 67.3935C39.0654 66.8778 39.3361 67.4238 39.2289 66.4137C40.7245 66.504 42.1552 66.8434 43.8011 66.9512C44.4674 67.6386 45.1163 68.3306 45.7262 69.1126C46.5686 70.1913 47.209 69.77 48.4038 70.144C48.2445 71.635 47.0889 75.2751 46.6589 76.7876C46.3366 77.9181 45.0991 79.9117 44.3902 81.0289L43.973 81.5405ZM29.998 83.6249C28.954 82.9542 25.0991 82.8383 26.715 78.5195C27.6602 75.9969 27.5271 79.4001 28.6789 71.5881C29.7144 64.566 29.981 68.2402 32.2884 61.5879C32.555 60.8144 32.9376 60.5306 33.7712 60.2902C35.5351 59.7851 38.4957 60.7398 40.5959 61.5247L40.6199 61.5339L40.6257 61.5361L40.6555 61.547L40.6847 61.5582L40.7143 61.5693L40.7424 61.5799L40.7433 61.5802C41.2293 61.7635 41.6646 61.9351 42.022 62.0734C43.1607 62.5162 46.6545 63.5774 47.1918 64.6089C48.1842 66.5255 47.7375 65.3609 48.9322 66.5342C49.9551 67.5441 49.435 69.2157 48.382 69.0308C46.1303 69.2542 45.7822 67.1359 44.7594 65.7992C44.7209 65.8164 45.0817 65.1718 45.0602 65.1849C42.9162 66.3238 42.0264 64.6048 41.1199 64.3297C40.1741 64.2825 39.8175 64.7467 37.4282 64.4886C36.4868 64.3382 35.1162 63.6506 34.8324 65.1033C34.2438 68.1414 32.3959 71.8072 31.8499 75.0773C32.6882 73.2638 32.8044 72.9759 33.7494 71.1152C35.4859 67.6858 34.9786 67.2001 37.0112 67.6642C38.2788 67.8921 39.4821 68.1243 40.793 68.2875C42.1852 68.464 42.4949 69.2373 43.0149 70.3072C43.7021 71.7253 43.1309 72.1423 42.6282 73.5086C42.3786 74.1964 41.721 76.2847 41.3518 76.7833C39.8303 76.7748 39.6971 75.2966 39.723 74.6821C39.7615 73.8141 40.4448 73.1306 41.2014 72.211C40.5351 72.4217 40.2259 72.7524 39.4911 72.4689C39.1642 72.3401 38.8977 71.9876 38.7429 71.9404C38.6788 71.9188 38.3136 71.9488 37.9609 71.8459L37.7592 72.7268C36.4096 73.0447 36.0316 72.3614 35.1118 71.8888C35.099 73.2294 35.735 73.6161 36.8568 73.904C36.3067 75.7693 34.5104 77.875 33.986 79.1684L35.8641 80.5609C36.0442 80.6943 37.1488 81.6783 36.9169 82.7695C36.5602 84.4411 36.573 85.0987 35.6188 85.8379L37.0112 85.7006L39.0485 87.1529C40.0279 87.2948 39.5814 88.9751 39.5167 90.4963C39.4821 91.2699 39.349 92.3701 39.431 92.9844C39.9165 92.5248 40.9433 90.9908 41.1024 90.7627C43.0275 87.9693 43.6294 86.9938 42.9503 85.2963C42.5164 84.2092 39.379 83.0186 38.3391 81.9659C38.8853 81.9744 39.5422 81.3298 39.9765 81.3473C42.5808 81.4674 42.8087 82.7567 44.9916 83.444C45.6575 81.7855 46.7232 79.3103 48.1973 78.9706C48.5539 79.19 48.7045 79.3447 49.0527 79.5854C49.3447 79.7829 49.5338 79.8476 49.8517 80.1352C49.9164 81.2785 49.8045 82.8254 49.1041 83.4656C48.3951 83.3671 47.4153 82.6363 46.8564 82.3225C48.5111 84.407 50.1227 85.3653 49.0053 87.3163C48.8418 88.3821 45.9197 92.4774 45.2064 93.5173C44.274 94.8967 43.827 96.2419 42.9633 97.6428C42.6367 98.1711 42.5164 98.5452 41.7898 98.6268C41.1583 97.6297 39.8519 94.1316 39.2717 93.5132C38.6488 96.1816 38.1974 102.413 36.1132 103.234C34.1235 104.024 28.653 98.0295 28.653 98.0251C28.5542 95.5758 28.4595 86.5168 29.1041 84.467L29.998 83.6249ZM85.2233 66.3454C84.1878 67.4454 83.7408 68.485 82.284 69.6542C81.7208 70.1053 81.1068 70.2213 80.2211 70.0535C80.0666 69.2802 83.4098 63.8656 83.7667 62.2622C83.2985 62.6535 83.0404 63.1477 82.6622 63.6206L77.05 70.1956C75.8898 71.6566 72.5247 75.6102 71.0592 76.2116C68.3348 77.3247 66.7451 77.0239 64.1665 76.9595C62.1208 76.6717 60.7714 76.6031 60.1012 77.7932C59.4996 77.5225 57.4452 75.3824 56.9471 74.8623C55.7605 73.6204 57.4883 72.6667 58.5969 72.1936C62.9803 70.3244 66.8567 72.6493 66.487 69.2157C66.4095 68.4896 64.4241 68.249 64.119 68.279C62.5937 68.4078 60.1611 69.3102 57.2432 68.9148H56.4311C55.159 68.7259 54.9571 68.9194 54.6433 68.464C55.4641 67.2432 56.3152 66.9638 58.1628 66.8822C63.0104 66.6718 60.7026 66.719 63.1866 66.1774C64.725 65.9883 65.0429 66.4355 66.3538 65.5372C66.7061 65.4171 67.6344 64.9655 67.9782 64.8796C68.6786 64.7036 69.5941 65.3609 69.3622 64.8626C69.2718 64.7893 68.554 64.4329 68.3867 64.2781C68.1458 64.046 68.2533 63.6639 67.9997 63.874C67.7719 64.0588 67.7291 64.3985 67.424 64.5745C66.4613 64.9871 66.0226 65.258 63.3544 64.7939C61.4935 64.8367 60.8789 65.52 58.8676 65.4171C57.3251 65.3353 57.4626 64.9655 55.9326 65.589C54.592 66.1304 52.6838 65.7822 51.6137 63.7925C51.3476 62.4216 52.5766 60.2301 53.41 59.2975C54.5404 60.3243 55.6706 61.3557 56.7963 62.3828L58.8073 63.4489C59.3705 63.9472 59.233 64.192 59.869 64.4024C61.0893 63.8871 60.1441 62.1681 60.3075 60.8831L61.3859 59.8003C62.2583 59.6931 62.3959 59.9936 63.3886 59.7013C64.2178 59.4563 64.1449 59.2931 64.205 58.3048C62.4389 57.5612 60.6683 58.3822 59.0224 58.8161C57.2604 59.2803 57.3166 58.7604 56.2033 58.6917C55.5113 58.3779 55.215 59.2846 54.4543 58.743C54.1661 58.537 53.8269 57.9694 54.0116 57.2089C54.1707 56.5685 54.5276 56.5513 54.8155 56.1346C55.8339 54.6519 55.3094 52.228 56.1818 51.7769C58.9495 50.3503 60.6468 52.3614 61.9019 52.6192C66.6632 53.6032 71.5534 50.9992 75.1893 48.4593L80.4579 44.437C80.9949 44.8885 81.5191 45.8338 81.7169 46.4483L82.0092 47.8451L82.8384 47.8148C82.8384 46.3798 82.8857 43.0922 83.6934 42.224C84.1362 42.4734 84.0287 42.5206 84.6389 42.6666C85.2812 41.8409 85.319 41.7054 86.4226 41.7126C86.5085 42.761 86.2722 43.3544 86.1557 44.2651C88.2104 42.0179 87.3462 41.4163 86.6501 39.7916C85.9453 39.6972 85.8938 39.7231 85.4127 39.3616C85.4727 38.6873 86.3751 37.4283 86.7492 36.891C87.2906 37.4239 87.6814 38.6483 87.9867 39.0568C88.3889 39.5897 88.4973 38.6599 88.6271 38.2704C89.0225 39.9163 89.1254 43.513 88.4465 44.9573C87.3853 47.2131 86.8221 51.0164 83.5517 49.9121C82.9588 49.6109 83.1779 49.0998 82.7309 48.6869C83.5132 54.3553 86.1775 60.4362 85.3267 65.7565C86.148 64.5704 87.5201 63.2508 86.7061 61.9918C88.1886 62.3487 88.5152 64.4714 89.6498 66.5774C91.274 69.5896 87.5397 74.5357 85.8468 77.1573C82.8125 81.8543 81.8801 82.9114 79.0008 87.9223L73.2339 96.8087C72.7267 96.461 72.211 95.5799 71.9103 95.0945L67.4453 88.1884C67.7029 87.604 67.7029 87.7587 68.2189 87.2991C77.0198 79.1471 80.363 74.7635 85.2233 66.3454ZM30.4878 65.1333C30.3977 62.9029 30.5653 60.5609 31.8243 59.22L35.9113 55.271C36.6118 54.6519 40.1228 51.6183 40.1313 51.6052C41.3174 49.8518 41.154 49.9893 41.8285 50.1482C42.3355 51.4505 39.925 54.5272 39.4349 55C38.825 55.593 38.0514 56.0356 37.2263 56.5816C36.2936 57.1961 36.0273 58.6399 35.2881 59.4347C32.7354 59.3875 32.525 59.3231 32.1853 60.2301L31.4463 62.353C31.1241 63.3068 30.8405 64.2782 30.4878 65.1333ZM41.1971 46.5212C40.8748 45.2064 40.4363 43.8181 40.2213 42.4949C46.9828 43.9961 58.0292 42.6794 64.725 40.9993C72.0521 39.1643 78.2103 34.7809 78.3948 34.1405C78.4468 33.9604 78.2875 36.1903 77.5011 36.7789C74.2627 39.2088 59.3436 45.0876 41.9624 43.2041L43.5001 49.1772C41.5237 48.5668 41.6653 48.4337 41.1971 46.5212ZM78.5366 37.0847C79.4908 36.7063 80.8058 35.4085 81.6738 35.185L82.5934 39.6587C81.6428 40.4771 80.7126 41.3971 79.7228 42.2412L78.5366 37.0847ZM71.2185 23.4058C71.9059 25.8125 73.7881 31.8716 78.5669 32.6795C78.6015 33.625 76.8738 34.1708 76.1949 34.609C69.6842 38.8161 59.8303 41.5581 52.1381 41.6051C45.9928 41.6436 43.0149 41.0294 41.4934 40.1655C41.5365 37.5656 41.5925 37.2689 41.9917 34.9485C41.8716 33.38 42.3961 29.6111 43.2897 28.2361C44.1299 28.2192 46.1773 28.2443 48.167 28.2334C47.5017 27.5664 46.8189 26.7679 46.2421 26.0875C51.2093 28.4986 54.7344 28.5831 56.8137 27.6729C56.1786 27.4519 55.5825 27.0979 55.0259 26.5427C56.5813 26.7713 57.5815 26.895 58.2606 26.9521C56.2428 26.3844 54.5193 25.4423 53.2211 23.4789C56.6398 24.7161 60.9206 26.771 64.6396 25.5597C63.3619 24.8357 61.8181 23.5687 60.5869 22.5462C63.3154 23.7675 68.2276 24.0568 71.2185 23.4058Z" fill="#2B2A29"/>
<path d="M44.8495 48.2726C44.3802 48.2114 44.0498 47.7814 44.1108 47.3126C44.172 46.8436 44.602 46.5129 45.071 46.5739C45.8335 46.6746 46.5959 46.7758 47.414 46.8514C48.2402 46.9276 49.1433 46.9819 50.2011 46.9908C51.2807 47.0003 52.5426 46.9615 53.8656 46.8753C55.1125 46.7942 56.3931 46.6715 57.6013 46.508C58.8374 46.3412 60.0165 46.1286 61.1307 45.8901C62.2493 45.6504 63.2842 45.3887 64.2369 45.1224C65.1982 44.8531 66.0843 44.5778 66.9472 44.2866C67.7784 44.0059 68.6261 43.6951 69.5258 43.3508C70.4527 42.9963 71.3655 42.6334 72.1764 42.2978C73.0131 41.9513 73.7864 41.6174 74.4111 41.331C75.6481 40.7635 76.335 40.3632 77.0197 39.9642L77.019 39.9625L77.0217 39.9611C77.4316 39.7218 77.9577 39.8601 78.1969 40.27C78.4359 40.6794 78.2979 41.2061 77.888 41.445L77.8851 41.4465H77.8817C77.1715 41.8605 76.4607 42.275 75.123 42.8888C74.47 43.1883 73.6763 43.5314 72.8276 43.8827C71.9202 44.2582 70.9921 44.6287 70.1369 44.9558C69.2726 45.2865 68.4135 45.5998 67.4913 45.9115C66.6008 46.2119 65.6858 46.4964 64.6933 46.7741C63.6919 47.0543 62.6203 47.3259 61.4867 47.5688C60.3489 47.8124 59.1296 48.0315 57.8296 48.207C56.5677 48.3777 55.2467 48.5051 53.9731 48.5879C52.6405 48.6743 51.3364 48.713 50.1875 48.7031C49.0733 48.6937 48.1249 48.637 47.2598 48.5569C46.3867 48.4763 45.6177 48.3743 44.8495 48.2726Z" fill="#1FB6EA"/>
<path d="M44.9334 47.6358C44.8162 47.6208 44.7336 47.5131 44.7489 47.3959C44.7639 47.2787 44.8716 47.1959 44.9888 47.2114C45.7532 47.3123 46.5176 47.4133 47.357 47.491C48.1976 47.569 49.1182 47.6239 50.1969 47.6334C51.3024 47.6428 52.5803 47.6038 53.9066 47.5177C55.164 47.4361 56.4596 47.3116 57.6878 47.1455C58.9478 46.9753 60.1418 46.7603 61.265 46.5196C62.3891 46.279 63.438 46.0136 64.4087 45.7419C65.3818 45.4698 66.2788 45.1909 67.1522 44.8962C68.018 44.6037 68.8698 44.2919 69.7557 43.9529C70.6561 43.6086 71.5748 43.243 72.4217 42.8924C73.2626 42.5442 74.0439 42.2067 74.6788 41.9152C75.9543 41.3302 76.6501 40.9244 77.3448 40.5198L77.3446 40.5194L77.3474 40.5174C77.4499 40.4579 77.5816 40.4925 77.6412 40.5949C77.701 40.6973 77.6663 40.829 77.5639 40.8888L77.5602 40.8903C76.8593 41.2988 76.1574 41.7079 74.8567 42.3048C74.2144 42.5994 73.4282 42.9391 72.5844 43.2885C71.7128 43.6493 70.7903 44.0168 69.9087 44.3541C69.0305 44.6899 68.1756 45.0025 67.2882 45.3022C66.4079 45.5993 65.5038 45.8807 64.523 46.1548C63.54 46.4301 62.4819 46.6981 61.3541 46.9395C60.2253 47.1811 59.0212 47.3976 57.7448 47.5702C56.5032 47.738 55.1974 47.8634 53.9338 47.9457C52.6048 48.0319 51.3162 48.0709 50.1935 48.0615C49.1 48.052 48.1688 47.9963 47.3185 47.9174C46.4662 47.839 45.6997 47.737 44.9334 47.6358Z" fill="#FEFEFE"/>
<path d="M0.525058 162.958L0.486328 160.01H4.2186L4.25662 163.128H3.74575L3.71402 160.497H1.00249L1.0381 163.128H0.527233L0.525058 162.958ZM7.74899 160.01C7.84124 160.01 7.92794 160.017 8.00857 160.031C8.21631 160.067 8.38553 160.149 8.51579 160.276C8.64581 160.404 8.73033 160.57 8.76931 160.775C8.78456 160.856 8.79303 160.944 8.794 161.039L8.80998 162.235C8.8124 162.393 8.79931 162.529 8.77026 162.642C8.73878 162.763 8.68868 162.858 8.62016 162.928C8.5514 162.997 8.45673 163.049 8.33543 163.082C8.2226 163.113 8.08722 163.128 7.92936 163.128H6.80013C6.51588 163.128 6.28608 163.11 6.11127 163.073C6.01756 163.053 5.92314 163.021 5.82871 162.977C5.73574 162.934 5.64181 162.88 5.54739 162.814L5.54445 162.812L5.55779 163.996L5.05416 163.998L5.0002 160.01H5.44349L5.47546 160.319L5.48586 160.312C5.57617 160.249 5.66385 160.197 5.74884 160.157C5.83842 160.114 5.92533 160.084 6.00959 160.064C6.0924 160.046 6.18875 160.032 6.29867 160.024C6.4069 160.015 6.52848 160.01 6.66261 160.01H7.74899ZM8.27802 160.999C8.27705 160.893 8.26521 160.803 8.24293 160.729C8.22502 160.671 8.20126 160.627 8.17148 160.597C8.14315 160.569 8.10009 160.546 8.04295 160.529C7.97176 160.507 7.88262 160.497 7.77609 160.497L6.67808 160.496C6.49431 160.495 6.32603 160.515 6.17374 160.555C6.02531 160.595 5.8929 160.656 5.77717 160.736L5.52218 160.914L5.53817 162.267L5.7757 162.432C5.87424 162.501 5.99797 162.553 6.14687 162.588C6.30571 162.626 6.49046 162.644 6.70111 162.643L7.84414 162.642C7.95092 162.642 8.0381 162.633 8.10565 162.617C8.16207 162.603 8.20201 162.583 8.22477 162.56C8.24777 162.536 8.26594 162.496 8.27878 162.439C8.29427 162.37 8.30105 162.283 8.29888 162.176L8.27802 160.999ZM10.552 163.128C10.2213 163.128 9.96151 163.036 9.77435 162.853C9.67847 162.758 9.60609 162.643 9.55791 162.507C9.51336 162.381 9.48963 162.238 9.48721 162.077L9.46612 160.891C9.46346 160.733 9.47629 160.599 9.50438 160.488C9.53464 160.368 9.58357 160.273 9.65088 160.205C9.71892 160.137 9.81311 160.087 9.9332 160.055C10.0443 160.025 10.1796 160.01 10.3382 160.01H12.1852C12.5169 160.01 12.7764 160.102 12.9636 160.286C13.0594 160.38 13.1316 160.495 13.1798 160.631C13.2246 160.757 13.2481 160.9 13.2505 161.06L13.2716 162.246C13.2742 162.405 13.2616 162.54 13.2338 162.65C13.2033 162.771 13.1544 162.865 13.0871 162.933C13.0186 163.002 12.9246 163.052 12.8048 163.084C12.6936 163.113 12.5585 163.128 12.3997 163.128H10.552ZM10.5186 162.642H12.2919C12.4024 162.642 12.4914 162.633 12.559 162.617C12.6169 162.602 12.6583 162.582 12.6835 162.557C12.7082 162.532 12.7275 162.49 12.7408 162.432C12.7563 162.362 12.7633 162.273 12.7607 162.165L12.7396 161.01C12.7386 160.904 12.7265 160.814 12.7033 160.741C12.6841 160.682 12.6585 160.636 12.626 160.604C12.5936 160.573 12.5474 160.547 12.4878 160.53C12.4159 160.508 12.3266 160.497 12.2193 160.497H10.445C10.3368 160.497 10.2482 160.506 10.1789 160.523C10.121 160.537 10.0797 160.556 10.0547 160.582C10.0298 160.607 10.0104 160.648 9.99709 160.706C9.98111 160.775 9.97433 160.863 9.97699 160.972L9.99808 162.128C9.99929 162.234 10.0114 162.324 10.0346 162.397C10.0538 162.457 10.0794 162.502 10.1119 162.534C10.145 162.566 10.1911 162.591 10.2501 162.609C10.3218 162.631 10.4114 162.642 10.5186 162.642ZM14.0098 162.958L13.9711 160.01H17.1189L17.1165 160.497H14.4873L14.5226 163.128H14.012L14.0098 162.958ZM20.3205 160.01C20.4127 160.01 20.4991 160.017 20.5798 160.031C20.7875 160.067 20.9568 160.149 21.087 160.276C21.217 160.404 21.3015 160.57 21.3405 160.775C21.356 160.856 21.3643 160.944 21.3655 161.039L21.3812 162.235C21.3838 162.393 21.3705 162.529 21.3415 162.642C21.3103 162.763 21.2601 162.858 21.1914 162.928C21.1228 162.997 21.0279 163.049 20.9069 163.082C20.7938 163.113 20.6585 163.128 20.5006 163.128H19.3713C19.0871 163.128 18.8573 163.11 18.6827 163.073C18.5888 163.053 18.4944 163.021 18.3999 162.977C18.307 162.934 18.2132 162.88 18.1186 162.814L18.1157 162.812L18.1293 163.996L17.6254 163.998L17.5714 160.01H18.015L18.0467 160.319L18.0571 160.312C18.1477 160.249 18.235 160.197 18.32 160.157C18.4096 160.114 18.4968 160.084 18.5811 160.064C18.6639 160.046 18.7602 160.032 18.8699 160.024C18.9781 160.015 19.0997 160.01 19.2338 160.01H20.3205ZM20.8495 160.999C20.8483 160.893 20.8364 160.803 20.8141 160.729C20.7964 160.671 20.7725 160.627 20.743 160.597C20.7144 160.569 20.6713 160.546 20.6141 160.529C20.543 160.507 20.4539 160.497 20.3473 160.497L19.2493 160.496C19.0655 160.495 18.8973 160.515 18.745 160.555C18.5966 160.595 18.4641 160.656 18.3484 160.736L18.0934 160.914L18.1094 162.267L18.3469 162.432C18.4457 162.501 18.5694 162.553 18.7181 162.588C18.8769 162.626 19.0617 162.644 19.2723 162.643L20.4154 162.642C20.5222 162.642 20.6093 162.633 20.6768 162.617C20.7333 162.603 20.7732 162.583 20.796 162.56C20.819 162.536 20.8371 162.496 20.85 162.439C20.8655 162.37 20.8722 162.283 20.8701 162.176L20.8495 160.999ZM24.7321 160.012C25.4207 160.011 25.7694 160.355 25.7764 161.043L25.8014 163.128H25.3597L25.3227 162.802L25.2471 162.853C25.1636 162.909 25.0837 162.955 25.0072 162.993C24.9281 163.032 24.854 163.06 24.7854 163.077C24.7162 163.095 24.6343 163.108 24.5402 163.116C24.4469 163.124 24.3404 163.128 24.2206 163.128H22.9383C22.6768 163.128 22.4647 163.049 22.3037 162.89C22.2219 162.809 22.1603 162.713 22.1194 162.603C22.0816 162.501 22.0623 162.387 22.0613 162.261L22.0632 161.998C22.0637 161.874 22.0766 161.767 22.102 161.677C22.1294 161.58 22.1715 161.502 22.2284 161.443C22.2862 161.384 22.3637 161.34 22.4606 161.311C22.5506 161.285 22.6569 161.272 22.7792 161.272H25.266L25.2622 160.99C25.2607 160.88 25.2491 160.788 25.2276 160.717C25.2104 160.659 25.1881 160.617 25.1612 160.591C25.1346 160.565 25.0922 160.543 25.0348 160.527C24.9629 160.507 24.8721 160.497 24.7624 160.497H23.0199C22.9424 160.497 22.879 160.503 22.8303 160.517C22.7891 160.528 22.7589 160.543 22.7395 160.563C22.7204 160.582 22.7054 160.612 22.6952 160.652C22.6826 160.702 22.6773 160.765 22.6795 160.842C22.6906 160.901 22.6828 161.075 22.6838 161.149H22.1719L22.1705 160.773C22.17 160.642 22.1833 160.529 22.2102 160.435C22.2393 160.333 22.2848 160.251 22.3465 160.189C22.4083 160.127 22.4896 160.082 22.5906 160.052C22.6855 160.024 22.7974 160.01 22.9259 160.01L24.7321 160.012ZM24.9619 162.43L25.2789 162.212L25.2726 161.758H22.8777C22.8056 161.758 22.7465 161.764 22.701 161.777C22.663 161.787 22.6347 161.801 22.6167 161.819C22.5993 161.836 22.586 161.863 22.5766 161.899C22.5649 161.944 22.5601 162.001 22.5625 162.068L22.572 162.31C22.5739 162.384 22.5831 162.446 22.5995 162.496C22.6114 162.532 22.6269 162.559 22.6451 162.577C22.6635 162.595 22.6901 162.609 22.7255 162.62C22.7729 162.635 22.8327 162.642 22.9051 162.642H24.2118C24.3588 162.642 24.4951 162.624 24.6201 162.589C24.7452 162.553 24.8593 162.5 24.9619 162.43ZM26.5592 162.958L26.5205 160.01H26.8907L28.6519 161.918L30.3603 160.01H30.7966L30.8346 163.128H30.3237L30.2968 160.854L28.8339 162.48L28.5846 162.482L27.0415 160.824L27.0723 163.128H26.5616L26.5592 162.958ZM31.6159 162.958L31.5774 160.01H31.9474L33.7086 161.918L35.417 160.01H35.8533L35.8913 163.128H35.3805L35.3535 160.854L33.8906 162.48L33.6415 162.482L32.0982 160.824L32.129 163.128H31.6183L31.6159 162.958ZM40.0844 160.01H40.4425L40.4805 163.128H39.9696L39.942 160.774L37.0433 163.128H36.6748L36.6368 160.01H37.1477L37.1753 162.335L40.0388 160.01H40.0844ZM43.9731 160.01C44.0653 160.01 44.1518 160.017 44.2324 160.031C44.4402 160.067 44.6094 160.149 44.7397 160.276C44.8697 160.404 44.9542 160.57 44.9932 160.775C45.0087 160.856 45.0169 160.944 45.0181 161.039L45.0338 162.235C45.0365 162.393 45.0232 162.529 44.9941 162.642C44.9629 162.763 44.9128 162.858 44.844 162.928C44.7755 162.997 44.6806 163.049 44.5595 163.082C44.4467 163.113 44.3111 163.128 44.1533 163.128H43.0242C42.7397 163.128 42.5102 163.11 42.3354 163.073C42.2415 163.053 42.147 163.021 42.0526 162.977C41.9596 162.934 41.8659 162.88 41.7712 162.814L41.7684 162.812L41.7819 163.996L41.2781 163.998L41.2241 160.01H41.6676L41.6993 160.319L41.7098 160.312C41.8003 160.249 41.888 160.197 41.9727 160.157C42.0625 160.114 42.1494 160.084 42.2337 160.064C42.3165 160.046 42.4128 160.032 42.5225 160.024C42.631 160.015 42.7523 160.01 42.8865 160.01H43.9731ZM44.5022 160.999C44.501 160.893 44.4891 160.803 44.467 160.729C44.4491 160.671 44.4252 160.627 44.3956 160.597C44.3671 160.569 44.3242 160.546 44.2668 160.529C44.1956 160.507 44.1068 160.497 44 160.497L42.9019 160.496C42.7182 160.495 42.5499 160.515 42.3976 160.555C42.2492 160.595 42.1168 160.656 42.001 160.736L41.7463 160.914L41.7623 162.267L41.9998 162.432C42.0983 162.501 42.2221 162.553 42.3707 162.588C42.5296 162.626 42.7146 162.644 42.925 162.643L44.0683 162.642C44.1748 162.642 44.262 162.633 44.3295 162.617C44.3859 162.603 44.4259 162.584 44.4486 162.56C44.4716 162.536 44.4898 162.496 44.5029 162.439C44.5181 162.37 44.5249 162.283 44.5227 162.176L44.5022 160.999ZM46.7759 163.128C46.4451 163.128 46.1856 163.036 45.9982 162.853C45.9023 162.758 45.8302 162.643 45.782 162.507C45.7372 162.381 45.7137 162.238 45.7113 162.077L45.6902 160.891C45.6876 160.733 45.7004 160.599 45.7282 160.488C45.7587 160.368 45.8077 160.273 45.875 160.205C45.9428 160.137 46.037 160.087 46.1571 160.055C46.2684 160.025 46.4035 160.01 46.5624 160.01H48.409C48.7407 160.01 49.0003 160.102 49.1877 160.286C49.2836 160.38 49.3557 160.495 49.4039 160.631C49.4485 160.757 49.4722 160.9 49.4746 161.06L49.4956 162.246C49.4983 162.405 49.4855 162.54 49.4577 162.65C49.4272 162.771 49.3782 162.865 49.3109 162.933C49.2424 163.002 49.1485 163.052 49.0289 163.084C48.9175 163.113 48.7824 163.128 48.6235 163.128H46.7759ZM46.7425 162.642H48.516C48.6264 162.642 48.7153 162.633 48.7829 162.617C48.8407 162.602 48.8824 162.582 48.9073 162.557C48.9323 162.532 48.9514 162.49 48.9647 162.432C48.9804 162.362 48.9872 162.273 48.9848 162.165L48.9637 161.01C48.9625 160.904 48.9504 160.814 48.9272 160.741C48.9083 160.682 48.8824 160.636 48.8499 160.604C48.8175 160.573 48.7712 160.547 48.7117 160.53C48.64 160.508 48.5504 160.497 48.4434 160.497H46.6692C46.5607 160.497 46.4721 160.506 46.4031 160.523C46.3449 160.537 46.3035 160.557 46.2786 160.582C46.2537 160.607 46.2345 160.648 46.2209 160.706C46.2052 160.775 46.1984 160.863 46.2008 160.972L46.2219 162.128C46.2231 162.234 46.2355 162.324 46.2587 162.397C46.2776 162.457 46.3035 162.503 46.336 162.534C46.3684 162.566 46.4144 162.591 46.474 162.609C46.5459 162.631 46.6352 162.642 46.7425 162.642ZM53.0861 160.01C53.1902 160.01 53.2858 160.026 53.3728 160.057C53.4667 160.091 53.5483 160.143 53.6171 160.212C53.6856 160.28 53.7367 160.36 53.7703 160.453C53.8008 160.537 53.8163 160.631 53.8168 160.734L53.8216 161.068C53.8216 161.208 53.7991 161.324 53.7539 161.415C53.7396 161.444 53.7231 161.471 53.7045 161.495C53.7432 161.531 53.7771 161.573 53.8059 161.619C53.8745 161.73 53.9098 161.864 53.9117 162.022L53.9185 162.517C53.9207 162.617 53.9113 162.704 53.8904 162.778C53.8679 162.859 53.8318 162.926 53.7827 162.978L53.7817 162.979C53.7314 163.03 53.6655 163.069 53.5844 163.094C53.5091 163.117 53.4217 163.128 53.3224 163.128H50.2358L50.1949 160.01H53.0861ZM53.3064 160.705C53.3064 160.653 53.3011 160.61 53.2907 160.577C53.2841 160.557 53.2766 160.543 53.2679 160.535C53.2592 160.526 53.2439 160.519 53.2219 160.512C53.1873 160.502 53.1427 160.497 53.0887 160.497H50.7114L50.7215 161.25H53.0747C53.1742 161.25 53.2381 161.235 53.2667 161.206C53.279 161.194 53.2892 161.173 53.2965 161.145C53.3062 161.109 53.311 161.063 53.3108 161.006L53.3064 160.705ZM53.4013 161.945C53.4011 161.892 53.3955 161.847 53.3846 161.812C53.3783 161.792 53.3716 161.778 53.3648 161.772C53.3573 161.764 53.343 161.757 53.3226 161.751C53.2892 161.741 53.2464 161.736 53.1943 161.736H50.7281L50.7399 162.642H53.1812C53.2367 162.642 53.2815 162.637 53.3149 162.628C53.3401 162.621 53.3577 162.612 53.3674 162.602C53.3945 162.574 53.4079 162.507 53.4074 162.404L53.4013 161.945ZM57.2152 160.012C57.9038 160.011 58.2525 160.355 58.2595 161.043L58.2842 163.128H57.8428L57.8058 162.802L57.7303 162.853C57.6467 162.909 57.5668 162.955 57.4903 162.993C57.4109 163.032 57.337 163.06 57.2685 163.077C57.1993 163.095 57.1174 163.108 57.023 163.116C56.93 163.124 56.8235 163.128 56.7036 163.128H55.4213C55.1596 163.128 54.9478 163.049 54.7868 162.89C54.7049 162.809 54.6434 162.713 54.6025 162.603C54.5647 162.501 54.5454 162.387 54.5444 162.261L54.5461 161.998C54.5468 161.874 54.5597 161.767 54.5851 161.677C54.6124 161.58 54.6545 161.502 54.7114 161.443C54.7693 161.384 54.8468 161.34 54.9437 161.311C55.0337 161.285 55.14 161.272 55.2623 161.272H57.7491L57.7452 160.99C57.7438 160.88 57.7322 160.788 57.7106 160.717C57.6934 160.659 57.6712 160.617 57.6443 160.591C57.6174 160.565 57.5753 160.543 57.5179 160.527C57.446 160.507 57.3549 160.497 57.2455 160.497H55.503C55.4255 160.497 55.362 160.503 55.3134 160.517C55.2722 160.528 55.242 160.543 55.2226 160.563C55.2035 160.582 55.1884 160.612 55.1783 160.652C55.1657 160.702 55.1603 160.765 55.1625 160.842C55.1737 160.901 55.1659 161.075 55.1669 161.149H54.6551L54.6536 160.773C54.6531 160.642 54.6664 160.529 54.6933 160.435C54.7223 160.333 54.7676 160.251 54.8296 160.189C54.8913 160.127 54.9727 160.082 55.0737 160.052C55.1686 160.024 55.2804 160.01 55.409 160.01L57.2152 160.012ZM57.445 162.43L57.7619 162.212L57.7556 161.758H55.3608C55.2887 161.758 55.2294 161.764 55.1841 161.777C55.1461 161.787 55.1177 161.801 55.0998 161.819C55.0824 161.836 55.0688 161.863 55.0596 161.899C55.048 161.944 55.0432 162.001 55.0453 162.068L55.055 162.31C55.057 162.384 55.0661 162.446 55.0826 162.496C55.0945 162.532 55.11 162.559 55.1281 162.577C55.1463 162.595 55.1732 162.609 55.2085 162.62C55.256 162.635 55.3158 162.642 55.388 162.642H56.6947C56.8419 162.642 56.9782 162.624 57.1031 162.589C57.2283 162.553 57.3423 162.5 57.445 162.43ZM62.347 160.01H62.7359L62.7739 163.128H62.263L62.2468 161.758H59.5379L59.5551 163.128H59.0442L59.0065 160.01H59.5171L59.5326 161.272H62.2407L62.2252 160.01H62.347ZM66.967 160.01H67.325L67.3628 163.128H66.8522L66.8246 160.774L63.9259 163.128H63.5574L63.5194 160.01H64.0302L64.0579 162.335L66.9212 160.01H66.967ZM70.7504 160.01C70.9097 160.01 71.0508 160.03 71.1738 160.07C71.308 160.113 71.4208 160.18 71.5123 160.27C71.6033 160.359 71.6721 160.47 71.7183 160.603C71.7609 160.726 71.7844 160.867 71.7888 161.027C71.813 161.156 71.7954 161.512 71.7973 161.676H68.5872L68.5957 162.159C68.5969 162.267 68.608 162.358 68.6289 162.429C68.6453 162.485 68.6661 162.526 68.6918 162.552C68.7518 162.612 68.8805 162.642 69.0775 162.642H70.9506C71.0886 162.642 71.1799 162.619 71.2232 162.573C71.2433 162.551 71.2595 162.518 71.2719 162.474C71.2864 162.423 71.2942 162.36 71.2956 162.285L71.2881 161.913H71.8002C71.8021 162.06 71.8082 162.212 71.806 162.358C71.805 162.489 71.791 162.603 71.7641 162.698C71.7348 162.801 71.6905 162.884 71.6312 162.946C71.5706 163.009 71.4905 163.056 71.391 163.086C71.298 163.114 71.1876 163.128 71.0602 163.128H69.1245C69.0376 163.128 68.955 163.122 68.8773 163.109C68.6674 163.074 68.4967 162.992 68.3655 162.864C68.235 162.735 68.1497 162.566 68.1102 162.359C68.095 162.279 68.0868 162.193 68.0848 162.099L68.0638 160.903C68.0608 160.745 68.0742 160.609 68.1035 160.497C68.1347 160.376 68.1848 160.28 68.2536 160.211C68.3223 160.141 68.4175 160.09 68.5385 160.057C68.6518 160.026 68.7875 160.01 68.9453 160.01H70.7504ZM68.5741 160.983L68.5783 161.19H71.276L71.2723 160.978C71.2697 160.871 71.2576 160.781 71.2358 160.71C71.2188 160.654 71.1973 160.613 71.1714 160.587C71.1469 160.562 71.1073 160.542 71.0528 160.527C70.9833 160.507 70.8956 160.497 70.7903 160.497H69.0475C68.9412 160.497 68.854 160.506 68.786 160.524C68.7279 160.54 68.6858 160.561 68.6594 160.589C68.6313 160.617 68.6105 160.661 68.5959 160.72C68.5795 160.788 68.572 160.876 68.5741 160.983ZM77.4845 160.01H77.8736L77.9114 163.128H77.4007L77.3845 161.758H74.6756L74.6928 163.128H74.1819L74.1442 160.01H74.6548L74.6703 161.272H77.3784L77.3629 160.01H77.4845ZM81.3028 160.012C81.9914 160.011 82.34 160.355 82.347 161.043L82.372 163.128H81.9303L81.8935 162.802L81.818 162.853C81.7342 162.909 81.6543 162.955 81.578 162.993C81.4986 163.032 81.4248 163.06 81.356 163.077C81.2868 163.095 81.2049 163.108 81.1107 163.116C81.0177 163.124 80.9112 163.128 80.7914 163.128H79.5091C79.2474 163.128 79.0353 163.049 78.8745 162.89C78.7924 162.809 78.7309 162.713 78.6903 162.603C78.6522 162.501 78.6329 162.387 78.6319 162.261L78.6338 161.998C78.6343 161.874 78.6474 161.767 78.6726 161.677C78.6999 161.58 78.7421 161.502 78.7992 161.443C78.8568 161.384 78.9343 161.34 79.0314 161.311C79.1212 161.285 79.2278 161.272 79.3498 161.272H81.8368L81.8327 160.99C81.8313 160.88 81.8197 160.788 81.7984 160.717C81.7809 160.659 81.7589 160.617 81.7318 160.591C81.7051 160.565 81.6628 160.543 81.6054 160.527C81.5335 160.507 81.4427 160.497 81.3333 160.497H79.5907C79.513 160.497 79.4498 160.503 79.4011 160.517C79.3597 160.528 79.3294 160.543 79.3103 160.563C79.2909 160.582 79.2762 160.612 79.2658 160.652C79.2532 160.702 79.2481 160.765 79.25 160.842C79.2612 160.901 79.2534 161.075 79.2544 161.149H78.7426L78.7411 160.773C78.7406 160.642 78.7542 160.529 78.7808 160.435C78.8099 160.333 78.8554 160.251 78.9171 160.189C78.9788 160.127 79.0602 160.082 79.1612 160.052C79.2561 160.024 79.3682 160.01 79.4965 160.01L81.3028 160.012ZM81.5325 162.43L81.8495 162.212L81.8434 161.758H79.4484C79.3762 161.758 79.3171 161.764 79.2716 161.777C79.2336 161.787 79.2052 161.801 79.1873 161.819C79.1699 161.836 79.1566 161.863 79.1471 161.899C79.1355 161.944 79.1309 162.001 79.1331 162.068L79.1425 162.31C79.1447 162.384 79.1539 162.446 79.1704 162.496C79.1823 162.532 79.1975 162.559 79.2159 162.577C79.234 162.595 79.2609 162.609 79.296 162.62C79.3435 162.635 79.4035 162.642 79.4757 162.642H80.7824C80.9296 162.642 81.0659 162.624 81.1909 162.589C81.3158 162.553 81.4298 162.5 81.5325 162.43ZM83.3862 160.182L83.392 161.062C83.3925 161.137 83.4015 161.2 83.4184 161.252C83.431 161.29 83.4479 161.32 83.4688 161.34L83.4695 161.341C83.4905 161.361 83.5201 161.378 83.5579 161.39C83.6075 161.405 83.6707 161.413 83.7474 161.413H86.0253L86.0084 160.01H86.519L86.557 163.128H86.0462L86.0314 161.899H83.799C83.6666 161.899 83.546 161.881 83.438 161.843C83.3218 161.803 83.2218 161.741 83.1385 161.659C83.055 161.577 82.992 161.478 82.9497 161.362C82.9109 161.256 82.8901 161.136 82.8874 161.002C82.8504 160.806 82.8768 160.249 82.8734 160.002L83.3852 160.015L83.3862 160.182ZM90.7501 160.01H91.1082L91.146 163.128H90.6353L90.6077 160.774L87.7088 163.128H87.3405L87.3025 160.01H87.8134L87.841 162.335L90.7043 160.01H90.7501ZM95.2322 160.01H95.6211L95.6591 163.128H95.1483L95.1323 161.758H92.4234L92.4406 163.128H91.9297L91.8917 160.01H92.4024L92.4181 161.272H95.126L95.1105 160.01H95.2322ZM99.0505 160.012C99.7391 160.011 100.088 160.355 100.095 161.043L100.12 163.128H99.6781L99.641 162.802L99.5655 162.853C99.482 162.909 99.4021 162.955 99.3256 162.993C99.2464 163.032 99.1723 163.06 99.1038 163.077C99.0345 163.095 98.9527 163.108 98.8585 163.116C98.7653 163.124 98.6588 163.128 98.5389 163.128H97.2567C96.9949 163.128 96.7831 163.049 96.622 162.89C96.5402 162.809 96.4787 162.713 96.4378 162.603C96.4 162.501 96.3806 162.387 96.3797 162.261L96.3814 161.998C96.3821 161.874 96.3949 161.767 96.4203 161.677C96.4477 161.58 96.4899 161.502 96.5468 161.443C96.6046 161.384 96.6821 161.34 96.7789 161.311C96.869 161.285 96.9753 161.272 97.0976 161.272H99.5844L99.5805 160.99C99.5791 160.88 99.5674 160.788 99.5459 160.717C99.5287 160.659 99.5064 160.617 99.4795 160.591C99.4529 160.565 99.4106 160.543 99.3532 160.527C99.2813 160.507 99.1905 160.497 99.0808 160.497H97.3382C97.2608 160.497 97.1973 160.503 97.1487 160.517C97.1075 160.528 97.0772 160.543 97.0579 160.563C97.0387 160.582 97.0237 160.612 97.0135 160.652C97.001 160.702 96.9956 160.765 96.9978 160.842C97.0089 160.901 97.0012 161.075 97.0022 161.149H96.4903L96.4889 160.773C96.4884 160.642 96.5017 160.529 96.5286 160.435C96.5576 160.333 96.6031 160.251 96.6649 160.189C96.7266 160.127 96.808 160.082 96.9089 160.052C97.0039 160.024 97.1158 160.01 97.2443 160.01L99.0505 160.012ZM99.2803 162.43L99.5973 162.212L99.591 161.758H97.1961C97.124 161.758 97.0649 161.764 97.0194 161.777C96.9813 161.787 96.953 161.801 96.9351 161.819C96.9177 161.836 96.9041 161.863 96.8949 161.899C96.8833 161.944 96.8784 162.001 96.8809 162.068L96.8903 162.31C96.8923 162.384 96.9015 162.446 96.9179 162.496C96.9298 162.532 96.9453 162.559 96.9634 162.577C96.9816 162.595 97.0085 162.609 97.0438 162.62C97.0913 162.635 97.1511 162.642 97.2232 162.642H98.53C98.6772 162.642 98.8135 162.624 98.9384 162.589C99.0636 162.553 99.1777 162.5 99.2803 162.43ZM103.484 160.01C103.643 160.01 103.784 160.03 103.907 160.07C104.041 160.113 104.154 160.18 104.245 160.27C104.337 160.359 104.405 160.47 104.452 160.603C104.494 160.726 104.517 160.867 104.522 161.027C104.546 161.156 104.528 161.512 104.53 161.676H101.32L101.329 162.159C101.33 162.267 101.341 162.358 101.362 162.429C101.378 162.485 101.399 162.526 101.425 162.552C101.485 162.612 101.614 162.642 101.811 162.642H103.684C103.822 162.642 103.913 162.619 103.956 162.573C103.976 162.551 103.993 162.518 104.005 162.474C104.02 162.423 104.027 162.36 104.029 162.285L104.021 161.913H104.533C104.535 162.06 104.541 162.212 104.539 162.358C104.538 162.489 104.524 162.603 104.497 162.698C104.468 162.801 104.424 162.884 104.364 162.946C104.304 163.009 104.224 163.056 104.124 163.086C104.031 163.114 103.921 163.128 103.793 163.128H101.858C101.771 163.128 101.688 163.122 101.61 163.109C101.401 163.074 101.23 162.992 101.099 162.864C100.968 162.735 100.883 162.566 100.843 162.359C100.828 162.279 100.82 162.193 100.818 162.099L100.797 160.903C100.794 160.745 100.807 160.609 100.836 160.497C100.868 160.376 100.918 160.28 100.987 160.211C101.055 160.141 101.15 160.09 101.272 160.057C101.385 160.026 101.52 160.01 101.678 160.01H103.484ZM101.307 160.983L101.311 161.19H104.009L104.005 160.978C104.003 160.871 103.991 160.781 103.969 160.71C103.952 160.654 103.93 160.613 103.905 160.587C103.88 160.562 103.84 160.542 103.786 160.527C103.716 160.507 103.629 160.497 103.523 160.497H101.781C101.674 160.497 101.587 160.506 101.519 160.524C101.461 160.54 101.419 160.561 101.392 160.589C101.364 160.617 101.343 160.661 101.329 160.72C101.312 160.788 101.305 160.876 101.307 160.983ZM104.866 160.324L104.868 160.01H108.598L108.595 160.497H106.988L107.024 163.128H106.513L106.478 160.497H104.865L104.866 160.324ZM110.035 163.128C109.704 163.128 109.444 163.036 109.257 162.853C109.161 162.758 109.089 162.643 109.041 162.507C108.996 162.381 108.972 162.238 108.97 162.077L108.949 160.891C108.946 160.735 108.959 160.6 108.988 160.488C109.018 160.367 109.068 160.273 109.134 160.205C109.203 160.137 109.297 160.087 109.417 160.055C109.528 160.025 109.663 160.01 109.822 160.01L111.562 160.01C111.641 160.009 111.719 160.015 111.793 160.027C112.01 160.061 112.186 160.144 112.321 160.277C112.455 160.41 112.543 160.585 112.584 160.802C112.599 160.879 112.608 160.965 112.611 161.058L112.617 161.283L112.12 161.299L112.113 161.014C112.109 160.906 112.094 160.814 112.069 160.74C112.049 160.679 112.023 160.633 111.991 160.602C111.959 160.571 111.914 160.546 111.857 160.529C111.787 160.507 111.699 160.497 111.593 160.497H109.928C109.82 160.497 109.731 160.506 109.662 160.523C109.604 160.537 109.562 160.557 109.537 160.582C109.512 160.607 109.493 160.648 109.48 160.706C109.464 160.775 109.457 160.863 109.46 160.972L109.481 162.128C109.482 162.234 109.494 162.324 109.517 162.397C109.536 162.457 109.562 162.503 109.595 162.534C109.627 162.566 109.673 162.591 109.733 162.609C109.805 162.631 109.894 162.642 110.001 162.642H111.666C111.776 162.642 111.865 162.633 111.933 162.617C111.991 162.602 112.032 162.582 112.057 162.557C112.082 162.532 112.101 162.49 112.115 162.432C112.131 162.363 112.137 162.274 112.135 162.165L112.127 161.788H112.632C112.635 161.905 112.627 162.15 112.646 162.246C112.648 162.405 112.636 162.54 112.608 162.65C112.577 162.771 112.528 162.865 112.461 162.933C112.393 163.001 112.299 163.051 112.179 163.084C112.067 163.113 111.932 163.128 111.774 163.128H110.035ZM114.035 160.01H116.925L116.963 163.128H116.452L116.438 161.932H114.696L113.694 163.128H112.97L113.999 161.919C113.938 161.91 113.88 161.896 113.825 161.877C113.711 161.838 113.612 161.778 113.53 161.698C113.447 161.617 113.385 161.52 113.345 161.405C113.308 161.302 113.289 161.184 113.289 161.053L113.291 160.759C113.291 160.633 113.305 160.524 113.331 160.431C113.36 160.331 113.405 160.251 113.465 160.19C113.525 160.128 113.606 160.082 113.705 160.052C113.799 160.024 113.909 160.01 114.035 160.01ZM114.137 161.446H116.432L116.421 160.497H114.126C114.052 160.497 113.992 160.503 113.945 160.517C113.905 160.528 113.876 160.543 113.858 160.562L113.857 160.563C113.838 160.582 113.823 160.611 113.813 160.65C113.801 160.698 113.795 160.758 113.796 160.831L113.8 161.105C113.8 161.18 113.809 161.244 113.825 161.296C113.836 161.334 113.852 161.363 113.87 161.382C113.887 161.398 113.913 161.412 113.949 161.423C113.997 161.438 114.06 161.446 114.137 161.446ZM120.377 163.128C120.046 163.128 119.786 163.036 119.599 162.853C119.503 162.758 119.431 162.643 119.383 162.507C119.338 162.381 119.314 162.238 119.312 162.077L119.291 160.891C119.288 160.735 119.301 160.6 119.33 160.488C119.36 160.367 119.409 160.273 119.476 160.205C119.545 160.137 119.639 160.087 119.759 160.055C119.87 160.025 120.005 160.01 120.164 160.01L121.904 160.01C121.983 160.009 122.06 160.015 122.135 160.027C122.352 160.061 122.528 160.144 122.663 160.277C122.797 160.41 122.885 160.585 122.926 160.802C122.941 160.879 122.95 160.965 122.952 161.058L122.959 161.283L122.462 161.299L122.456 161.014C122.451 160.906 122.436 160.814 122.411 160.74C122.391 160.679 122.365 160.633 122.333 160.602C122.301 160.571 122.256 160.546 122.199 160.529C122.128 160.507 122.041 160.497 121.935 160.497H120.27C120.161 160.497 120.073 160.506 120.004 160.523C119.946 160.537 119.904 160.557 119.879 160.582C119.854 160.607 119.835 160.648 119.822 160.706C119.806 160.775 119.799 160.863 119.802 160.972L119.823 162.128C119.824 162.234 119.836 162.324 119.859 162.397C119.878 162.457 119.904 162.503 119.937 162.534C119.969 162.566 120.015 162.591 120.075 162.609C120.147 162.631 120.236 162.642 120.343 162.642H122.008C122.118 162.642 122.207 162.633 122.275 162.617C122.333 162.602 122.374 162.582 122.399 162.557C122.424 162.532 122.443 162.49 122.457 162.432C122.472 162.363 122.479 162.274 122.477 162.165L122.469 161.788H122.974C122.977 161.905 122.969 162.15 122.987 162.246C122.99 162.405 122.977 162.54 122.949 162.65C122.919 162.771 122.87 162.865 122.803 162.933C122.735 163.001 122.641 163.051 122.521 163.084C122.409 163.113 122.274 163.128 122.116 163.128H120.377ZM125.357 162.958L125.306 159.031H129.248L129.246 159.518H125.822L125.838 160.706H128.674C128.807 160.706 128.928 160.726 129.037 160.764C129.153 160.805 129.254 160.868 129.34 160.952C129.426 161.036 129.49 161.136 129.533 161.251C129.574 161.359 129.595 161.48 129.598 161.614L129.608 162.366C129.611 162.495 129.599 162.608 129.572 162.704C129.543 162.807 129.498 162.889 129.435 162.951C129.373 163.011 129.291 163.057 129.19 163.087C129.094 163.114 128.983 163.128 128.855 163.128H125.359L125.357 162.958ZM125.863 162.642H128.761C128.836 162.642 128.898 162.635 128.946 162.622C128.985 162.611 129.014 162.596 129.032 162.576C129.052 162.557 129.067 162.527 129.078 162.485C129.091 162.434 129.098 162.37 129.097 162.293L129.093 161.567C129.092 161.487 129.082 161.42 129.064 161.366C129.05 161.324 129.032 161.291 129.01 161.269C128.988 161.247 128.956 161.23 128.915 161.217C128.863 161.201 128.797 161.193 128.718 161.193H125.844L125.863 162.642ZM130.294 162.958L130.244 159.032L133.406 159.031C133.74 159.031 133.997 159.121 134.179 159.302C134.359 159.482 134.452 159.738 134.457 160.072L134.466 160.713C134.468 160.871 134.455 161.007 134.427 161.119C134.396 161.239 134.347 161.335 134.279 161.405C134.211 161.475 134.117 161.526 133.995 161.559C133.883 161.59 133.748 161.606 133.589 161.606H130.787L130.807 163.128H130.296L130.294 162.958ZM130.781 161.12H133.491C133.692 161.12 133.819 161.091 133.873 161.036C133.897 161.01 133.917 160.968 133.931 160.909C133.947 160.838 133.955 160.749 133.955 160.641L133.952 160.021C133.951 159.915 133.939 159.825 133.916 159.752C133.898 159.693 133.874 159.649 133.844 159.62C133.814 159.591 133.77 159.567 133.712 159.55C133.641 159.529 133.551 159.518 133.444 159.518H130.76L130.781 161.12ZM136.167 163.128C135.993 163.128 135.836 163.104 135.696 163.055C135.548 163.004 135.421 162.927 135.315 162.823C135.209 162.719 135.13 162.593 135.078 162.446C135.028 162.309 135.003 162.153 135.002 161.979L134.976 160.021C134.974 159.847 134.991 159.698 135.025 159.574C135.061 159.443 135.118 159.338 135.196 159.259C135.272 159.182 135.377 159.124 135.509 159.085C135.633 159.05 135.781 159.031 135.952 159.031H138.287C138.462 159.031 138.62 159.056 138.759 159.104C138.906 159.156 139.033 159.233 139.139 159.338C139.245 159.442 139.324 159.567 139.376 159.713C139.426 159.85 139.451 160.005 139.452 160.18L139.478 162.138C139.48 162.312 139.464 162.461 139.43 162.585C139.394 162.717 139.337 162.822 139.259 162.901C139.182 162.979 139.077 163.036 138.946 163.074C138.821 163.11 138.673 163.128 138.502 163.128H136.167ZM136.129 162.642H138.384C138.618 162.642 138.773 162.601 138.852 162.52L138.852 162.519C138.89 162.481 138.918 162.425 138.937 162.351C138.959 162.269 138.969 162.167 138.967 162.044L138.941 160.131C138.939 160.011 138.925 159.91 138.897 159.827C138.873 159.754 138.84 159.697 138.797 159.654C138.755 159.613 138.698 159.58 138.628 159.558C138.545 159.531 138.444 159.518 138.325 159.518H136.07C135.836 159.518 135.681 159.559 135.602 159.64L135.602 159.64C135.565 159.678 135.536 159.735 135.517 159.808C135.495 159.89 135.485 159.992 135.487 160.115L135.513 162.028C135.515 162.148 135.529 162.249 135.557 162.332C135.581 162.405 135.615 162.463 135.658 162.506C135.699 162.547 135.756 162.58 135.827 162.602C135.909 162.629 136.01 162.642 136.129 162.642Z" fill="#FEFEFE"/>
<path d="M136.357 143.796L139.47 146.961V155.337H126.639L123.544 152.155C123.538 149.369 123.532 146.56 123.526 143.773L136.357 143.796ZM126.639 147.094V152.06H136.357V147.094H126.639Z" fill="#E53A24"/>
<path d="M54.5365 151.135V147.971H64.3535L61.1839 151.135H54.5365ZM65.247 143.777L65.2412 147.098H53.5593V152.064H65.0705V155.341H53.5593L50.4463 152.176V143.777H65.247Z" fill="#FEFEFE"/>
<path d="M33.2627 155.338L33.269 143.773H49.2123V147.967L46.0821 151.131H49.2123V155.337H37.811V152.061H46.0821V151.131H37.811V147.967H46.0821V147.094H36.8043L36.7982 155.338H33.2627Z" fill="#FEFEFE"/>
<path d="M14.8502 143.774L14.8543 147.094H3.59762V152.061L14.9572 152.064L11.7421 155.337H3.55818L0.484867 152.15L0.480469 143.773L14.8502 143.774Z" fill="#FEFEFE"/>
<path d="M13.5977 155.339L16.8269 152.052L27.9468 152.059L28.9202 151.131H16.0913L16.087 143.774H19.1998L19.2041 147.967H28.9042V143.773H32.0344V152.15L28.8827 155.337L13.5977 155.339Z" fill="#FEFEFE"/>
<path d="M79.2998 151.137L83.4203 155.34H78.5061L74.351 151.121L70.7645 151.131L70.7675 147.967H72.1517H79.3077V147.094H70.0299V155.337L66.4951 155.32V143.773H82.4205V151.131L79.2998 151.137Z" fill="#FEFEFE"/>
<path d="M89.1875 155.339V143.775H105.131V147.992L102.001 151.133H105.131V155.339H93.7298V152.063H102.001V151.133H93.7298V147.969H102.001V147.096H92.723V155.339H89.1875Z" fill="#E53A24"/>
<path d="M119.131 151.137L123.251 155.34H118.337L114.182 151.121L110.596 151.131L110.599 147.967H111.983H119.139V147.094H109.861V155.337L106.326 155.32V143.773H122.252V151.131L119.131 151.137Z" fill="#E53A24"/>
</svg>
