<svg width="1278" height="33" viewBox="0 0 1278 33" fill="none" xmlns="http://www.w3.org/2000/svg">
<path fill-rule="evenodd" clip-rule="evenodd" d="M642 0H-643V12.7326H-571.815L-565.678 1.3301L-565.665 1.35954L-565.65 1.3301L-554.963 22.6693H-546.315L-541.193 12.8798H-355.215V12.876L-294.355 12.8273L-292.975 10.2017L-295.197 5.9592H-290.743L-292.975 10.2017L-291.57 12.8798H-288.999L-282.94 1.3301L-282.932 1.34418L-282.928 1.3301L-266.831 32.0158L-258.29 15.7525L-147.753 15.7039L-145.818 19.3882L-140.03 8.348L-136.168 15.7039L-86.4665 15.7525L-81.6224 6.51863H-59.1134L-50.6411 22.6693H-47.2887L-26.376 22.4939L-22.2499 30.3605L-16.0612 18.5586L-12.9196 12.5495H41.7685L43.9805 8.34288L40.3021 1.3301H47.6667L43.9805 8.34288L46.1877 12.5495H143.636L149.773 1.3301L149.785 1.35954L149.801 1.3301L160.488 22.6693H169.135L174.257 12.8798H360.236V12.8491L387.632 12.8273L389.012 10.2017L386.79 5.9592H391.244L389.012 10.2017L390.417 12.8798H392.988L399.047 1.3301L399.055 1.34418L399.059 1.3301L415.156 32.0158L423.697 15.7525L500.771 15.7039L502.705 19.3882L508.494 8.348L512.356 15.7039L562.057 15.7525L566.901 6.51863H589.41L597.882 22.6693H601.235L622.147 22.4939L626.273 30.3605L632.462 18.5586L635.604 12.7095H642V0ZM-608.18 7.95883H-611.657V1.3301H-608.18V7.95883ZM-596.579 7.95883H-597.738V1.3301H-596.579V7.95883ZM-588.466 7.95883H-589.625V1.3301H-588.466V7.95883ZM-586.708 7.95883H-587.868V1.3301H-586.708V7.95883ZM-47.3604 16.2915H-48.5208V14.0832H-47.3604V16.2915ZM-47.3604 11.871H-48.5208V9.66273H-47.3604V11.871ZM-38.3687 16.2915H-39.5299V9.66273H-38.3687V16.2915ZM-33.9241 16.2915H-35.0853V14.0832H-33.9241V16.2915ZM107.271 7.95883H103.793V1.3301H107.271V7.95883ZM118.871 7.95883H117.713V1.3301H118.871V7.95883ZM126.984 7.95883H125.826V1.3301H126.984V7.95883ZM128.743 7.95883H127.582V1.3301H128.743V7.95883ZM601.163 16.2915H600.003V14.0832H601.163V16.2915ZM601.163 11.871H600.003V9.66273H601.163V11.871ZM610.155 16.2915H608.994V9.66273H610.155V16.2915ZM614.599 16.2915H613.438V14.0832H614.599V16.2915ZM-143.071 24.61L-145.818 19.3882L-148.557 24.61H-143.071ZM41.7504 12.5841H46.2057L46.1877 12.5495H41.7685L41.7504 12.5841ZM505.452 24.61L502.705 19.3882L499.966 24.61H505.452Z" fill="#E53A24"/>
<path fill-rule="evenodd" clip-rule="evenodd" d="M1927.49 0H642.493V12.7326H713.678L719.815 1.3301L719.828 1.35954L719.843 1.3301L730.53 22.6693H739.178L744.3 12.8798H930.278V12.876L991.138 12.8273L992.518 10.2017L990.296 5.9592H994.75L992.518 10.2017L993.923 12.8798H996.495L1002.55 1.3301L1002.56 1.34418L1002.57 1.3301L1018.66 32.0158L1027.2 15.7525L1137.74 15.7039L1139.68 19.3882L1145.46 8.348L1149.33 15.7039L1199.03 15.7525L1203.87 6.51863H1226.38L1234.85 22.6693H1238.2L1259.12 22.4939L1263.24 30.3605L1269.43 18.5586L1272.57 12.5495H1327.26L1329.47 8.34288L1325.8 1.3301H1333.16L1329.47 8.34288L1331.68 12.5495H1429.13L1435.27 1.3301L1435.28 1.35954L1435.29 1.3301L1445.98 22.6693H1454.63L1459.75 12.8798H1645.73V12.8491L1673.13 12.8273L1674.5 10.2017L1672.28 5.9592H1676.74L1674.5 10.2017L1675.91 12.8798H1678.48L1684.54 1.3301L1684.55 1.34418L1684.55 1.3301L1700.65 32.0158L1709.19 15.7525L1786.26 15.7039L1788.2 19.3882L1793.99 8.348L1797.85 15.7039L1847.55 15.7525L1852.39 6.51863H1874.9L1883.38 22.6693H1886.73L1907.64 22.4939L1911.77 30.3605L1917.96 18.5586L1921.1 12.7095H1927.49V0ZM677.313 7.95883H673.836V1.3301H677.313V7.95883ZM688.914 7.95883H687.755V1.3301H688.914V7.95883ZM697.027 7.95883H695.868V1.3301H697.027V7.95883ZM698.786 7.95883H697.625V1.3301H698.786V7.95883ZM1238.13 16.2915H1236.97V14.0832H1238.13V16.2915ZM1238.13 11.871H1236.97V9.66273H1238.13V11.871ZM1247.12 16.2915H1245.96V9.66273H1247.12V16.2915ZM1251.57 16.2915H1250.41V14.0832H1251.57V16.2915ZM1392.76 7.95883H1389.29V1.3301H1392.76V7.95883ZM1404.36 7.95883H1403.21V1.3301H1404.36V7.95883ZM1412.48 7.95883H1411.32V1.3301H1412.48V7.95883ZM1414.24 7.95883H1413.08V1.3301H1414.24V7.95883ZM1886.66 16.2915H1885.5V14.0832H1886.66V16.2915ZM1886.66 11.871H1885.5V9.66273H1886.66V11.871ZM1895.65 16.2915H1894.49V9.66273H1895.65V16.2915ZM1900.09 16.2915H1898.93V14.0832H1900.09V16.2915ZM1142.42 24.61L1139.68 19.3882L1136.94 24.61H1142.42ZM1327.24 12.5841H1331.7L1331.68 12.5495H1327.26L1327.24 12.5841ZM1790.95 24.61L1788.2 19.3882L1785.46 24.61H1790.95Z" fill="#E53A24"/>
</svg>
