<svg width="21186" height="3266" viewBox="0 0 21186 3266" fill="none" xmlns="http://www.w3.org/2000/svg">
    <path d="M10686 491.048H10687V491.547L10686.6 491.847L10686 491.048ZM10564.7 582.428H10563.7V581.929L10564.1 581.629L10564.7 582.428ZM10564.7 864H10565.7V865H10564.7V864ZM10220.4 826.158V825.158H10221.4V826.158H10220.4ZM10220.4 864V865H10219.4V864H10220.4ZM1 827.158C0.447266 827.158 0 826.71 0 826.158C0 825.605 0.447266 825.158 1 825.158V827.158ZM10687 0V491.048H10685V0H10687ZM10686.6 491.847L10565.3 583.227L10564.1 581.629L10685.4 490.25L10686.6 491.847ZM10565.7 582.428V864H10563.7V582.428H10565.7ZM10564.7 865H10411.8V863H10564.7V865ZM10411.8 865H10220.4V863H10411.8V865ZM10219.4 864V826.158H10221.4V864H10219.4ZM10220.4 827.158H1V825.158H10220.4V827.158Z"
          fill="#1FB6EA"/>
    <path opacity="0.3"
          d="M10500 1281.95H10499V1281.45L10499.4 1281.15L10500 1281.95ZM10621.3 1190.57H10622.3V1191.07L10621.9 1191.37L10621.3 1190.57ZM10621.3 909H10620.3V908H10621.3V909ZM10965.6 946.842V947.842H10964.6V946.842H10965.6ZM10965.6 909V908H10966.6V909H10965.6ZM21185 945.842C21185.6 945.842 21186 946.29 21186 946.842C21186 947.395 21185.6 947.842 21185 947.842V945.842ZM10499 3259.5V1281.95H10501V3259.5H10499ZM10499.4 1281.15L10620.7 1189.77L10621.9 1191.37L10500.6 1282.75L10499.4 1281.15ZM10620.3 1190.57V909H10622.3V1190.57H10620.3ZM10621.3 908H10774.2V910H10621.3V908ZM10774.2 908H10965.6V910H10774.2V908ZM10966.6 909V946.842H10964.6V909H10966.6ZM10965.6 945.842L21185 945.842V947.842L10965.6 947.842V945.842Z"
          fill="#1FB6EA"/>
    <path d="M17795.5 416C17796.1 416 17796.5 415.552 17796.5 415C17796.5 414.448 17796.1 414 17795.5 414L17795.5 416ZM11246.5 415.001L11246.5 414.001L11246.2 414.001L11246 414.148L11246.5 415.001ZM10866.3 648L10866.3 649L10866.6 649L10866.8 648.853L10866.3 648ZM5190 647L5189 647L5189 649L5190 649L5190 647ZM17795.5 414L11246.5 414.001L11246.5 416.001L17795.5 416L17795.5 414ZM11246 414.148L10865.8 647.148L10866.8 648.853L11247 415.853L11246 414.148ZM10866.3 647L5190 647L5190 649L10866.3 649L10866.3 647Z"
          fill="#E53A24"/>
    <path d="M10238 649C10237.4 649 10237 648.552 10237 648C10237 647.448 10237.4 647 10238 647L10238 649ZM10575.4 648L10575.4 647L10575.8 647L10576.1 647.335L10575.4 648ZM10790 889L10790 890L10789.6 890L10789.3 889.665L10790 889ZM19201.5 888L19202.5 888L19202.5 890L19201.5 890L19201.5 888ZM10238 647L10575.4 647L10575.4 649L10238 649L10238 647ZM10576.1 647.335L10790.7 888.335L10789.3 889.665L10574.6 648.665L10576.1 647.335ZM10790 888L19201.5 888L19201.5 890L10790 890L10790 888Z"
          fill="#E53A24"/>
    <path opacity="0.3"
          d="M2815 249C2814.45 249 2814 248.552 2814 248C2814 247.448 2814.45 247 2815 247V249ZM10542 248V247H10543V248H10542ZM10542 551.132H10543V551.67L10542.6 551.967L10542 551.132ZM10394.7 648.5H10393.7V647.962L10394.1 647.666L10394.7 648.5ZM10395.7 3264.5V3265.5H10393.7V3264.5H10395.7ZM2815 247H10542V249H2815V247ZM10543 248V551.132H10541V248H10543ZM10542.6 551.967L10395.2 649.334L10394.1 647.666L10541.4 550.298L10542.6 551.967ZM10395.7 648.5V3264.5H10393.7V648.5H10395.7Z"
          fill="#E53A24"/>
</svg>
