<svg width="275" height="40" viewBox="0 0 275 40" fill="none" xmlns="http://www.w3.org/2000/svg">
<path d="M0.0853754 37.942L0.00878906 32.112H7.39072L7.46565 38.2791H6.45571L6.39287 33.074H1.02985L1.09983 38.2791H0.0895736L0.0853754 37.942ZM14.3734 32.112C14.5557 32.112 14.727 32.126 14.8866 32.1533C15.2973 32.2237 15.6321 32.3855 15.8898 32.6379C16.147 32.89 16.3141 33.219 16.3909 33.6244C16.4216 33.785 16.4382 33.9592 16.4402 34.1462L16.4714 36.5119C16.4766 36.8252 16.4506 37.0936 16.3929 37.3164C16.331 37.5567 16.232 37.7453 16.0962 37.8824C15.9604 38.0195 15.7729 38.1211 15.5335 38.1869C15.3101 38.2481 15.042 38.2791 14.7296 38.2791H12.4965C11.934 38.2791 11.48 38.2423 11.1342 38.169C10.9488 38.1296 10.7619 38.0661 10.5753 37.9798C10.3913 37.8948 10.2056 37.7873 10.0187 37.6567L10.0128 37.6528L10.0395 39.9954L9.04324 40L8.93644 32.112H9.81349L9.87665 32.7226L9.8972 32.708C10.076 32.5836 10.2492 32.4816 10.4173 32.4018C10.5944 32.3178 10.7665 32.2569 10.9332 32.2191C11.097 32.1833 11.2875 32.1559 11.5047 32.1383C11.719 32.1211 11.9591 32.112 12.2245 32.112H14.3734ZM15.4198 34.0677C15.4175 33.857 15.3944 33.6791 15.3501 33.5349C15.3149 33.4189 15.2677 33.3316 15.2091 33.2727C15.1527 33.2164 15.0677 33.1711 14.9547 33.1372C14.8137 33.0952 14.6378 33.074 14.4268 33.074L12.2552 33.0731C11.8914 33.0705 11.5585 33.1095 11.2576 33.1903C10.9638 33.2688 10.7019 33.3883 10.4733 33.5476L9.96914 33.8996L10.0008 36.5764L10.4704 36.9024C10.6655 37.0379 10.91 37.1408 11.2041 37.2102C11.5184 37.2848 11.8842 37.3206 12.3004 37.318L14.5616 37.317C14.7723 37.317 14.9449 37.3001 15.0785 37.2669C15.1902 37.2388 15.269 37.2014 15.3143 37.1552C15.3595 37.1083 15.3957 37.0281 15.4211 36.9151C15.4517 36.7796 15.4651 36.6064 15.4605 36.3957L15.4198 34.0677ZM19.9172 38.2791C19.2632 38.2791 18.7492 38.097 18.3789 37.7336C18.1894 37.5476 18.0464 37.3196 17.9513 37.0509C17.8627 36.8015 17.8158 36.5175 17.8113 36.1999L17.7696 33.855C17.7643 33.542 17.7898 33.2756 17.8451 33.0568C17.9051 32.819 18.0018 32.6324 18.135 32.4979C18.2692 32.3631 18.4555 32.2637 18.6932 32.2002C18.9131 32.1416 19.1804 32.112 19.4944 32.112H23.1473C23.8032 32.112 24.3168 32.2937 24.6871 32.6571C24.8766 32.8434 25.0193 33.0708 25.1147 33.3391C25.2033 33.5883 25.2498 33.8716 25.2544 34.1892L25.2961 36.5344C25.3017 36.8477 25.2762 37.1145 25.2212 37.3336C25.1609 37.572 25.0642 37.7587 24.931 37.8932C24.7955 38.0283 24.6095 38.1273 24.3728 38.1905C24.1526 38.2495 23.8856 38.2791 23.5716 38.2791H19.9172ZM19.851 37.317H23.3586C23.5768 37.317 23.753 37.3001 23.8865 37.2669C24.0012 37.2382 24.0833 37.1988 24.1328 37.149C24.1816 37.0995 24.2197 37.0171 24.2464 36.9021C24.2771 36.7631 24.2907 36.5872 24.2858 36.3742L24.2442 34.0892C24.2419 33.8791 24.2177 33.7016 24.1718 33.5577C24.1344 33.4401 24.0833 33.3499 24.0191 33.287C23.9553 33.2242 23.8637 33.1747 23.7458 33.1388C23.6038 33.0958 23.4267 33.074 23.215 33.074H19.7058C19.4915 33.074 19.3159 33.0913 19.1795 33.1255C19.0648 33.1529 18.9831 33.1922 18.9336 33.2421C18.8841 33.2919 18.8459 33.374 18.8196 33.4883C18.7883 33.6238 18.7747 33.7993 18.7799 34.0149L18.8215 36.2999C18.8238 36.5106 18.8479 36.6888 18.8942 36.8331C18.9316 36.9506 18.9827 37.0412 19.0469 37.104C19.1124 37.1672 19.2033 37.2167 19.3202 37.2522C19.4618 37.2952 19.639 37.317 19.851 37.317ZM26.7562 37.942L26.6796 32.112H32.9053L32.9008 33.074H27.7006L27.7706 38.2791H26.7604L26.7562 37.942ZM39.2376 32.112C39.42 32.112 39.5913 32.126 39.7509 32.1533C40.1616 32.2237 40.496 32.3855 40.754 32.6379C41.0113 32.89 41.1784 33.219 41.2552 33.6244C41.2858 33.785 41.3021 33.9592 41.3044 34.1462L41.3357 36.5119C41.3409 36.8252 41.3148 37.0936 41.2572 37.3164C41.1953 37.5567 41.0959 37.7453 40.9604 37.8824C40.8246 38.0195 40.6371 38.1211 40.3974 38.1869C40.174 38.2481 39.9062 38.2791 39.5939 38.2791H37.3607C36.7982 38.2791 36.3439 38.2423 35.9984 38.169C35.8127 38.1296 35.6261 38.0661 35.4395 37.9798C35.2555 37.8948 35.0698 37.7873 34.8829 37.6567L34.8771 37.6528L34.9038 39.9954L33.9075 40L33.8006 32.112H34.6777L34.7406 32.7226L34.7614 32.708C34.9402 32.5836 35.1135 32.4816 35.2815 32.4018C35.4587 32.3178 35.6307 32.2569 35.7974 32.2191C35.9612 32.1833 36.1518 32.1559 36.369 32.1383C36.583 32.1211 36.8233 32.112 37.0885 32.112H39.2376ZM40.284 34.0677C40.2817 33.857 40.2583 33.6791 40.2143 33.5349C40.1791 33.4189 40.1319 33.3316 40.0733 33.2727C40.0169 33.2164 39.932 33.1711 39.8186 33.1372C39.678 33.0952 39.5017 33.074 39.291 33.074L37.1194 33.0731C36.7556 33.0705 36.4227 33.1095 36.1218 33.1903C35.828 33.2688 35.5662 33.3883 35.3375 33.5476L34.8331 33.8996L34.865 36.5764L35.3346 36.9024C35.5297 37.0379 35.7743 37.1408 36.0684 37.2102C36.3827 37.2848 36.7484 37.3206 37.1647 37.318L39.4259 37.317C39.6366 37.317 39.8092 37.3001 39.9427 37.2669C40.0544 37.2388 40.1332 37.2014 40.1782 37.1552C40.2238 37.1083 40.2596 37.0281 40.2854 36.9151C40.316 36.7796 40.329 36.6064 40.3247 36.3957L40.284 34.0677ZM47.9633 32.1146C49.3257 32.1139 50.0148 32.7943 50.0288 34.155L50.078 38.2791H49.2048L49.1315 37.6332L48.9824 37.7349C48.8169 37.8446 48.6586 37.9371 48.5075 38.0111C48.3508 38.0879 48.2043 38.1439 48.0688 38.1778C47.9317 38.2123 47.7702 38.2384 47.5836 38.2547C47.3996 38.2709 47.1888 38.2791 46.9517 38.2791H44.4156C43.8981 38.2791 43.4786 38.1218 43.1605 37.8078C42.9983 37.6476 42.8768 37.4587 42.796 37.2408C42.7211 37.0382 42.6827 36.8122 42.681 36.5634L42.6847 36.0436C42.6856 35.7984 42.7113 35.587 42.7612 35.4092C42.8152 35.217 42.8989 35.0623 43.0116 34.9464C43.1256 34.8288 43.279 34.7418 43.4708 34.6855C43.6486 34.6331 43.859 34.607 44.1007 34.607H49.0195L49.0117 34.0491C49.0087 33.8316 48.986 33.6511 48.9433 33.5091C48.9094 33.3955 48.8651 33.3121 48.812 33.26C48.7592 33.2085 48.6756 33.1665 48.5619 33.1343C48.4196 33.0942 48.2401 33.074 48.0236 33.074H44.5769C44.4235 33.074 44.2984 33.0874 44.202 33.1138C44.1206 33.1362 44.0607 33.1665 44.0226 33.2046C43.9845 33.2427 43.9548 33.302 43.9346 33.3821C43.9098 33.4795 43.8994 33.6046 43.9034 33.7576C43.9255 33.8736 43.9102 34.2185 43.9121 34.3647H42.8999L42.897 33.6205C42.896 33.3609 42.9224 33.1382 42.9755 32.9519C43.0328 32.7503 43.1227 32.5881 43.2448 32.4656C43.3669 32.3435 43.5282 32.253 43.7278 32.1947C43.9157 32.1397 44.1368 32.112 44.3909 32.112L47.9633 32.1146ZM48.4179 36.8972L49.0449 36.467L49.0325 35.5691H44.2958C44.1528 35.5691 44.0359 35.5814 43.946 35.6059C43.8707 35.6267 43.8151 35.6547 43.7796 35.6899C43.745 35.7238 43.7184 35.7769 43.6998 35.8482C43.677 35.9368 43.6675 36.0488 43.6721 36.1827L43.691 36.6611C43.6949 36.8077 43.7132 36.9304 43.7457 37.0288C43.7692 37.0998 43.7995 37.1535 43.8356 37.189C43.8718 37.2239 43.9248 37.2522 43.9945 37.2737C44.0883 37.3024 44.2069 37.317 44.3495 37.317H46.9341C47.2253 37.317 47.495 37.2815 47.7418 37.2112C47.9893 37.1408 48.215 37.036 48.4179 36.8972ZM51.5771 37.942L51.5005 32.112H52.2327L55.7162 35.8857L59.0951 32.112H59.9582L60.0331 38.2791H59.0228L58.9697 33.7801L56.0761 36.9972L55.5833 37.0008L52.531 33.7212L52.5919 38.2791H51.5816L51.5771 37.942ZM61.5788 37.942L61.5022 32.112H62.2341L65.7179 35.8857L69.0968 32.112H69.9596L70.0345 38.2791H69.0242L68.9711 33.7801L66.0778 36.9972L65.5847 37.0008L62.5327 33.7212L62.5933 38.2791H61.5833L61.5788 37.942ZM78.328 32.112H79.0364L79.1112 38.2791H78.101L78.0466 33.6231L72.3129 38.2791H71.5844L71.5095 32.112H72.5198L72.5742 36.7106L78.2377 32.112H78.328ZM86.0193 32.112C86.2017 32.112 86.3727 32.126 86.5323 32.1533C86.9433 32.2237 87.2781 32.3855 87.5353 32.6379C87.7926 32.89 87.96 33.219 88.0369 33.6244C88.0672 33.785 88.0838 33.9592 88.0861 34.1462L88.1174 36.5119C88.1226 36.8252 88.0965 37.0936 88.0389 37.3164C87.977 37.5567 87.8776 37.7453 87.7418 37.8824C87.6063 38.0195 87.4184 38.1211 87.1791 38.1869C86.956 38.2481 86.6879 38.2791 86.3756 38.2791H84.1424C83.5799 38.2791 83.1256 38.2423 82.7801 38.169C82.5944 38.1296 82.4078 38.0661 82.2209 37.9798C82.0372 37.8948 81.8515 37.7873 81.6646 37.6567L81.6587 37.6528L81.6851 39.9954L80.6888 40L80.582 32.112H81.4591L81.5223 32.7226L81.5428 32.708C81.7216 32.5836 81.8949 32.4816 82.0629 32.4018C82.2401 32.3178 82.4124 32.2569 82.5788 32.2191C82.7429 32.1833 82.9332 32.1559 83.1507 32.1383C83.3647 32.1211 83.605 32.112 83.8701 32.112H86.0193ZM87.0654 34.0677C87.0631 33.857 87.04 33.6791 86.996 33.5349C86.9608 33.4189 86.9133 33.3316 86.8547 33.2727C86.7983 33.2164 86.7134 33.1711 86.6003 33.1372C86.4596 33.0952 86.2834 33.074 86.0727 33.074L83.9007 33.0731C83.5373 33.0705 83.2044 33.1095 82.9035 33.1903C82.6097 33.2688 82.3479 33.3883 82.1189 33.5476L81.6148 33.8996L81.6463 36.5764L82.1163 36.9024C82.3111 37.0379 82.556 37.1408 82.8501 37.2102C83.1644 37.2848 83.5301 37.3206 83.9464 37.318L86.2072 37.317C86.4183 37.317 86.5905 37.3001 86.7244 37.2669C86.8358 37.2388 86.9146 37.2017 86.9599 37.1552C87.0055 37.1083 87.0413 37.0281 87.067 36.9151C87.0973 36.7796 87.1107 36.6064 87.1064 36.3957L87.0654 34.0677ZM91.5631 38.2791C90.9088 38.2791 90.3951 38.097 90.0248 37.7336C89.8353 37.5476 89.6924 37.3196 89.5969 37.0509C89.5084 36.8015 89.4618 36.5175 89.4569 36.1999L89.4155 33.855C89.41 33.542 89.4357 33.2756 89.4908 33.0568C89.551 32.819 89.6477 32.6324 89.7806 32.4979C89.9151 32.3631 90.1014 32.2637 90.3388 32.2002C90.559 32.1416 90.8263 32.112 91.1403 32.112H94.7928C95.4491 32.112 95.9624 32.2937 96.3327 32.6571C96.5223 32.8434 96.6652 33.0708 96.7606 33.3391C96.8489 33.5883 96.8958 33.8716 96.9004 34.1892L96.942 36.5344C96.9473 36.8477 96.9221 37.1145 96.8668 37.3336C96.8069 37.572 96.7099 37.7587 96.577 37.8932C96.4412 38.0283 96.2555 38.1273 96.0187 38.1905C95.7986 38.2495 95.5312 38.2791 95.2176 38.2791H91.5631ZM91.497 37.317H95.0045C95.2227 37.317 95.399 37.3001 95.5325 37.2669C95.6468 37.2382 95.7289 37.1988 95.7784 37.149C95.8275 37.0995 95.8656 37.0171 95.892 36.9021C95.923 36.7631 95.9367 36.5872 95.9318 36.3742L95.8901 34.0892C95.8878 33.8791 95.8637 33.7016 95.8178 33.5577C95.7803 33.4401 95.7292 33.3499 95.6651 33.287C95.6009 33.2242 95.5097 33.1747 95.3918 33.1388C95.2498 33.0958 95.0726 33.074 94.8609 33.074H91.3514C91.1374 33.074 90.9618 33.0913 90.8251 33.1255C90.7107 33.1529 90.6287 33.1926 90.5792 33.2421C90.53 33.2919 90.4919 33.374 90.4652 33.4883C90.434 33.6238 90.4206 33.7993 90.4255 34.0149L90.4671 36.2999C90.4694 36.5106 90.4938 36.6888 90.5401 36.8331C90.5775 36.9506 90.6287 37.0412 90.6925 37.104C90.7567 37.1669 90.8482 37.2164 90.9658 37.2522C91.1078 37.2952 91.285 37.317 91.497 37.317ZM104.044 32.112C104.249 32.112 104.439 32.1432 104.611 32.2048C104.797 32.2719 104.958 32.3738 105.094 32.5103C105.229 32.6458 105.33 32.805 105.397 32.9874C105.457 33.1535 105.488 33.3388 105.489 33.544L105.498 34.2035C105.498 34.4803 105.454 34.7099 105.364 34.8913C105.336 34.9487 105.303 35.0011 105.266 35.0483C105.343 35.1203 105.41 35.202 105.467 35.2936C105.603 35.5134 105.673 35.7792 105.676 36.0908L105.69 37.0695C105.694 37.2669 105.676 37.4392 105.635 37.5867C105.59 37.7476 105.518 37.8788 105.421 37.9811L105.419 37.9837C105.32 38.085 105.189 38.1609 105.029 38.21C104.88 38.256 104.707 38.2791 104.511 38.2791H98.4063L98.3252 32.112H104.044ZM104.479 33.4867C104.479 33.3834 104.469 33.2987 104.448 33.2336C104.435 33.1942 104.42 33.1659 104.403 33.1493C104.386 33.133 104.356 33.118 104.312 33.105C104.244 33.0844 104.156 33.074 104.049 33.074H99.3465L99.3664 34.564H104.021C104.218 34.564 104.344 34.5351 104.401 34.4774C104.425 34.4527 104.445 34.4123 104.46 34.3572C104.479 34.2852 104.488 34.1934 104.488 34.0814L104.479 33.4867ZM104.667 35.9397C104.667 35.8332 104.655 35.745 104.634 35.6756C104.622 35.6355 104.608 35.6088 104.595 35.5958C104.58 35.5811 104.552 35.5675 104.511 35.5554C104.445 35.5359 104.361 35.5261 104.258 35.5261H99.3798L99.4032 37.317H104.232C104.341 37.317 104.43 37.3076 104.496 37.2893C104.546 37.2757 104.581 37.2584 104.6 37.2382C104.654 37.1819 104.68 37.0509 104.679 36.8454L104.667 35.9397ZM112.21 32.1146C113.572 32.1139 114.262 32.7943 114.276 34.155L114.325 38.2791H113.452L113.378 37.6332L113.229 37.7349C113.064 37.8446 112.906 37.9371 112.755 38.0111C112.598 38.0879 112.451 38.1439 112.316 38.1778C112.179 38.2123 112.017 38.2384 111.83 38.2547C111.646 38.2709 111.436 38.2791 111.198 38.2791H108.662C108.145 38.2791 107.725 38.1218 107.407 37.8078C107.245 37.6476 107.124 37.4587 107.043 37.2408C106.968 37.0382 106.929 36.8122 106.928 36.5634L106.931 36.0436C106.932 35.7984 106.958 35.587 107.008 35.4092C107.062 35.217 107.146 35.0626 107.258 34.9464C107.372 34.8288 107.526 34.7418 107.718 34.6855C107.895 34.6331 108.106 34.607 108.347 34.607H113.266L113.258 34.0491C113.255 33.8316 113.233 33.6511 113.19 33.5091C113.156 33.3955 113.112 33.3121 113.059 33.26C113.006 33.2085 112.922 33.1665 112.809 33.1343C112.667 33.0942 112.487 33.074 112.27 33.074H108.824C108.67 33.074 108.545 33.0874 108.449 33.1138C108.367 33.1362 108.307 33.1665 108.269 33.2046C108.231 33.2427 108.202 33.302 108.181 33.3821C108.157 33.4795 108.146 33.6046 108.15 33.7576C108.172 33.8739 108.157 34.2185 108.159 34.3647H107.147L107.144 33.6205C107.143 33.3609 107.169 33.1382 107.222 32.9519C107.28 32.7503 107.369 32.5881 107.492 32.4656C107.614 32.3435 107.775 32.253 107.975 32.1947C108.162 32.1397 108.384 32.112 108.638 32.112L112.21 32.1146ZM112.665 36.8972L113.292 36.467L113.279 35.5691H108.543C108.4 35.5691 108.283 35.5814 108.193 35.6059C108.117 35.6267 108.062 35.6547 108.026 35.6899C107.992 35.7238 107.965 35.7769 107.947 35.8482C107.924 35.9368 107.914 36.0488 107.919 36.1827L107.938 36.6611C107.942 36.8077 107.96 36.9304 107.992 37.0288C108.016 37.0998 108.046 37.1535 108.083 37.189C108.118 37.2239 108.172 37.2522 108.241 37.2737C108.335 37.3024 108.454 37.317 108.596 37.317H111.181C111.472 37.317 111.742 37.2815 111.989 37.2112C112.236 37.1408 112.462 37.036 112.665 36.8972ZM122.36 32.112H123.129L123.204 38.2791H122.194L122.162 35.5691H116.804L116.838 38.2791H115.828L115.753 32.112H116.763L116.794 34.607H122.15L122.119 32.112H122.36ZM131.498 32.112H132.206L132.281 38.2791H131.271L131.216 33.6231L125.483 38.2791H124.754L124.679 32.112H125.689L125.744 36.7106L131.407 32.112H131.498ZM138.981 32.112C139.296 32.112 139.575 32.1514 139.818 32.2299C140.084 32.3155 140.307 32.4474 140.488 32.6252C140.668 32.8014 140.804 33.0216 140.896 33.2848C140.98 33.5277 141.026 33.8072 141.035 34.1231C141.083 34.3774 141.048 35.0828 141.052 35.4075H134.703L134.719 36.3625C134.722 36.5758 134.744 36.7543 134.785 36.8966C134.817 37.0073 134.859 37.0881 134.909 37.1386C135.028 37.2574 135.283 37.317 135.673 37.317H139.377C139.65 37.317 139.831 37.2711 139.916 37.1803C139.956 37.1379 139.988 37.0724 140.012 36.9842C140.041 36.8848 140.057 36.7601 140.059 36.6109L140.044 35.8759H141.057C141.061 36.167 141.073 36.468 141.069 36.7562C141.067 37.0151 141.039 37.2395 140.986 37.4284C140.928 37.6319 140.84 37.7954 140.723 37.9179C140.603 38.0423 140.445 38.1351 140.248 38.1951C140.064 38.2507 139.846 38.2791 139.594 38.2791H135.765C135.593 38.2791 135.43 38.2661 135.276 38.2407C134.861 38.1719 134.524 38.0101 134.264 37.7554C134.006 37.5007 133.837 37.1679 133.759 36.7569C133.729 36.5996 133.713 36.4286 133.709 36.2439L133.667 33.8781C133.661 33.5655 133.688 33.2971 133.745 33.0744C133.808 32.8347 133.907 32.6454 134.042 32.5086C134.178 32.3715 134.367 32.2699 134.606 32.2041C134.83 32.1429 135.098 32.112 135.411 32.112H138.981ZM134.677 34.0351L134.685 34.4458H140.021L140.013 34.027C140.008 33.8143 139.984 33.6371 139.941 33.4961C139.907 33.3847 139.865 33.3033 139.814 33.2525C139.765 33.2036 139.687 33.1639 139.579 33.133C139.442 33.0939 139.268 33.074 139.06 33.074H135.613C135.403 33.074 135.23 33.0923 135.096 33.1284C134.981 33.159 134.897 33.202 134.845 33.2561C134.79 33.3118 134.748 33.3987 134.72 33.516C134.687 33.6511 134.672 33.8244 134.677 34.0351ZM152.3 32.112H153.07L153.144 38.2791H152.134L152.102 35.5691H146.744L146.778 38.2791H145.768L145.693 32.112H146.703L146.734 34.607H152.09L152.059 32.112H152.3ZM159.852 32.1146C161.214 32.1139 161.904 32.7943 161.917 34.155L161.967 38.2791H161.093L161.02 37.6332L160.871 37.7349C160.705 37.8446 160.547 37.9371 160.396 38.0111C160.239 38.0879 160.093 38.1439 159.957 38.1778C159.821 38.2123 159.659 38.2384 159.472 38.2547C159.288 38.2709 159.077 38.2791 158.84 38.2791H156.304C155.787 38.2791 155.367 38.1218 155.049 37.8078C154.887 37.6476 154.765 37.4587 154.685 37.2408C154.61 37.0382 154.571 36.8122 154.57 36.5634L154.573 36.0436C154.574 35.7984 154.6 35.587 154.65 35.4092C154.704 35.217 154.787 35.0626 154.9 34.9464C155.014 34.8288 155.168 34.7418 155.359 34.6855C155.537 34.6331 155.748 34.607 155.989 34.607H160.908L160.9 34.0491C160.897 33.8316 160.875 33.6511 160.832 33.5091C160.798 33.3955 160.754 33.3121 160.701 33.26C160.648 33.2085 160.564 33.1665 160.45 33.1343C160.308 33.0942 160.129 33.074 159.912 33.074H156.465C156.312 33.074 156.187 33.0874 156.091 33.1138C156.009 33.1362 155.949 33.1665 155.911 33.2046C155.873 33.2427 155.843 33.302 155.823 33.3821C155.798 33.4795 155.788 33.6046 155.792 33.7576C155.814 33.8739 155.799 34.2185 155.801 34.3647H154.788L154.786 33.6205C154.785 33.3609 154.811 33.1382 154.864 32.9519C154.921 32.7503 155.011 32.5881 155.134 32.4656C155.255 32.3435 155.417 32.253 155.616 32.1947C155.804 32.1397 156.025 32.112 156.279 32.112L159.852 32.1146ZM160.307 36.8972L160.933 36.467L160.921 35.5691H156.184C156.041 35.5691 155.924 35.5814 155.835 35.6059C155.759 35.6267 155.704 35.6547 155.668 35.6899C155.634 35.7238 155.607 35.7769 155.588 35.8482C155.566 35.9368 155.556 36.0488 155.561 36.1827L155.58 36.6611C155.583 36.8077 155.602 36.9304 155.634 37.0288C155.658 37.0998 155.688 37.1535 155.724 37.189C155.76 37.2239 155.813 37.2522 155.883 37.2737C155.977 37.3024 156.095 37.317 156.238 37.317H158.823C159.114 37.317 159.384 37.2815 159.63 37.2112C159.878 37.1408 160.104 37.036 160.307 36.8972ZM163.973 32.451L163.984 34.1914C163.985 34.3393 164.003 34.465 164.036 34.567C164.061 34.6435 164.095 34.7021 164.136 34.7425L164.138 34.7435C164.179 34.7845 164.238 34.8171 164.312 34.8405C164.41 34.8711 164.535 34.8864 164.687 34.8864H169.192L169.159 32.112H170.169L170.244 38.2791H169.234L169.205 35.8485H164.789C164.527 35.8485 164.289 35.8114 164.075 35.7368C163.845 35.6567 163.648 35.5355 163.483 35.373C163.317 35.2102 163.193 35.0148 163.109 34.7865C163.033 34.5767 162.992 34.3387 162.986 34.0729C162.913 33.687 162.965 32.5845 162.959 32.096L163.97 32.1217L163.973 32.451ZM178.537 32.112H179.246L179.321 38.2791H178.311L178.256 33.6231L172.523 38.2791H171.794L171.719 32.112H172.729L172.783 36.7106L178.447 32.112H178.537ZM187.403 32.112H188.172L188.247 38.2791H187.237L187.205 35.5691H181.847L181.881 38.2791H180.87L180.796 32.112H181.805L181.836 34.607H187.192L187.162 32.112H187.403ZM194.954 32.1146C196.317 32.1139 197.006 32.7943 197.02 34.155L197.069 38.2791H196.196L196.122 37.6332L195.973 37.7349C195.808 37.8446 195.65 37.9371 195.499 38.0111C195.342 38.0879 195.196 38.1439 195.06 38.1778C194.923 38.2123 194.761 38.2384 194.574 38.2547C194.39 38.2709 194.18 38.2791 193.943 38.2791H191.407C190.889 38.2791 190.47 38.1218 190.151 37.8078C189.989 37.6476 189.868 37.4587 189.787 37.2408C189.712 37.0382 189.674 36.8122 189.672 36.5634L189.676 36.0436C189.677 35.7984 189.702 35.587 189.752 35.4092C189.806 35.217 189.89 35.0626 190.003 34.9464C190.117 34.8288 190.27 34.7418 190.462 34.6855C190.64 34.6331 190.85 34.607 191.092 34.607H196.01L196.003 34.0491C196 33.8316 195.977 33.6511 195.934 33.5091C195.9 33.3955 195.856 33.3121 195.803 33.26C195.75 33.2085 195.667 33.1665 195.553 33.1343C195.411 33.0942 195.231 33.074 195.015 33.074H191.568C191.414 33.074 191.289 33.0874 191.193 33.1138C191.111 33.1362 191.052 33.1665 191.013 33.2046C190.975 33.2427 190.946 33.302 190.926 33.3821C190.901 33.4795 190.89 33.6046 190.894 33.7576C190.916 33.8739 190.901 34.2185 190.903 34.3647H189.891L189.888 33.6205C189.887 33.3609 189.913 33.1382 189.966 32.9519C190.024 32.7503 190.114 32.5881 190.236 32.4656C190.358 32.3435 190.519 32.253 190.719 32.1947C190.907 32.1397 191.128 32.112 191.382 32.112L194.954 32.1146ZM195.409 36.8972L196.036 36.467L196.023 35.5691H191.287C191.144 35.5691 191.027 35.5814 190.937 35.6059C190.862 35.6267 190.806 35.6547 190.771 35.6899C190.736 35.7238 190.709 35.7769 190.691 35.8482C190.668 35.9368 190.658 36.0488 190.663 36.1827L190.682 36.6611C190.686 36.8077 190.704 36.9304 190.737 37.0288C190.76 37.0998 190.79 37.1535 190.827 37.189C190.863 37.2239 190.916 37.2522 190.985 37.2737C191.079 37.3024 191.198 37.317 191.34 37.317H193.925C194.216 37.317 194.486 37.2815 194.733 37.2112C194.98 37.1408 195.206 37.036 195.409 36.8972ZM203.722 32.112C204.037 32.112 204.317 32.1514 204.56 32.2299C204.825 32.3155 205.048 32.4474 205.229 32.6252C205.409 32.8014 205.545 33.0216 205.637 33.2848C205.721 33.5277 205.767 33.8072 205.776 34.1231C205.824 34.3774 205.789 35.0828 205.793 35.4075H199.444L199.461 36.3625C199.463 36.5758 199.485 36.7543 199.526 36.8966C199.558 37.0073 199.6 37.0881 199.651 37.1386C199.769 37.2574 200.024 37.317 200.414 37.317H204.118C204.391 37.317 204.572 37.2711 204.657 37.1803C204.697 37.1379 204.729 37.0724 204.754 36.9842C204.782 36.8848 204.798 36.7601 204.8 36.6109L204.786 35.8759H205.799C205.802 36.167 205.814 36.468 205.81 36.7562C205.808 37.0151 205.781 37.2395 205.727 37.4284C205.67 37.6319 205.582 37.7954 205.464 37.9179C205.345 38.0423 205.186 38.1351 204.989 38.1951C204.806 38.2507 204.587 38.2791 204.335 38.2791H200.506C200.335 38.2791 200.171 38.2661 200.017 38.2407C199.602 38.1719 199.265 38.0101 199.005 37.7554C198.747 37.5007 198.578 37.1679 198.5 36.7569C198.47 36.5996 198.454 36.4286 198.45 36.2439L198.408 33.8781C198.403 33.5655 198.429 33.2971 198.487 33.0744C198.549 32.8347 198.648 32.6454 198.784 32.5086C198.92 32.3715 199.108 32.2699 199.348 32.2041C199.571 32.1429 199.84 32.112 200.152 32.112H203.722ZM199.418 34.0351L199.426 34.4458H204.762L204.754 34.027C204.749 33.8143 204.725 33.6371 204.682 33.4961C204.649 33.3847 204.606 33.3033 204.555 33.2525C204.507 33.2036 204.428 33.1639 204.32 33.133C204.183 33.0939 204.01 33.074 203.801 33.074H200.354C200.144 33.074 199.972 33.0923 199.837 33.1284C199.722 33.159 199.639 33.202 199.586 33.2561C199.531 33.3118 199.49 33.3987 199.461 33.516C199.428 33.6511 199.414 33.8244 199.418 34.0351ZM206.457 32.7327L206.46 32.112H213.837L213.833 33.074H210.654L210.724 38.2791H209.714L209.644 33.074H206.455L206.457 32.7327ZM216.68 38.2791C216.026 38.2791 215.512 38.097 215.141 37.7336C214.952 37.5476 214.809 37.3196 214.714 37.0509C214.625 36.8015 214.579 36.5175 214.574 36.1999L214.532 33.855C214.527 33.5443 214.553 33.2779 214.609 33.0561C214.67 32.8174 214.766 32.6308 214.899 32.4979C215.035 32.3627 215.221 32.2637 215.457 32.2002C215.677 32.1416 215.944 32.112 216.259 32.112L219.7 32.1113C219.857 32.1103 220.01 32.1217 220.157 32.1445C220.586 32.2113 220.934 32.3768 221.201 32.6399C221.467 32.9027 221.641 33.2483 221.722 33.6775C221.751 33.8309 221.769 34.0003 221.774 34.1846L221.787 34.6301L220.803 34.6611L220.791 34.0983C220.782 33.8827 220.753 33.7013 220.704 33.5554C220.664 33.4355 220.612 33.344 220.548 33.2815C220.486 33.2203 220.398 33.172 220.284 33.1375C220.145 33.0952 219.971 33.074 219.762 33.074H216.468C216.254 33.074 216.078 33.0913 215.942 33.1255C215.827 33.1529 215.745 33.1926 215.696 33.2421C215.647 33.2919 215.608 33.374 215.582 33.4883C215.551 33.6238 215.537 33.7993 215.542 34.0149L215.584 36.2999C215.586 36.5106 215.611 36.6888 215.657 36.8331C215.694 36.9506 215.745 37.0412 215.809 37.104C215.874 37.1669 215.965 37.2164 216.083 37.2522C216.225 37.2952 216.401 37.317 216.613 37.317H219.906C220.124 37.317 220.301 37.3001 220.434 37.2669C220.548 37.2382 220.63 37.1988 220.68 37.149C220.729 37.0995 220.767 37.0167 220.794 36.9018C220.825 36.7663 220.838 36.5901 220.833 36.3742L220.819 35.6287H221.816C221.823 35.8599 221.807 36.3432 221.844 36.5344C221.849 36.8477 221.824 37.1145 221.768 37.3336C221.708 37.572 221.611 37.7587 221.478 37.8932C221.344 38.028 221.158 38.1273 220.92 38.1905C220.7 38.2495 220.433 38.2791 220.119 38.2791H216.68ZM224.592 32.112H230.308L230.383 38.2791H229.372L229.345 35.913H225.9L223.917 38.2791H222.485L224.521 35.8879C224.399 35.87 224.285 35.8423 224.176 35.8052C223.951 35.7274 223.756 35.6088 223.592 35.4496C223.429 35.29 223.307 35.0972 223.226 34.8718C223.153 34.666 223.117 34.4334 223.117 34.1748L223.119 33.5935C223.12 33.3443 223.147 33.1274 223.2 32.9444C223.257 32.7464 223.345 32.5871 223.464 32.4666C223.583 32.3442 223.742 32.2533 223.94 32.1947C224.124 32.1397 224.342 32.112 224.592 32.112ZM224.793 34.9509H229.333L229.31 33.074H224.77C224.626 33.074 224.506 33.0874 224.413 33.1138C224.335 33.1356 224.278 33.1656 224.241 33.2033L224.24 33.2056C224.202 33.2431 224.173 33.3004 224.153 33.3772C224.128 33.4717 224.117 33.5912 224.119 33.7349L224.126 34.2765C224.128 34.4256 224.144 34.552 224.176 34.6549C224.199 34.7305 224.229 34.7875 224.266 34.8246C224.299 34.8575 224.35 34.8852 224.421 34.9063C224.517 34.9363 224.642 34.9509 224.793 34.9509ZM237.134 38.2791C236.48 38.2791 235.966 38.097 235.596 37.7336C235.407 37.5476 235.264 37.3196 235.169 37.0509C235.08 36.8015 235.033 36.5175 235.029 36.1999L234.987 33.855C234.982 33.5443 235.007 33.2779 235.064 33.0561C235.125 32.8174 235.221 32.6308 235.354 32.4979C235.49 32.3627 235.675 32.2637 235.912 32.2002C236.132 32.1416 236.399 32.112 236.714 32.112L240.154 32.1113C240.312 32.1103 240.465 32.1217 240.612 32.1445C241.041 32.2113 241.389 32.3768 241.656 32.6399C241.922 32.9027 242.096 33.2483 242.177 33.6775C242.206 33.8309 242.223 34.0003 242.229 34.1846L242.242 34.6301L241.258 34.6611L241.246 34.0983C241.237 33.8827 241.208 33.7013 241.159 33.5554C241.119 33.4355 241.067 33.344 241.003 33.2815C240.941 33.2203 240.852 33.172 240.738 33.1375C240.599 33.0952 240.425 33.074 240.217 33.074H236.923C236.709 33.074 236.533 33.0913 236.397 33.1255C236.282 33.1529 236.2 33.1926 236.151 33.2421C236.102 33.2919 236.063 33.374 236.037 33.4883C236.006 33.6238 235.992 33.7993 235.997 34.0149L236.039 36.2999C236.041 36.5106 236.065 36.6888 236.111 36.8331C236.149 36.9506 236.2 37.0412 236.264 37.104C236.328 37.1669 236.42 37.2164 236.537 37.2522C236.679 37.2952 236.856 37.317 237.068 37.317H240.361C240.579 37.317 240.755 37.3001 240.889 37.2669C241.003 37.2382 241.085 37.1988 241.135 37.149C241.184 37.0995 241.222 37.0167 241.248 36.9018C241.28 36.7663 241.293 36.5901 241.288 36.3742L241.273 35.6287H242.271C242.278 35.8599 242.262 36.3432 242.298 36.5344C242.304 36.8477 242.279 37.1145 242.223 37.3336C242.163 37.572 242.066 37.7587 241.933 37.8932C241.799 38.028 241.613 38.1273 241.375 38.1905C241.155 38.2495 240.888 38.2791 240.574 38.2791H237.134ZM246.984 37.942L246.885 30.1764H254.681L254.676 31.1385H247.906L247.935 33.4886H253.545C253.808 33.4886 254.048 33.5267 254.263 33.6029C254.493 33.6843 254.693 33.8084 254.863 33.9745C255.032 34.1406 255.16 34.3377 255.245 34.5663C255.325 34.7796 255.368 35.019 255.373 35.2838L255.393 36.7702C255.398 37.0272 255.374 37.2506 255.322 37.4388C255.265 37.643 255.174 37.8062 255.051 37.9277C254.928 38.0482 254.766 38.1377 254.565 38.1964C254.377 38.2514 254.156 38.2791 253.904 38.2791H246.989L246.984 37.942ZM247.986 37.317H253.717C253.867 37.317 253.989 37.3037 254.083 37.2773C254.16 37.2558 254.218 37.2258 254.255 37.1874C254.293 37.1496 254.322 37.0891 254.344 37.0067C254.37 36.9057 254.383 36.7793 254.382 36.6279L254.374 35.1923C254.371 35.0334 254.352 34.9004 254.317 34.7943C254.29 34.7103 254.254 34.6461 254.21 34.6018C254.166 34.5588 254.103 34.5246 254.023 34.4992C253.92 34.467 253.789 34.4507 253.633 34.4507H247.948L247.986 37.317ZM256.749 37.942L256.65 30.1774L262.906 30.1758C263.565 30.1745 264.074 30.3536 264.434 30.7115C264.791 31.0665 264.973 31.5743 264.982 32.2338L265 33.501C265.006 33.815 264.98 34.0827 264.924 34.3041C264.863 34.5432 264.766 34.7324 264.631 34.8702C264.498 35.0079 264.31 35.1099 264.071 35.176C263.848 35.2372 263.58 35.2678 263.268 35.2678H257.725L257.764 38.2791H256.754L256.749 37.942ZM257.712 34.3058H263.073C263.47 34.3058 263.721 34.2504 263.829 34.14C263.877 34.0902 263.915 34.0065 263.943 33.8896C263.976 33.7502 263.991 33.5733 263.99 33.36L263.984 32.1328C263.982 31.9234 263.959 31.7459 263.914 31.6013C263.878 31.4853 263.83 31.3977 263.771 31.3394C263.712 31.2818 263.625 31.2356 263.511 31.2017C263.369 31.1597 263.192 31.1385 262.981 31.1385H257.671L257.712 34.3058ZM268.365 38.2791C268.021 38.2791 267.71 38.2309 267.433 38.1348C267.141 38.0335 266.89 37.8798 266.681 37.6746C266.472 37.4688 266.315 37.2203 266.211 36.9295C266.114 36.6588 266.064 36.3507 266.061 36.0065L266.01 32.1322C266.007 31.7896 266.039 31.4951 266.107 31.2499C266.178 30.9893 266.291 30.7816 266.444 30.6265C266.596 30.4728 266.803 30.3582 267.063 30.2829C267.31 30.2119 267.603 30.1764 267.941 30.1764H272.56C272.906 30.1764 273.216 30.2243 273.492 30.3194C273.783 30.4217 274.035 30.5757 274.243 30.7819C274.453 30.9877 274.61 31.2352 274.713 31.5238C274.81 31.7944 274.86 32.1025 274.862 32.4471L274.914 36.3195C274.917 36.6643 274.886 36.9591 274.819 37.2034C274.747 37.4652 274.635 37.674 274.481 37.8287C274.329 37.9827 274.122 38.0974 273.861 38.1723C273.614 38.2433 273.321 38.2791 272.984 38.2791H268.365ZM268.29 37.317H272.751C273.213 37.317 273.52 37.2363 273.675 37.0757L273.676 37.0747C273.75 36.9988 273.807 36.8878 273.845 36.7419C273.887 36.5797 273.907 36.3774 273.904 36.1355L273.852 32.35C273.849 32.1142 273.82 31.9136 273.765 31.7491C273.718 31.6055 273.652 31.4922 273.567 31.4082C273.484 31.3258 273.372 31.2616 273.232 31.2167C273.069 31.1646 272.87 31.1385 272.634 31.1385H268.173C267.712 31.1385 267.404 31.2189 267.249 31.3795L267.248 31.3808C267.174 31.456 267.118 31.5668 267.08 31.7127C267.037 31.8745 267.017 32.0765 267.02 32.3181L267.072 36.1035C267.075 36.3393 267.104 36.5399 267.159 36.7047C267.207 36.848 267.273 36.963 267.358 37.0483C267.441 37.1301 267.552 37.1936 267.693 37.2385C267.856 37.2907 268.055 37.317 268.29 37.317Z" fill="#FEFEFE"/>
<path d="M268.746 0.044972L274.903 6.30359V22.8707H249.526L243.404 16.5778C243.393 11.067 243.382 5.51085 243.37 0L268.746 0.044972ZM249.526 6.56706V16.3906H268.746V6.56706H249.526Z" fill="#1FB6EA"/>
<path d="M106.915 14.5562V8.29786H126.331L120.062 14.5562H106.915ZM128.098 0.00341797L128.087 6.57044H104.983V16.394H127.749V22.8738H104.983L98.8252 16.6155V0.00341797H128.098Z" fill="#FEFEFE"/>
<path d="M64.8398 22.8716L64.8522 0H96.3853V8.29447L90.1945 14.5528H96.3853V22.8706H73.8358V16.3906H90.1945V14.5528H73.8358V8.29447H90.1945V6.56706H71.8446L71.8325 22.8716H64.8398Z" fill="#FEFEFE"/>
<path d="M28.4206 0.000985949L28.4291 6.56706H6.16517V16.3906L28.632 16.3974L22.2734 22.8707H6.08732L0.00877813 16.5668L0 0L28.4206 0.000985949Z" fill="#FEFEFE"/>
<path d="M25.9434 22.8746L32.3303 16.374L54.3236 16.3864L56.2487 14.5528H30.8755L30.8667 0.000667901H37.0231L37.0319 8.29447H56.2168V0H62.4076V16.5668L56.1744 22.8707L25.9434 22.8746Z" fill="#FEFEFE"/>
<path d="M155.893 14.5638L164.042 22.8759H154.323L146.105 14.5329L139.012 14.5528L139.018 8.29447H141.755H155.909V6.56706H137.559V22.8703L130.567 22.8368V0H162.065V14.5528L155.893 14.5638Z" fill="#FEFEFE"/>
<path d="M175.449 22.8711V0.000488281H206.982V8.34019L200.791 14.5532H206.982V22.8711H184.433V16.391H200.791V14.5532H184.433V8.29493H200.791V6.56783H182.442V22.8711H175.449Z" fill="#1FB6EA"/>
<path d="M234.678 14.5638L242.827 22.8759H233.108L224.89 14.5329L217.797 14.5528L217.803 8.29447H220.54H234.694V6.56706H216.344V22.8703L209.353 22.8368V0H240.85V14.5528L234.678 14.5638Z" fill="#1FB6EA"/>
</svg>
