<svg width="33" height="105" viewBox="0 0 33 105" fill="none" xmlns="http://www.w3.org/2000/svg">
<path d="M15.4247 27.8978V5.33781H17.5847V27.8978H15.4247ZM15.4247 59.8978V37.3378H17.5847V59.8978H15.4247Z" fill="white"/>
<path d="M9.06 76.6025H11.148L14.796 84.0425C14.94 84.3465 15.06 84.6265 15.156 84.8825C15.268 85.1545 15.34 85.3545 15.372 85.4825C15.404 85.3385 15.468 85.1305 15.564 84.8585C15.676 84.5865 15.804 84.3145 15.948 84.0425L19.62 76.6025H21.78L16.62 86.9225H14.22L9.06 76.6025Z" fill="white"/>
<path d="M9.06 91.6025H11.148L14.796 99.0425C14.94 99.3465 15.06 99.6265 15.156 99.8825C15.268 100.155 15.34 100.355 15.372 100.483C15.404 100.339 15.468 100.131 15.564 99.8585C15.676 99.5865 15.804 99.3145 15.948 99.0425L19.62 91.6025H21.78L16.62 101.923H14.22L9.06 91.6025Z" fill="white"/>
</svg>
