<svg width="12742" height="1650" viewBox="0 0 12742 1650" fill="none" xmlns="http://www.w3.org/2000/svg">
<path d="M5631 394V395H5630V394H5631ZM5857.29 394V393H5858.29L5858.29 394H5857.29ZM5857.29 556.842H5858.29L5858.29 557.842H5857.29V556.842ZM5513 519V518H5514V519H5513ZM5513 556.842V557.842H5512V556.842H5513ZM1 520C0.447754 520 0 519.552 0 519C0 518.448 0.447754 518 1 518V520ZM5632 0V394H5630V0H5632ZM5631 393H5857.29V395H5631V393ZM5858.29 394L5858.29 556.842H5856.29L5856.29 394H5858.29ZM5857.29 557.842H5704.42V555.842H5857.29V557.842ZM5704.42 557.842H5513V555.842H5704.42V557.842ZM5512 556.842V519H5514V556.842H5512ZM5513 520H1V518H5513V520Z" fill="#1FB6EA"/>
<path d="M12740.5 416C12741.1 416 12741.5 415.552 12741.5 415C12741.5 414.448 12741.1 414 12740.5 414L12740.5 416ZM6105 415L6105 414L6104.64 414L6104.36 414.233L6105 415ZM5855.5 623.5L5855.5 624.5L5855.86 624.5L5856.14 624.267L5855.5 623.5ZM1207 622.5L1206 622.5L1206 624.5L1207 624.5L1207 622.5ZM12740.5 414L6105 414L6105 416L12740.5 416L12740.5 414ZM6104.36 414.233L5854.86 622.733L5856.14 624.267L6105.64 415.767L6104.36 414.233ZM5855.5 622.5L1207 622.5L1207 624.5L5855.5 624.5L5855.5 622.5Z" fill="#E53A24"/>
<path d="M5719.5 1649C5719.5 1649.55 5719.05 1650 5718.5 1650C5717.95 1650 5717.5 1649.55 5717.5 1649L5719.5 1649ZM5718.5 1015L5717.5 1015L5718.5 1015ZM5718.5 810.5L5717.5 810.5L5717.5 809.5L5718.5 809.5L5718.5 810.5ZM10012.5 490L10013.5 490L10013.5 492L10012.5 492L10012.5 490ZM6297.5 491L6296.5 491L6296.5 490L6297.5 490L6297.5 491ZM6297.5 810.5L6298.5 810.5L6298.5 811.5L6297.5 811.5L6297.5 810.5ZM5717.5 1649L5717.5 1015L5719.5 1015L5719.5 1649L5717.5 1649ZM5717.5 1015L5717.5 810.5L5719.5 810.5L5719.5 1015L5717.5 1015ZM6297.5 490L10012.5 490L10012.5 492L6297.5 492L6297.5 490ZM5718.5 809.5L6297.5 809.5L6297.5 811.5L5718.5 811.5L5718.5 809.5ZM6296.5 810.5L6296.5 491L6298.5 491L6298.5 810.5L6296.5 810.5Z" fill="#1FB6EA"/>
</svg>
