<svg width="1300" height="619" viewBox="0 0 1300 619" fill="none" xmlns="http://www.w3.org/2000/svg">
<g opacity="0.8">
<line x1="21.627" y1="0.00097658" x2="21.6269" y2="618.088" stroke="white" stroke-opacity="0.1" stroke-width="0.75"/>
<line x1="74.7656" y1="0.000976578" x2="74.7656" y2="618.088" stroke="white" stroke-opacity="0.1" stroke-width="0.75"/>
<line x1="127.82" y1="0.000976578" x2="127.82" y2="618.088" stroke="white" stroke-opacity="0.1" stroke-width="0.75"/>
<line x1="181.032" y1="1.603e-08" x2="181.032" y2="618.087" stroke="white" stroke-opacity="0.1" stroke-width="0.75"/>
<line x1="234.101" y1="1.49112e-08" x2="234.101" y2="618.087" stroke="white" stroke-opacity="0.1" stroke-width="0.75"/>
<line x1="287.298" y1="1.58042e-08" x2="287.298" y2="618.087" stroke="white" stroke-opacity="0.1" stroke-width="0.75"/>
<line x1="340.429" y1="0.000976578" x2="340.429" y2="618.088" stroke="white" stroke-opacity="0.1" stroke-width="0.75"/>
<line x1="393.485" y1="1.60346e-08" x2="393.485" y2="618.087" stroke="white" stroke-opacity="0.1" stroke-width="0.75"/>
<line x1="446.697" y1="0.000976577" x2="446.697" y2="618.088" stroke="white" stroke-opacity="0.1" stroke-width="0.75"/>
<line x1="499.769" y1="1.58087e-08" x2="499.769" y2="618.087" stroke="white" stroke-opacity="0.1" stroke-width="0.75"/>
<line x1="552.963" y1="0.000976578" x2="552.963" y2="618.088" stroke="white" stroke-opacity="0.1" stroke-width="0.75"/>
<line x1="606.099" y1="15.4531" x2="606.099" y2="599.545" stroke="white" stroke-opacity="0.1" stroke-width="0.75"/>
<line x1="650" y1="239.883" x2="0.000122052" y2="239.883" stroke="white" stroke-opacity="0.1" stroke-width="0.75"/>
<line x1="650" y1="287.787" x2="0.000122052" y2="287.787" stroke="white" stroke-opacity="0.1" stroke-width="0.75"/>
<line x1="650" y1="335.688" x2="0.000122052" y2="335.688" stroke="white" stroke-opacity="0.1" stroke-width="0.75"/>
<line x1="650" y1="383.589" x2="0.000122052" y2="383.589" stroke="white" stroke-opacity="0.1" stroke-width="0.75"/>
<line x1="650" y1="431.492" x2="0.000122052" y2="431.492" stroke="white" stroke-opacity="0.1" stroke-width="0.75"/>
<line x1="650" y1="479.393" x2="0.000122052" y2="479.393" stroke="white" stroke-opacity="0.1" stroke-width="0.75"/>
<line x1="650" y1="527.294" x2="0.000122052" y2="527.294" stroke="white" stroke-opacity="0.1" stroke-width="0.75"/>
<line x1="650" y1="575.197" x2="0.000122052" y2="575.197" stroke="white" stroke-opacity="0.1" stroke-width="0.75"/>
<line x1="650" y1="48.2754" x2="0.000122052" y2="48.2754" stroke="white" stroke-opacity="0.1" stroke-width="0.75"/>
<line x1="650" y1="0.375" x2="0.000122053" y2="0.374973" stroke="white" stroke-opacity="0.1" stroke-width="0.75"/>
<line x1="650" y1="96.1807" x2="0.000122052" y2="96.1806" stroke="white" stroke-opacity="0.1" stroke-width="0.75"/>
<line x1="650" y1="144.08" x2="0.000122052" y2="144.08" stroke="white" stroke-opacity="0.1" stroke-width="0.75"/>
<line x1="650" y1="191.981" x2="0.000122052" y2="191.981" stroke="white" stroke-opacity="0.1" stroke-width="0.75"/>
<line x1="604.15" y1="617.377" x2="0.00164797" y2="617.377" stroke="white" stroke-opacity="0.1" stroke-width="0.75"/>
</g>
<g opacity="0.8">
<line x1="671.627" y1="0.00097658" x2="671.627" y2="618.088" stroke="white" stroke-opacity="0.1" stroke-width="0.75"/>
<line x1="724.766" y1="0.000976578" x2="724.766" y2="618.088" stroke="white" stroke-opacity="0.1" stroke-width="0.75"/>
<line x1="777.82" y1="0.000976578" x2="777.82" y2="618.088" stroke="white" stroke-opacity="0.1" stroke-width="0.75"/>
<line x1="831.032" y1="1.603e-08" x2="831.032" y2="618.087" stroke="white" stroke-opacity="0.1" stroke-width="0.75"/>
<line x1="884.101" y1="1.49112e-08" x2="884.101" y2="618.087" stroke="white" stroke-opacity="0.1" stroke-width="0.75"/>
<line x1="937.298" y1="1.58042e-08" x2="937.298" y2="618.087" stroke="white" stroke-opacity="0.1" stroke-width="0.75"/>
<line x1="990.429" y1="0.000976578" x2="990.429" y2="618.088" stroke="white" stroke-opacity="0.1" stroke-width="0.75"/>
<line x1="1043.49" y1="1.60346e-08" x2="1043.49" y2="618.087" stroke="white" stroke-opacity="0.1" stroke-width="0.75"/>
<line x1="1096.7" y1="0.000976577" x2="1096.7" y2="618.088" stroke="white" stroke-opacity="0.1" stroke-width="0.75"/>
<line x1="1149.77" y1="1.58087e-08" x2="1149.77" y2="618.087" stroke="white" stroke-opacity="0.1" stroke-width="0.75"/>
<line x1="1202.96" y1="0.000976578" x2="1202.96" y2="618.088" stroke="white" stroke-opacity="0.1" stroke-width="0.75"/>
<line x1="1256.1" y1="15.4531" x2="1256.1" y2="599.545" stroke="white" stroke-opacity="0.1" stroke-width="0.75"/>
<line x1="1300" y1="239.883" x2="650" y2="239.883" stroke="white" stroke-opacity="0.1" stroke-width="0.75"/>
<line x1="1300" y1="287.787" x2="650" y2="287.787" stroke="white" stroke-opacity="0.1" stroke-width="0.75"/>
<line x1="1300" y1="335.688" x2="650" y2="335.688" stroke="white" stroke-opacity="0.1" stroke-width="0.75"/>
<line x1="1300" y1="383.589" x2="650" y2="383.589" stroke="white" stroke-opacity="0.1" stroke-width="0.75"/>
<line x1="1300" y1="431.492" x2="650" y2="431.492" stroke="white" stroke-opacity="0.1" stroke-width="0.75"/>
<line x1="1300" y1="479.393" x2="650" y2="479.393" stroke="white" stroke-opacity="0.1" stroke-width="0.75"/>
<line x1="1300" y1="527.294" x2="650" y2="527.294" stroke="white" stroke-opacity="0.1" stroke-width="0.75"/>
<line x1="1300" y1="575.197" x2="650" y2="575.197" stroke="white" stroke-opacity="0.1" stroke-width="0.75"/>
<line x1="1300" y1="48.2754" x2="650" y2="48.2754" stroke="white" stroke-opacity="0.1" stroke-width="0.75"/>
<line x1="1300" y1="0.375" x2="650" y2="0.374973" stroke="white" stroke-opacity="0.1" stroke-width="0.75"/>
<line x1="1300" y1="96.1807" x2="650" y2="96.1806" stroke="white" stroke-opacity="0.1" stroke-width="0.75"/>
<line x1="1300" y1="144.08" x2="650" y2="144.08" stroke="white" stroke-opacity="0.1" stroke-width="0.75"/>
<line x1="1300" y1="191.981" x2="650" y2="191.981" stroke="white" stroke-opacity="0.1" stroke-width="0.75"/>
<line x1="1254.15" y1="617.377" x2="650.002" y2="617.377" stroke="white" stroke-opacity="0.1" stroke-width="0.75"/>
</g>
</svg>
