<svg width="736" height="775" viewBox="0 0 736 775" fill="none" xmlns="http://www.w3.org/2000/svg">
    <g opacity="0.8">
        <line x1="735.999" y1="26.1638" x2="0.000427219" y2="26.1638" stroke="white" stroke-opacity="0.3" stroke-width="1.18304"/>
        <line x1="735.999" y1="89.4372" x2="0.000427221" y2="89.4372" stroke="white" stroke-opacity="0.3" stroke-width="1.18304"/>
        <line x1="735.998" y1="152.613" x2="-0.000549341" y2="152.613" stroke="white" stroke-opacity="0.3" stroke-width="1.18304"/>
        <line x1="736" y1="215.976" x2="0.00140378" y2="215.976" stroke="white" stroke-opacity="0.3" stroke-width="1.18304"/>
        <line x1="736" y1="279.17" x2="0.00140379" y2="279.17" stroke="white" stroke-opacity="0.3" stroke-width="1.18304"/>
        <line x1="736" y1="342.514" x2="0.00140378" y2="342.514" stroke="white" stroke-opacity="0.3" stroke-width="1.18304"/>
        <line x1="735.999" y1="405.782" x2="0.000427221" y2="405.782" stroke="white" stroke-opacity="0.3" stroke-width="1.18304"/>
        <line x1="736" y1="468.961" x2="0.00140378" y2="468.961" stroke="white" stroke-opacity="0.3" stroke-width="1.18304"/>
        <line x1="735.998" y1="532.324" x2="-0.00054934" y2="532.324" stroke="white" stroke-opacity="0.3" stroke-width="1.18304"/>
        <line x1="736" y1="595.519" x2="0.00140378" y2="595.519" stroke="white" stroke-opacity="0.3" stroke-width="1.18304"/>
        <line x1="735.998" y1="658.862" x2="-0.000549342" y2="658.862" stroke="white" stroke-opacity="0.3" stroke-width="1.18304"/>
        <line x1="717.598" y1="722.134" x2="22.0788" y2="722.133" stroke="white" stroke-opacity="0.3" stroke-width="1.18304"/>
        <line x1="450.209" y1="774.266" x2="450.209" y2="0.265625" stroke="white" stroke-opacity="0.3" stroke-width="1.18304"/>
        <line x1="393.169" y1="774.266" x2="393.169" y2="0.265625" stroke="white" stroke-opacity="0.3" stroke-width="1.18304"/>
        <line x1="336.129" y1="774.266" x2="336.129" y2="0.265625" stroke="white" stroke-opacity="0.3" stroke-width="1.18304"/>
        <line x1="279.09" y1="774.266" x2="279.09" y2="0.265625" stroke="white" stroke-opacity="0.3" stroke-width="1.18304"/>
        <line x1="222.048" y1="774.266" x2="222.048" y2="0.265625" stroke="white" stroke-opacity="0.3" stroke-width="1.18304"/>
        <line x1="165.01" y1="774.266" x2="165.01" y2="0.265625" stroke="white" stroke-opacity="0.3" stroke-width="1.18304"/>
        <line x1="107.969" y1="774.266" x2="107.969" y2="0.265625" stroke="white" stroke-opacity="0.3" stroke-width="1.18304"/>
        <line x1="50.928" y1="774.266" x2="50.928" y2="0.265625" stroke="white" stroke-opacity="0.3" stroke-width="1.18304"/>
        <line x1="678.369" y1="774.266" x2="678.369" y2="0.265625" stroke="white" stroke-opacity="0.3" stroke-width="1.18304"/>
        <line x1="735.409" y1="774.266" x2="735.409" y2="0.265625" stroke="white" stroke-opacity="0.3" stroke-width="1.18304"/>
        <line x1="621.327" y1="774.266" x2="621.327" y2="0.265625" stroke="white" stroke-opacity="0.3" stroke-width="1.18304"/>
        <line x1="564.29" y1="774.266" x2="564.29" y2="0.265625" stroke="white" stroke-opacity="0.3" stroke-width="1.18304"/>
        <line x1="507.248" y1="774.266" x2="507.248" y2="0.265625" stroke="white" stroke-opacity="0.3" stroke-width="1.18304"/>
        <line x1="0.701448" y1="719.668" x2="0.701421" y2="0.265991" stroke="white" stroke-opacity="0.3" stroke-width="1.18304"/>
    </g>
</svg>
