<svg width="4296" height="1160" viewBox="0 0 4296 1160" fill="none" xmlns="http://www.w3.org/2000/svg">
<path d="M2.00063 1159C2.00063 1159.55 1.55291 1160 1.00063 1160C0.448344 1160 0.000628147 1159.55 0.000627708 1159L2.00063 1159ZM1.0001 525L0.000100484 525L1.0001 525ZM1.00001 320.5L1.02736e-05 320.5L9.8756e-06 319.5L1.00001 319.5L1.00001 320.5ZM4295 0.000168311L4296 0.000168324L4296 2.00017L4295 2.00017L4295 0.000168311ZM580 0.999973L579 0.999973L579 -2.74799e-05L580 -2.7408e-05L580 0.999973ZM580 320.5L581 320.5L581 321.5L580 321.5L580 320.5ZM0.000627708 1159L0.000100484 525L2.0001 525L2.00063 1159L0.000627708 1159ZM0.000100484 525L1.02736e-05 320.5L2.00001 320.5L2.0001 525L0.000100484 525ZM580 -2.7408e-05L4295 0.000168311L4295 2.00017L580 1.99997L580 -2.7408e-05ZM1.00001 319.5L580 319.5L580 321.5L1.00001 321.5L1.00001 319.5ZM579 320.5L579 0.999973L581 0.999973L581 320.5L579 320.5Z" fill="#1FB6EA"/>
</svg>
