<svg width="11536" height="211" viewBox="0 0 11536 211" fill="none" xmlns="http://www.w3.org/2000/svg">
<path d="M11534.5 2C11535.1 2 11535.5 1.55228 11535.5 1C11535.5 0.447715 11535.1 2.32406e-08 11534.5 0L11534.5 2ZM4899 1L4899 2.08764e-08L4898.64 5.6098e-09L4898.36 0.232662L4899 1ZM4649.5 209.5L4649.5 210.5L4649.86 210.5L4650.14 210.267L4649.5 209.5ZM0.999991 208.5L-9.4216e-06 208.5L-9.51241e-06 210.5L0.99999 210.5L0.999991 208.5ZM11534.5 0L4899 2.08764e-08L4899 2L11534.5 2L11534.5 0ZM4898.36 0.232662L4648.86 208.733L4650.14 210.267L4899.64 1.76734L4898.36 0.232662ZM4649.5 208.5L0.999991 208.5L0.99999 210.5L4649.5 210.5L4649.5 208.5Z" fill="#E53A24"/>
</svg>
