<svg width="5303" height="1060" viewBox="0 0 5303 1060" fill="none" xmlns="http://www.w3.org/2000/svg">
<path d="M5059 879.5V880.5H5058V879.5H5059ZM5302 1059L5303 1059L5303 1060H5302V1059ZM4990.35 1021.15V1020.15H4991.35V1021.15H4990.35ZM4990.35 1059V1060H4989.35V1059H4990.35ZM1 1022.15C0.447715 1022.15 0 1021.7 0 1021.15C0 1020.59 0.447715 1020.15 1 1020.15V1022.15ZM5059 790.343H5058V789.343H5059V790.343ZM5302 879.5V878.5H5303L5303 879.5L5302 879.5ZM5302 790.343H5303V791.343H5302V790.343ZM5302 1060H5163.62V1058H5302V1060ZM5163.62 1060H4990.35V1058H5163.62V1060ZM4989.35 1059V1021.15H4991.35V1059H4989.35ZM4990.35 1022.15H1V1020.15H4990.35V1022.15ZM5060 790.343V879.5H5058V790.343H5060ZM5059 878.5H5302V880.5H5059V878.5ZM5303 879.5L5303 1059L5301 1059L5301 879.5L5303 879.5ZM5303 0V790.343H5301V0H5303ZM5302 791.343H5059V789.343H5302V791.343Z" fill="#1FB6EA"/>
</svg>
