<svg width="5859" height="558" viewBox="0 0 5859 558" fill="none" xmlns="http://www.w3.org/2000/svg">
<path d="M5631 394V395H5630V394H5631ZM5857.29 394V393H5858.29L5858.29 394H5857.29ZM5857.29 556.842H5858.29L5858.29 557.842H5857.29V556.842ZM5513 519V518H5514V519H5513ZM5513 556.842V557.842H5512V556.842H5513ZM1 520C0.447754 520 0 519.552 0 519C0 518.448 0.447754 518 1 518V520ZM5632 0V394H5630V0H5632ZM5631 393H5857.29V395H5631V393ZM5858.29 394L5858.29 556.842H5856.29L5856.29 394H5858.29ZM5857.29 557.842H5704.42V555.842H5857.29V557.842ZM5704.42 557.842H5513V555.842H5704.42V557.842ZM5512 556.842V519H5514V556.842H5512ZM5513 520H1V518H5513V520Z" fill="#1FB6EA"/>
</svg>
