<svg width="105" height="72" viewBox="0 0 105 72" fill="none" xmlns="http://www.w3.org/2000/svg">
<g filter="url(#filter0_d_438_3466)">
<path d="M0 70V0H18.1649V5.95745H6.67282V64.0425H18.1649V70H0Z" fill="#E53A24"/>
<path d="M49.1274 45.7979L47.5704 16.383V7.44681H55.4295V16.383L53.8726 45.7979H49.1274ZM50.3879 62.1808C49.1027 62.1808 48.04 61.7589 47.1997 60.9149C46.3595 60.0709 45.9393 59.0035 45.9393 57.7128C45.9393 56.422 46.3595 55.3546 47.1997 54.5106C48.04 53.6667 49.1027 53.2447 50.3879 53.2447H52.6121C54.0456 53.2447 55.133 53.6667 55.8744 54.5106C56.6653 55.305 57.0607 56.3475 57.0607 57.6383C57.0607 58.9291 56.6405 60.0213 55.8003 60.9149C54.96 61.7589 53.8973 62.1808 52.6121 62.1808H50.3879Z" fill="#E53A24"/>
<path d="M84.8351 70V64.0425H96.3272V5.95745H84.8351V0H103V70H84.8351Z" fill="#E53A24"/>
</g>
<defs>
<filter id="filter0_d_438_3466" x="0" y="0" width="105" height="72" filterUnits="userSpaceOnUse" color-interpolation-filters="sRGB">
<feFlood flood-opacity="0" result="BackgroundImageFix"/>
<feColorMatrix in="SourceAlpha" type="matrix" values="0 0 0 0 0 0 0 0 0 0 0 0 0 0 0 0 0 0 127 0" result="hardAlpha"/>
<feOffset dx="2" dy="2"/>
<feComposite in2="hardAlpha" operator="out"/>
<feColorMatrix type="matrix" values="0 0 0 0 0.121569 0 0 0 0 0.713726 0 0 0 0 0.917647 0 0 0 1 0"/>
<feBlend mode="normal" in2="BackgroundImageFix" result="effect1_dropShadow_438_3466"/>
<feBlend mode="normal" in="SourceGraphic" in2="effect1_dropShadow_438_3466" result="shape"/>
</filter>
</defs>
</svg>
